{"glyphs":{"0":{"ha":644,"x_min":13,"x_max":656,"o":"m 38 278 l 113 706 q 152 821 125 769 q 220 909 179 872 q 313 965 261 946 q 425 985 365 985 q 600 910 544 985 q 632 706 656 835 l 557 278 q 449 64 532 142 q 244 -14 367 -14 q 68 65 124 -14 q 38 278 13 143 m 300 788 l 192 183 q 191 62 176 100 q 251 24 206 24 q 325 61 297 24 q 368 183 353 99 l 476 788 q 477 909 492 871 q 418 947 463 947 q 344 909 372 947 q 300 788 315 871 z "},"1":{"ha":382,"x_min":56,"x_max":376,"o":"m 56 0 l 211 888 l 121 843 l 111 875 l 301 971 l 376 971 l 206 0 l 56 0 z "},"2":{"ha":572,"x_min":-43,"x_max":553,"o":"m 135 899 q 238 962 179 939 q 358 985 297 985 q 501 936 449 985 q 553 801 553 888 q 506 644 553 722 q 368 492 460 567 l 238 392 q 112 272 158 328 q 38 154 65 215 l 443 154 l 415 0 l -43 0 q 40 250 -21 132 q 206 492 100 368 l 243 535 q 370 708 331 638 q 410 836 410 778 q 385 914 410 886 q 315 942 360 942 q 234 923 278 942 q 154 872 190 904 l 135 899 z "},"3":{"ha":519,"x_min":-93,"x_max":489,"o":"m 97 -12 q -10 3 40 -12 q -93 50 -60 19 l -68 81 q 1 43 -35 56 q 69 31 36 31 q 249 251 210 31 l 254 285 q 246 440 274 393 q 135 486 218 486 l 142 522 q 258 565 219 522 q 315 710 297 607 l 322 750 q 318 890 339 842 q 242 938 297 938 q 97 872 175 938 l 75 897 q 174 962 118 939 q 289 985 229 985 q 380 968 340 985 q 444 920 419 951 q 479 846 469 889 q 479 750 489 803 l 474 717 q 272 513 442 532 l 249 510 l 247 499 l 269 496 q 410 272 443 475 l 407 258 q 302 60 385 132 q 97 -12 219 -12 z "},"4":{"ha":635,"x_min":-15,"x_max":569,"o":"m -15 175 l -4 236 l 494 971 l 569 971 l 451 300 l 529 300 l 507 175 l 429 175 l 399 0 l 249 0 l 279 175 l -15 175 m 381 732 l 369 732 l 344 690 l 86 303 l 86 300 l 301 300 l 369 690 l 381 732 z "},"5":{"ha":576,"x_min":-33,"x_max":569,"o":"m 3 146 q 48 62 10 94 q 138 29 86 29 q 239 72 196 29 q 294 188 282 115 l 315 307 q 301 447 331 393 q 208 500 271 500 q 149 486 178 500 q 100 447 119 472 l 67 447 l 160 971 l 569 971 l 521 832 l 171 832 l 113 497 l 117 497 q 261 553 172 553 q 358 533 315 553 q 430 481 401 514 q 470 401 458 447 q 472 301 482 356 l 458 224 q 422 131 450 174 q 355 56 394 88 q 266 6 315 24 q 164 -12 217 -12 q 31 27 85 -12 q -33 131 -24 67 l 3 146 z "},"6":{"ha":651,"x_min":21,"x_max":608,"o":"m 31 253 l 113 717 q 151 826 124 776 q 218 910 178 875 q 309 965 258 946 q 417 985 360 985 q 534 960 483 985 q 608 896 585 936 l 576 874 q 518 925 556 906 q 438 944 481 944 q 338 908 379 944 q 286 807 297 871 l 240 550 q 315 597 271 579 q 406 614 358 614 q 538 556 494 614 q 564 399 582 497 l 538 253 q 500 146 528 194 q 433 62 472 97 q 343 6 393 26 q 238 -14 293 -14 q 139 6 182 -14 q 69 62 96 26 q 31 146 42 97 q 31 253 21 194 m 235 514 l 171 156 q 181 60 160 97 q 243 22 201 22 q 319 60 286 22 q 364 156 353 97 l 413 436 q 405 532 424 497 q 343 567 386 567 q 287 552 315 567 q 235 514 258 538 z "},"7":{"ha":526,"x_min":47,"x_max":593,"o":"m 54 36 q 99 217 74 144 q 153 342 124 289 q 218 440 183 396 q 293 537 253 485 q 379 658 333 589 q 476 832 425 728 l 78 832 l 101 971 l 593 971 l 538 871 q 420 640 469 744 q 335 438 371 535 q 274 244 299 340 q 229 36 249 147 l 222 0 l 47 0 l 54 36 z "},"8":{"ha":711,"x_min":15,"x_max":685,"o":"m 271 490 l 299 493 l 300 504 l 274 507 q 206 528 236 511 q 154 573 175 546 q 125 635 133 600 q 124 708 117 669 l 133 768 q 171 851 142 811 q 243 920 200 890 q 340 967 286 950 q 450 985 394 985 q 549 967 504 985 q 625 921 594 950 q 670 852 656 892 q 676 768 685 813 l 665 708 q 637 636 658 671 q 585 574 615 601 q 516 529 554 547 q 438 507 478 511 l 411 503 l 408 493 l 435 490 q 510 467 476 486 q 566 419 543 449 q 599 353 589 390 q 601 275 608 315 l 592 217 q 554 128 583 169 q 481 55 525 86 q 383 6 438 24 q 271 -12 329 -12 q 165 6 214 -12 q 81 56 115 25 q 31 129 47 88 q 24 217 15 171 l 33 275 q 63 353 40 317 q 117 419 85 390 q 188 467 149 449 q 271 490 228 486 m 368 517 q 449 549 421 517 q 492 660 478 581 l 518 808 q 513 916 531 883 q 444 949 496 949 q 306 808 331 949 l 279 660 q 288 551 267 585 q 368 517 310 517 m 279 24 q 363 55 335 24 q 406 164 392 86 l 436 338 q 431 447 449 413 q 361 481 413 481 q 221 338 246 481 l 190 164 q 199 57 178 90 q 279 24 221 24 z "},"9":{"ha":651,"x_min":19,"x_max":631,"o":"m 619 719 l 538 254 q 500 146 528 194 q 432 62 472 97 q 341 7 392 26 q 233 -12 290 -12 q 92 26 150 -12 q 19 132 35 65 l 56 149 q 113 61 68 94 q 215 28 157 28 q 313 61 274 28 q 361 153 351 94 l 410 422 q 335 376 379 393 q 243 358 292 358 q 113 417 156 358 q 86 574 69 475 l 113 719 q 149 827 122 778 q 217 912 176 876 q 307 967 257 947 q 413 986 357 986 q 511 967 468 986 q 582 912 554 947 q 620 827 610 876 q 619 719 631 778 m 415 457 l 479 817 q 469 913 490 875 q 407 950 449 950 q 331 913 364 950 q 286 817 297 875 l 238 542 q 244 442 226 478 q 304 406 263 406 q 362 419 332 406 q 415 457 392 433 z "},"\u0000":{"ha":0,"x_min":0,"x_max":0,"o":""},"\r":{"ha":347,"x_min":0,"x_max":0,"o":""}," ":{"ha":268,"x_min":0,"x_max":0,"o":""},"H":{"ha":646,"x_min":-21,"x_max":665,"o":"m 314 971 l 231 503 l 421 503 l 504 971 l 665 971 l 494 0 l 332 0 l 414 467 l 225 467 l 142 0 l -21 0 l 151 971 l 314 971 z "},"I":{"ha":294,"x_min":-21,"x_max":314,"o":"m 314 971 l 142 0 l -21 0 l 151 971 l 314 971 z "},"J":{"ha":425,"x_min":-87,"x_max":444,"o":"m -87 50 l -65 74 q 36 28 -17 28 q 99 59 74 28 q 136 149 125 90 l 282 971 l 444 971 l 314 236 q 281 136 304 182 q 223 57 257 90 q 147 5 189 24 q 60 -14 106 -14 q -87 50 -26 -14 z "},"K":{"ha":608,"x_min":-21,"x_max":636,"o":"m 142 0 l -21 0 l 150 971 l 314 971 l 142 0 m 274 496 l 279 525 l 594 971 l 636 971 l 400 636 l 532 0 l 364 0 l 274 496 z "},"L":{"ha":415,"x_min":-21,"x_max":346,"o":"m 314 971 l 149 36 l 346 36 l 339 0 l -21 0 l 151 971 l 314 971 z "},"M":{"ha":746,"x_min":-28,"x_max":767,"o":"m 594 0 l 432 0 l 567 758 l 579 814 l 569 814 l 553 758 l 279 0 l 208 0 l 158 758 l 158 814 l 149 814 l 142 758 l 8 0 l -28 0 l 143 972 l 315 972 l 351 381 l 353 325 l 363 325 l 378 381 l 592 972 l 767 972 l 594 0 z "},"N":{"ha":557,"x_min":-29,"x_max":585,"o":"m 425 411 l 433 356 l 442 356 l 449 411 l 547 971 l 585 971 l 413 0 l 343 0 l 172 792 l 164 847 l 154 847 l 149 792 l 8 0 l -29 0 l 143 971 l 308 971 l 425 411 z "},"Q":{"ha":638,"x_min":0,"x_max":628,"o":"m 186 -8 l 186 -6 l 169 -6 q 40 88 79 13 q 21 278 0 164 l 96 706 q 135 820 107 768 q 203 908 163 872 q 295 965 243 944 q 406 985 347 985 q 508 965 464 985 q 581 908 553 944 q 618 820 608 872 q 617 706 628 768 l 542 278 q 502 158 529 211 q 434 66 475 104 q 342 8 393 28 q 231 -12 290 -12 q 172 -26 206 -12 q 110 -64 138 -40 q 164 -50 132 -50 q 220 -60 189 -50 q 288 -89 251 -69 l 297 -94 q 340 -114 322 -108 q 372 -119 357 -119 q 465 -57 421 -119 l 479 -68 q 396 -150 443 -121 q 297 -179 349 -179 q 251 -174 275 -179 q 204 -158 228 -168 l 197 -156 q 110 -135 150 -135 q 15 -169 54 -135 l 0 -160 q 83 -66 43 -101 q 168 -12 124 -31 l 186 -8 m 167 185 q 235 24 138 24 q 316 66 283 24 q 364 190 349 108 l 469 789 q 465 908 483 867 q 400 949 447 949 q 319 907 353 949 q 272 789 286 865 l 167 185 z "},"S":{"ha":521,"x_min":-19,"x_max":543,"o":"m 272 164 q 246 296 272 215 l 133 642 q 122 688 125 665 q 118 733 118 710 q 137 832 118 786 q 188 912 156 878 q 265 965 221 946 q 361 985 310 985 q 466 961 418 985 q 543 897 514 938 l 513 872 q 457 920 492 901 q 389 939 422 939 q 313 899 342 939 q 283 797 283 860 q 287 752 283 775 q 299 703 290 729 l 428 290 q 440 213 440 251 q 419 124 440 165 q 363 51 399 82 q 277 3 326 21 q 171 -14 228 -14 q 69 2 118 -14 q -19 49 21 18 l 6 79 q 81 42 40 56 q 156 29 121 29 q 241 65 210 29 q 272 164 272 100 z "},"T":{"ha":496,"x_min":69,"x_max":592,"o":"m 585 935 l 408 935 l 243 0 l 81 0 l 246 935 l 69 935 l 75 971 l 592 971 l 585 935 z "},"U":{"ha":585,"x_min":17,"x_max":613,"o":"m 314 971 l 175 190 q 185 73 161 115 q 264 31 208 31 q 380 88 331 31 q 446 240 429 144 l 575 971 l 613 971 l 483 242 q 394 53 461 119 q 224 -14 326 -14 q 126 7 168 -14 q 58 66 83 28 q 24 158 32 104 q 28 276 17 211 l 151 971 l 314 971 z "},"X":{"ha":500,"x_min":-96,"x_max":568,"o":"m 308 667 l 314 613 l 324 613 l 351 667 l 526 971 l 568 971 l 328 556 l 424 0 l 254 0 l 192 356 l 186 408 l 176 408 l 150 356 l -56 0 l -96 0 l 172 467 l 85 971 l 257 971 l 308 667 z "},"Y":{"ha":486,"x_min":74,"x_max":581,"o":"m 314 578 l 321 522 l 331 522 l 353 578 l 540 969 l 581 969 l 333 456 l 254 0 l 92 0 l 169 440 l 74 969 l 244 969 l 314 578 z "},"Z":{"ha":585,"x_min":-54,"x_max":617,"o":"m 161 935 l 168 971 l 617 971 l 611 935 l 124 36 l 472 36 l 465 0 l -54 0 l -47 36 l 440 935 l 161 935 z "},"i":{"ha":283,"x_min":-21,"x_max":304,"o":"m 121 860 q 157 922 128 897 q 224 946 186 946 q 283 922 263 946 q 297 860 304 897 q 261 798 290 824 q 193 772 232 772 q 135 798 156 772 q 121 860 114 824 m 253 688 l 132 0 l -21 0 l 100 688 l 253 688 z "},"j":{"ha":325,"x_min":-86,"x_max":347,"o":"m 165 860 q 201 922 172 897 q 267 946 231 946 q 326 922 304 946 q 340 860 347 897 q 303 798 333 824 q 236 772 274 772 q 179 797 200 772 q 165 860 158 822 m 186 51 q 160 -33 178 6 q 111 -108 142 -72 q 35 -176 81 -143 q -74 -243 -11 -208 l -86 -221 q -52 -194 -68 -207 q -23 -162 -36 -181 q 0 -121 -10 -144 q 15 -64 10 -97 l 147 688 l 297 688 l 186 51 z "},"k":{"ha":551,"x_min":-31,"x_max":510,"o":"m 121 0 l -31 0 l 140 971 l 292 971 l 121 0 m 338 504 l 471 0 l 313 0 l 224 410 l 226 432 l 468 688 l 510 688 l 338 504 z "},"l":{"ha":251,"x_min":-32,"x_max":292,"o":"m 142 971 l 292 971 l 119 0 l -32 0 l 142 971 z "},"m":{"ha":792,"x_min":-33,"x_max":769,"o":"m 483 581 q 546 667 506 633 q 639 700 586 700 q 735 658 700 700 q 758 556 769 617 l 661 0 l 508 0 l 611 578 q 590 656 625 656 q 557 644 575 656 q 523 613 539 632 q 494 571 507 594 q 478 522 482 547 l 386 0 l 233 0 l 339 600 q 337 640 343 624 q 315 656 331 656 q 285 641 303 656 q 252 604 268 626 q 224 555 236 582 q 207 503 211 528 l 118 0 l -33 0 l 88 688 l 240 688 l 229 632 l 215 592 l 225 590 q 286 671 253 642 q 365 700 319 700 q 448 667 417 700 q 474 581 479 633 l 483 581 z "},"p":{"ha":536,"x_min":-72,"x_max":500,"o":"m 224 613 l 232 610 q 288 679 258 658 q 356 700 318 700 q 419 685 390 700 q 466 642 447 669 q 492 581 485 615 q 493 506 500 546 l 439 194 q 409 115 431 153 q 358 48 388 76 q 292 3 328 19 q 219 -14 256 -14 q 136 64 149 -14 l 126 61 l 125 21 l 81 -233 l -72 -233 l 90 688 l 243 688 l 238 653 l 224 613 m 147 142 q 146 99 143 119 q 156 61 149 78 q 175 35 163 44 q 201 25 188 25 q 240 46 222 25 q 264 99 258 67 l 347 574 q 342 627 353 606 q 310 649 331 649 q 281 639 296 649 q 253 613 267 629 q 231 577 240 597 q 217 536 221 557 l 147 142 z "},"q":{"ha":532,"x_min":-15,"x_max":515,"o":"m 363 688 l 515 688 l 353 -233 l 200 -233 l 244 21 l 258 61 l 250 64 q 201 5 228 24 q 139 -14 175 -14 q 72 3 101 -14 q 22 48 42 19 q -7 115 1 76 q -7 194 -15 153 l 47 506 q 74 581 54 546 q 123 642 94 615 q 185 685 151 669 q 254 700 219 700 q 315 679 293 700 q 347 610 338 658 l 356 613 l 357 653 l 363 688 m 336 536 q 338 577 340 557 q 327 613 335 597 q 308 639 319 629 q 282 649 296 649 q 241 627 260 649 q 217 574 222 606 l 133 99 q 138 46 128 67 q 171 25 149 25 q 200 35 185 25 q 228 61 215 44 q 251 99 242 78 q 265 142 261 119 l 336 536 z "},"r":{"ha":372,"x_min":-35,"x_max":399,"o":"m 236 689 l 219 590 l 206 550 l 215 547 q 291 658 240 615 q 399 701 342 701 l 376 572 q 283 564 333 581 q 206 515 233 547 l 115 0 l -35 0 l 86 689 l 236 689 z "},"s":{"ha":411,"x_min":-47,"x_max":403,"o":"m 375 619 q 286 661 336 661 q 224 636 249 661 q 200 571 200 611 q 214 510 200 542 l 326 232 q 339 169 339 199 q 320 100 339 133 q 269 42 301 67 q 196 1 238 17 q 110 -14 154 -14 q 21 5 61 -14 q -47 58 -19 24 l -21 83 q 37 40 7 56 q 94 25 67 25 q 150 49 129 25 q 171 113 171 72 q 146 214 171 156 l 56 435 q 38 514 38 475 q 56 585 38 551 q 103 645 74 619 q 174 686 133 671 q 258 701 214 701 q 403 643 349 701 l 375 619 z "},"t":{"ha":326,"x_min":-1,"x_max":389,"o":"m 107 -12 q 24 30 49 -12 q 13 147 -1 72 l 101 654 l 32 654 l 38 688 l 108 688 l 136 846 l 296 896 l 260 688 l 389 688 l 383 654 l 254 654 l 160 119 q 159 68 154 92 q 185 44 164 44 q 257 83 211 44 l 275 60 q 192 8 239 28 q 107 -12 146 -12 z "},"v":{"ha":464,"x_min":53,"x_max":482,"o":"m 175 0 l 129 0 l 53 688 l 213 688 l 253 307 l 253 267 l 263 267 l 276 306 l 444 688 l 482 688 l 175 0 z "},"x":{"ha":518,"x_min":-68,"x_max":469,"o":"m 215 688 l 271 492 l 278 454 l 288 454 l 307 492 l 431 688 l 469 688 l 294 410 l 414 0 l 254 0 l 176 271 l 169 308 l 160 308 l 140 271 l -29 0 l -68 0 l 153 353 l 57 688 l 215 688 z "},"z":{"ha":499,"x_min":-44,"x_max":504,"o":"m -44 0 l -39 33 l 324 654 l 121 654 l 126 688 l 504 688 l 497 654 l 135 33 l 388 33 l 382 0 l -44 0 z "},"$":{"ha":521,"x_min":-19,"x_max":543,"o":"m 90 -4 q 33 17 61 4 q -19 49 6 29 l 6 79 q 53 53 28 64 q 104 36 79 43 l 219 378 l 133 642 q 122 688 125 665 q 118 733 118 710 q 137 832 118 786 q 188 912 156 878 q 265 965 221 946 q 361 985 310 985 q 421 976 392 985 l 454 1076 l 488 1076 l 450 968 q 543 897 510 944 l 513 872 q 438 929 485 911 l 329 606 l 428 290 q 440 213 440 251 q 419 124 440 165 q 363 51 399 82 q 277 3 326 21 q 171 -14 228 -14 q 122 -10 146 -14 l 85 -119 l 51 -119 l 90 -4 m 407 938 q 389 939 401 939 q 313 899 342 939 q 283 797 283 860 q 287 752 283 775 q 299 703 290 729 l 313 657 l 407 938 m 272 164 q 246 296 272 215 l 235 328 l 135 31 q 156 29 142 29 q 241 65 210 29 q 272 164 272 100 z "},"D":{"ha":606,"x_min":-21,"x_max":597,"o":"m 154 971 l 406 971 q 494 951 456 971 q 557 896 533 932 q 589 810 581 860 q 586 700 597 761 l 507 268 q 472 162 497 211 q 410 76 446 113 q 330 20 374 40 q 238 0 286 0 l -21 0 l 154 971 m 144 36 l 219 36 q 336 196 308 36 l 442 778 q 437 894 456 853 q 369 935 418 935 l 306 935 l 144 36 z "},"…":{"ha":803,"x_min":-42,"x_max":701,"o":"m -35 79 q 1 141 -28 117 q 67 165 29 165 q 124 140 104 165 q 138 79 144 115 q 101 17 131 42 q 36 -8 72 -8 q -22 17 -1 -8 q -35 79 -42 42 m 243 79 q 278 141 250 117 q 344 165 307 165 q 403 140 382 165 q 417 79 424 115 q 380 17 410 42 q 314 -8 350 -8 q 256 17 276 -8 q 243 79 236 42 m 521 79 q 556 141 528 117 q 622 165 585 165 q 681 140 660 165 q 694 79 701 115 q 658 17 688 42 q 592 -8 629 -8 q 535 17 556 -8 q 521 79 514 42 z "},"!":{"ha":458,"x_min":65,"x_max":410,"o":"m 196 193 l 160 193 l 221 971 l 410 971 l 196 193 m 72 74 q 108 135 79 111 q 174 160 136 160 q 232 135 211 160 q 246 74 253 111 q 210 12 239 38 q 143 -14 181 -14 q 85 11 106 -14 q 72 74 65 36 z "},".":{"ha":250,"x_min":-42,"x_max":146,"o":"m -35 74 q 1 135 -28 111 q 67 160 31 160 q 125 135 104 160 q 139 74 146 111 q 103 12 132 38 q 36 -14 74 -14 q -21 12 0 -14 q -35 74 -42 38 z "},",":{"ha":258,"x_min":-39,"x_max":143,"o":"m 76 -4 q 31 -14 51 -14 q -19 5 0 -14 q -37 56 -37 24 q -6 128 -37 97 q 67 160 25 160 q 123 135 103 160 q 143 64 143 110 q 129 -10 143 25 q 92 -74 115 -46 q 35 -119 68 -101 q -36 -142 1 -137 l -39 -115 q 45 -73 14 -103 q 76 -4 76 -43 z "},":":{"ha":249,"x_min":-42,"x_max":221,"o":"m 40 504 q 76 568 47 543 q 142 593 104 593 q 200 569 179 593 q 214 508 221 544 q 178 444 208 469 q 111 419 147 419 q 54 444 74 419 q 40 504 35 468 m -35 79 q 1 142 -28 117 q 67 167 29 167 q 125 142 104 167 q 139 81 146 117 q 102 18 132 43 q 35 -7 72 -7 q -22 18 -1 -7 q -35 79 -42 43 z "},";":{"ha":258,"x_min":-39,"x_max":226,"o":"m 46 506 q 82 567 53 543 q 147 592 111 592 q 206 567 185 592 q 219 506 226 542 q 183 443 213 468 q 117 418 154 418 q 60 443 81 418 q 46 506 39 468 m 76 -4 q 31 -14 53 -14 q -19 5 0 -14 q -37 56 -37 24 q -6 128 -37 97 q 68 160 25 160 q 124 135 104 160 q 143 64 143 110 q 129 -10 143 25 q 92 -74 115 -46 q 35 -119 68 -101 q -36 -142 1 -137 l -39 -115 q 45 -73 14 -103 q 76 -4 76 -43 z "},"”":{"ha":497,"x_min":107,"x_max":528,"o":"m 222 819 q 176 810 197 810 q 127 828 146 810 q 108 879 108 847 q 140 952 108 921 q 213 983 171 983 q 269 958 249 983 q 289 888 289 933 q 275 813 289 849 q 238 750 261 778 q 181 704 214 722 q 110 682 147 686 l 107 708 q 191 751 160 721 q 222 819 222 781 m 461 819 q 415 810 436 810 q 366 828 385 810 q 347 879 347 847 q 378 952 347 921 q 451 983 410 983 q 508 958 488 983 q 528 888 528 933 q 514 813 528 849 q 476 750 500 778 q 419 704 453 722 q 349 682 386 686 l 346 708 q 430 751 399 721 q 461 819 461 781 z "},"“":{"ha":500,"x_min":89,"x_max":513,"o":"m 156 833 q 200 843 179 843 q 251 824 232 843 q 269 774 269 806 q 238 701 269 732 q 164 669 207 669 q 108 694 128 669 q 89 765 89 719 q 103 839 89 804 q 140 901 117 874 q 197 948 164 929 q 268 971 231 967 l 271 944 q 185 901 217 931 q 156 833 154 871 m 397 833 q 442 843 421 843 q 492 824 474 843 q 511 774 511 806 q 480 701 511 732 q 406 669 449 669 q 350 694 369 669 q 331 765 331 719 q 344 839 331 804 q 382 901 358 874 q 439 948 406 929 q 510 971 472 967 l 513 944 q 427 901 458 931 q 397 833 396 871 z "},"’":{"ha":258,"x_min":107,"x_max":289,"o":"m 222 821 q 176 811 199 811 q 127 830 146 811 q 108 881 108 849 q 117 919 108 901 q 140 952 125 938 q 173 975 154 967 q 213 983 192 983 q 269 958 249 983 q 289 888 289 933 q 275 814 289 849 q 238 751 261 779 q 181 706 214 724 q 110 682 147 688 l 107 710 q 191 752 160 722 q 222 821 222 782 z "},"‘":{"ha":258,"x_min":89,"x_max":271,"o":"m 156 833 q 200 843 179 843 q 251 824 232 843 q 269 774 269 806 q 238 701 269 732 q 164 669 207 669 q 108 694 128 669 q 89 765 89 719 q 103 839 89 804 q 140 901 117 874 q 197 948 164 929 q 268 971 231 967 l 271 944 q 185 901 217 931 q 156 833 154 871 z "},"?":{"ha":576,"x_min":32,"x_max":556,"o":"m 149 900 q 244 963 188 940 q 364 985 301 985 q 506 938 456 985 q 556 808 556 892 q 519 672 556 738 q 428 551 483 607 q 310 446 374 494 q 193 360 247 397 l 163 193 l 128 193 l 176 472 q 265 548 224 510 q 336 629 306 586 q 384 722 367 672 q 401 831 401 771 q 318 940 401 940 q 242 923 282 940 q 171 876 203 906 l 149 900 m 39 74 q 74 135 46 111 q 140 160 103 160 q 197 135 176 160 q 211 74 218 111 q 175 12 204 38 q 110 -14 146 -14 q 53 11 74 -14 q 39 74 32 36 z "},"|":{"ha":113,"x_min":-69,"x_max":172,"o":"m 136 1042 l 172 1042 l -33 -124 l -69 -124 l 136 1042 z "},"/":{"ha":371,"x_min":-71,"x_max":431,"o":"m 392 1042 l 431 1042 l -32 -124 l -71 -124 l 392 1042 z "},"\\":{"ha":369,"x_min":135,"x_max":224,"o":"m 185 -124 l 135 1042 l 172 1042 l 224 -124 l 185 -124 z "},"⁄":{"ha":371,"x_min":-71,"x_max":431,"o":"m 392 1042 l 431 1042 l -32 -124 l -71 -124 l 392 1042 z "},"<":{"ha":465,"x_min":25,"x_max":447,"o":"m 386 261 l 25 417 l 32 453 l 447 607 l 440 565 l 99 436 l 99 433 l 394 301 l 386 261 z "},">":{"ha":464,"x_min":-3,"x_max":419,"o":"m 58 608 l 419 453 l 413 417 l -3 263 l 4 304 l 346 433 l 346 436 l 50 568 l 58 608 z "},"%":{"ha":1000,"x_min":67,"x_max":932,"o":"m 74 694 l 86 765 q 119 848 94 810 q 178 915 143 886 q 258 961 214 944 q 349 978 301 978 q 432 961 394 978 q 494 916 469 944 q 530 849 519 888 q 532 765 540 810 l 519 694 q 488 613 511 651 q 429 545 464 574 q 351 500 394 517 q 263 483 308 483 q 179 500 217 483 q 115 546 142 517 q 78 613 89 575 q 74 694 67 651 m 213 0 l 740 969 l 783 969 l 256 0 l 213 0 m 260 860 l 214 600 q 222 540 207 564 q 267 517 238 517 q 317 540 296 517 q 346 600 339 563 l 392 860 q 384 920 399 896 q 342 944 369 944 q 290 920 313 944 q 260 860 267 896 m 465 204 l 478 276 q 510 358 486 319 q 569 426 535 397 q 647 472 604 456 q 736 489 690 489 q 819 472 782 489 q 883 425 857 454 q 920 358 908 396 q 924 276 932 319 l 911 204 q 879 123 903 161 q 821 56 856 85 q 743 10 786 26 q 654 -7 700 -7 q 571 10 608 -7 q 507 56 533 26 q 469 123 481 85 q 465 204 458 161 m 651 369 l 606 111 q 614 51 599 75 q 658 28 629 28 q 709 51 688 28 q 738 111 731 74 l 783 369 q 776 430 790 406 q 733 454 761 454 q 681 430 704 454 q 651 369 658 406 z "},"‰":{"ha":1507,"x_min":67,"x_max":1439,"o":"m 74 694 l 86 765 q 119 848 94 810 q 178 915 143 886 q 256 961 213 944 q 344 978 299 978 q 428 960 390 978 q 492 914 467 943 q 529 847 518 885 q 532 765 540 808 l 519 694 q 488 613 513 651 q 429 545 464 574 q 351 500 394 517 q 263 483 308 483 q 179 500 217 483 q 115 546 142 517 q 78 613 89 575 q 74 694 67 651 m 214 0 l 742 969 l 781 969 l 254 0 l 214 0 m 260 860 l 214 600 q 222 540 207 564 q 267 517 238 517 q 317 540 296 517 q 346 600 339 563 l 392 860 q 384 920 399 896 q 342 944 369 944 q 290 920 313 944 q 260 860 267 896 m 472 204 l 485 276 q 516 358 492 319 q 576 425 540 396 q 654 471 611 454 q 742 488 697 488 q 825 471 788 488 q 888 425 863 454 q 926 358 914 396 q 929 276 938 319 l 917 204 q 885 122 908 161 q 826 55 861 83 q 749 10 792 26 q 661 -7 707 -7 q 577 10 615 -7 q 513 56 539 26 q 476 123 488 85 q 472 204 465 161 m 972 204 l 985 276 q 1017 358 993 319 q 1076 425 1042 396 q 1154 471 1111 454 q 1243 488 1197 488 q 1326 471 1289 488 q 1390 425 1364 454 q 1427 358 1415 396 q 1431 276 1439 319 l 1418 204 q 1386 122 1410 161 q 1328 55 1363 83 q 1250 10 1293 26 q 1161 -7 1207 -7 q 1078 10 1115 -7 q 1014 56 1040 26 q 976 123 988 85 q 972 204 965 161 m 658 369 l 613 111 q 621 51 606 75 q 665 26 636 26 q 715 49 693 26 q 743 111 736 72 l 789 369 q 781 429 796 404 q 739 454 765 454 q 688 429 711 454 q 658 369 665 404 m 1158 369 l 1113 111 q 1121 51 1106 75 q 1165 26 1136 26 q 1216 49 1194 26 q 1244 111 1238 72 l 1290 369 q 1282 429 1297 404 q 1240 454 1267 454 q 1189 429 1213 454 q 1158 369 1165 404 z "},"^":{"ha":415,"x_min":43,"x_max":382,"o":"m 363 515 l 289 925 l 283 925 l 64 515 l 43 515 l 288 971 l 301 971 l 382 515 l 363 515 z "},"*":{"ha":351,"x_min":92,"x_max":383,"o":"m 107 879 l 158 938 l 232 846 l 226 971 l 299 971 l 247 846 l 353 939 l 383 879 l 254 832 l 367 783 l 317 724 l 242 817 l 249 690 l 176 690 l 226 817 l 121 724 l 92 783 l 221 832 l 107 879 z "},"#":{"ha":472,"x_min":-3,"x_max":465,"o":"m 21 371 l 96 371 l 167 633 l 88 633 l 97 664 l 174 664 l 256 971 l 288 971 l 207 664 l 351 664 l 433 971 l 465 971 l 385 664 l 464 664 l 456 633 l 376 633 l 306 371 l 389 371 l 381 340 l 299 340 l 208 0 l 175 0 l 267 340 l 121 340 l 31 0 l -3 0 l 89 340 l 13 340 l 21 371 m 274 371 l 343 633 l 199 633 l 128 371 l 274 371 z "},"[":{"ha":310,"x_min":-61,"x_max":372,"o":"m -61 -71 l 139 1063 l 372 1063 l 365 1025 l 294 1025 l 108 -33 l 179 -33 l 172 -71 l -61 -71 z "},"]":{"ha":310,"x_min":-61,"x_max":372,"o":"m 372 1062 l 172 -71 l -61 -71 l -54 -33 l 17 -33 l 203 1025 l 132 1025 l 139 1062 l 372 1062 z "},"(":{"ha":375,"x_min":10,"x_max":426,"o":"m 413 1063 l 426 1063 q 274 799 335 942 q 185 497 214 657 q 166 194 157 336 q 224 -71 175 51 l 208 -71 q 109 37 150 -25 q 44 172 68 99 q 15 326 19 244 q 25 492 10 407 q 75 658 40 576 q 160 814 110 740 q 274 951 210 888 q 413 1063 338 1014 z "},")":{"ha":375,"x_min":-50,"x_max":364,"o":"m -36 -71 l -50 -71 q 102 192 42 50 q 192 494 163 335 q 210 798 219 656 q 153 1062 201 940 l 168 1062 q 267 955 226 1017 q 333 820 308 893 q 362 666 357 747 q 351 500 367 585 q 301 333 336 415 q 217 178 267 251 q 103 41 167 104 q -36 -71 39 -22 z "},"{":{"ha":460,"x_min":35,"x_max":522,"o":"m 64 514 q 137 537 117 514 q 164 596 157 560 l 213 869 q 238 959 222 922 q 276 1019 253 996 q 333 1052 300 1042 q 408 1063 365 1063 l 522 1063 l 515 1026 l 511 1026 q 385 922 403 1026 l 343 679 q 88 497 310 497 l 88 494 q 278 313 310 494 l 235 69 q 324 -35 217 -35 l 329 -35 l 322 -71 l 208 -71 q 91 -27 121 -71 q 81 122 61 17 l 129 396 q 131 428 132 414 q 123 454 131 443 q 100 472 115 465 q 58 478 85 478 l 35 478 l 42 514 l 64 514 z "},"}":{"ha":460,"x_min":-61,"x_max":426,"o":"m 397 478 q 324 455 344 478 q 297 396 304 432 l 249 122 q 224 33 239 70 q 185 -27 208 -4 q 128 -60 161 -50 q 53 -71 96 -71 l -61 -71 l -54 -35 l -50 -35 q 76 70 58 -35 l 118 313 q 374 494 151 494 l 374 497 q 183 679 151 497 l 226 922 q 138 1026 244 1026 l 132 1026 l 139 1062 l 253 1062 q 370 1019 340 1062 q 381 869 400 975 l 332 596 q 330 563 329 578 q 338 538 331 549 q 361 520 346 526 q 403 514 376 514 l 426 514 l 419 478 l 397 478 z "},"&":{"ha":604,"x_min":-28,"x_max":639,"o":"m -8 231 l -6 244 q 70 408 13 344 q 211 485 128 472 l 247 490 l 249 499 l 215 503 q 115 563 144 511 q 101 706 86 615 l 106 732 q 142 828 115 783 q 207 907 168 874 q 295 960 246 940 q 399 979 344 979 q 508 941 468 979 q 572 815 549 903 l 424 793 q 376 943 444 943 q 319 910 344 943 q 283 824 294 878 l 257 672 q 247 597 249 628 q 251 548 244 567 q 273 521 257 529 q 318 513 289 513 l 411 513 l 435 646 l 585 646 l 561 513 l 639 513 l 633 476 l 554 476 l 483 74 q 360 14 433 36 q 215 -8 288 -8 q 33 56 93 -8 q -8 231 -28 119 m 153 158 q 226 28 132 28 q 299 47 267 28 q 338 94 332 67 l 404 476 l 313 476 q 262 468 283 476 q 224 438 240 460 q 197 381 208 417 q 176 290 186 344 l 153 158 z "},"˜":{"ha":354,"x_min":99,"x_max":390,"o":"m 115 822 l 99 833 q 217 919 156 919 q 256 910 236 919 l 290 893 q 324 883 308 883 q 374 919 351 883 l 390 910 q 275 821 335 821 q 231 832 256 821 l 206 844 q 169 856 183 856 q 115 822 140 856 z "},"+":{"ha":517,"x_min":26,"x_max":472,"o":"m 26 415 l 32 451 l 233 451 l 271 664 l 308 664 l 271 451 l 472 451 l 467 415 l 264 415 l 226 203 l 189 203 l 226 415 l 26 415 z "},"-":{"ha":394,"x_min":25,"x_max":349,"o":"m 349 451 l 343 415 l 25 415 l 32 451 l 349 451 z "},"–":{"ha":639,"x_min":26,"x_max":594,"o":"m 594 451 l 589 415 l 26 415 l 32 451 l 594 451 z "},"—":{"ha":900,"x_min":26,"x_max":856,"o":"m 856 451 l 849 415 l 26 415 l 32 451 l 856 451 z "},"_":{"ha":486,"x_min":-49,"x_max":369,"o":"m 369 36 l 363 0 l -49 0 l -42 36 l 369 36 z "},"=":{"ha":514,"x_min":8,"x_max":483,"o":"m 483 538 l 478 501 l 40 501 l 46 538 l 483 538 m 453 361 l 446 325 l 8 325 l 15 361 l 453 361 z "},"•":{"ha":382,"x_min":26,"x_max":336,"o":"m 156 278 q 62 315 97 278 q 26 407 26 353 q 41 475 26 443 q 81 531 56 507 q 138 569 106 554 q 206 583 171 583 q 300 547 264 583 q 336 456 336 510 q 321 389 336 421 q 281 332 306 357 q 223 292 256 307 q 156 278 190 278 z "},"¡":{"ha":379,"x_min":-50,"x_max":290,"o":"m 110 614 q 146 676 117 651 q 211 701 175 701 q 269 676 249 701 q 283 614 290 650 q 247 552 276 576 q 181 528 218 528 q 123 552 143 528 q 110 614 103 576 m 190 496 l 139 -237 l -50 -237 l 157 496 l 190 496 z "},"†":{"ha":539,"x_min":78,"x_max":547,"o":"m 340 747 l 547 747 l 542 711 l 333 711 l 158 -229 l 129 -229 l 286 711 l 78 711 l 85 747 l 292 747 l 329 971 l 382 971 l 340 747 z "},"‡":{"ha":539,"x_min":-49,"x_max":547,"o":"m 338 747 l 547 747 l 540 711 l 331 711 l 264 369 l 211 32 l 421 32 l 414 -4 l 206 -4 l 169 -229 l 117 -229 l 161 -4 l -49 -4 l -42 32 l 168 32 l 235 369 l 288 711 l 78 711 l 85 747 l 294 747 l 329 971 l 381 971 l 338 747 z "},"ˆ":{"ha":358,"x_min":92,"x_max":375,"o":"m 253 947 l 271 947 l 375 790 l 344 790 l 244 858 l 124 790 l 92 790 l 253 947 z "},"°":{"ha":326,"x_min":69,"x_max":339,"o":"m 182 597 q 100 634 131 597 q 79 722 69 671 q 98 770 83 747 q 132 810 113 793 q 176 838 151 828 q 226 847 201 847 q 308 810 278 847 q 329 722 339 774 q 277 634 319 671 q 182 597 235 597 m 221 817 q 149 789 181 817 q 110 722 117 761 q 125 655 103 682 q 188 628 147 628 q 260 655 228 628 q 299 722 292 682 q 283 789 306 761 q 221 817 261 817 z "},"'":{"ha":196,"x_min":121,"x_max":242,"o":"m 124 971 l 242 971 l 149 694 l 121 694 l 124 971 z "},"\"":{"ha":367,"x_min":121,"x_max":413,"o":"m 124 971 l 242 971 l 149 694 l 121 694 l 124 971 m 294 971 l 413 971 l 319 694 l 292 694 l 294 971 z "},"‚":{"ha":258,"x_min":-39,"x_max":143,"o":"m 76 -4 q 31 -14 51 -14 q -19 5 0 -14 q -37 56 -37 24 q -6 128 -37 97 q 67 160 25 160 q 123 135 103 160 q 143 64 143 110 q 129 -10 143 25 q 92 -74 115 -46 q 35 -119 68 -101 q -36 -142 1 -137 l -39 -115 q 45 -73 14 -103 q 76 -4 76 -43 z "},"„":{"ha":494,"x_min":-39,"x_max":379,"o":"m 76 -4 q 31 -14 51 -14 q -19 5 0 -14 q -37 56 -37 24 q -6 128 -37 97 q 67 160 25 160 q 123 135 103 160 q 143 64 143 110 q 129 -10 143 25 q 92 -74 115 -46 q 35 -119 68 -101 q -36 -142 1 -137 l -39 -115 q 45 -73 14 -103 q 76 -4 76 -43 m 313 -4 q 267 -14 288 -14 q 217 5 236 -14 q 199 56 199 24 q 230 128 199 97 q 303 160 261 160 q 359 135 339 160 q 379 64 379 110 q 365 -10 379 25 q 328 -74 351 -46 q 271 -119 304 -101 q 200 -142 238 -137 l 197 -115 q 281 -73 250 -103 q 313 -4 313 -43 z "},"~":{"ha":531,"x_min":7,"x_max":486,"o":"m 7 306 q 176 446 78 446 q 218 440 196 446 q 272 424 240 435 l 285 418 q 339 399 318 404 q 375 394 360 394 q 465 453 431 394 l 486 446 q 329 299 426 299 q 288 304 310 299 q 229 324 265 310 q 167 345 192 339 q 124 351 143 351 q 26 297 64 351 l 7 306 z "},"´":{"ha":233,"x_min":93,"x_max":276,"o":"m 93 790 l 163 949 l 276 949 l 119 790 l 93 790 z "},"`":{"ha":235,"x_min":121,"x_max":249,"o":"m 222 790 l 121 949 l 235 949 l 249 790 l 222 790 z "},"ˇ":{"ha":358,"x_min":119,"x_max":401,"o":"m 150 947 l 247 879 l 371 947 l 401 947 l 243 790 l 224 790 l 119 947 l 150 947 z "},"˘":{"ha":319,"x_min":107,"x_max":358,"o":"m 338 929 l 358 929 q 308 833 347 871 q 215 794 268 794 q 135 833 163 794 q 117 929 107 871 l 138 929 q 157 879 132 899 q 226 860 182 860 q 301 878 269 860 q 338 929 332 897 z "},"˝":{"ha":379,"x_min":94,"x_max":422,"o":"m 250 790 l 319 949 l 422 949 l 276 790 l 250 790 m 94 790 l 165 949 l 268 949 l 122 790 l 94 790 z "},"˙":{"ha":196,"x_min":99,"x_max":229,"o":"m 103 864 q 127 907 107 890 q 174 924 147 924 q 215 907 200 924 q 225 865 229 890 q 200 822 221 839 q 153 806 179 806 q 113 822 126 806 q 103 864 99 839 z "},"˛":{"ha":263,"x_min":-71,"x_max":121,"o":"m 121 -112 q 65 -175 97 -153 q 0 -197 33 -197 q -51 -179 -31 -197 q -71 -133 -71 -161 q -60 -94 -71 -114 q -31 -58 -49 -75 q 10 -25 -12 -40 q 54 1 32 -10 l 78 1 q 22 -44 46 -15 q -1 -106 -1 -74 q 9 -140 -1 -126 q 36 -153 19 -153 q 103 -103 72 -153 l 121 -112 z "},"¸":{"ha":288,"x_min":-72,"x_max":142,"o":"m -56 -126 q -24 -150 -44 -140 q 17 -160 -3 -160 q 51 -149 36 -160 q 65 -118 65 -137 q -7 -69 65 -78 l 35 0 l 56 0 l 31 -46 q 110 -67 79 -49 q 142 -118 142 -86 q 109 -172 142 -153 q 36 -190 76 -190 q -28 -178 1 -190 q -72 -142 -57 -165 l -56 -126 z "},"B":{"ha":585,"x_min":-21,"x_max":585,"o":"m 571 719 q 543 635 563 672 q 498 570 524 597 q 441 527 472 543 q 376 507 410 511 l 356 504 l 354 496 l 374 492 q 438 467 410 486 q 485 417 467 447 q 511 348 504 386 q 511 268 518 310 l 506 231 q 476 148 499 189 q 421 74 454 107 q 344 20 388 40 q 251 0 301 0 l -21 0 l 151 971 l 400 971 q 481 954 444 971 q 542 908 518 938 q 575 839 565 879 q 576 751 585 799 l 571 719 m 300 518 q 366 557 344 518 q 404 689 388 596 l 418 768 q 426 898 433 861 q 372 935 418 935 l 307 935 l 233 518 l 300 518 m 357 307 q 356 441 372 400 q 294 482 339 482 l 226 482 l 149 36 l 228 36 q 299 74 275 36 q 339 204 324 113 l 357 307 z "},"C":{"ha":554,"x_min":3,"x_max":599,"o":"m 101 701 q 140 819 113 767 q 208 908 168 871 q 299 965 247 944 q 410 985 350 985 q 599 899 536 985 l 568 874 q 428 942 513 942 q 330 906 368 942 q 279 800 292 869 l 168 178 q 263 29 142 29 q 377 60 324 29 q 463 144 431 92 l 494 129 q 386 23 454 60 q 236 -14 318 -14 q 58 66 114 -14 q 25 281 3 146 l 101 701 z "},"A":{"ha":478,"x_min":-97,"x_max":401,"o":"m 260 971 l 331 971 l 401 0 l 233 0 l 213 289 l 49 289 l -58 0 l -97 0 l 260 971 m 164 606 l 61 325 l 210 325 l 190 606 l 190 661 l 181 661 l 164 606 z "},"±":{"ha":517,"x_min":-19,"x_max":482,"o":"m 42 513 l 243 513 l 281 725 l 318 725 l 281 513 l 482 513 l 476 476 l 274 476 l 236 264 l 200 264 l 238 476 l 36 476 l 42 513 m 428 203 l 421 167 l -19 167 l -12 203 l 428 203 z "},"·":{"ha":206,"x_min":24,"x_max":169,"o":"m 29 451 q 57 499 35 479 q 108 518 79 518 q 153 499 138 518 q 164 450 169 479 q 135 402 158 422 q 85 382 113 382 q 40 402 56 382 q 29 451 24 422 z "},"¯":{"ha":335,"x_min":103,"x_max":367,"o":"m 361 847 l 103 847 l 110 883 l 367 883 l 361 847 z "},"F":{"ha":469,"x_min":-21,"x_max":522,"o":"m 307 935 l 231 500 l 410 500 l 403 464 l 224 464 l 142 0 l -21 0 l 151 971 l 522 971 l 515 935 l 307 935 z "},"G":{"ha":621,"x_min":-3,"x_max":610,"o":"m 99 703 q 206 908 122 833 q 414 983 289 983 q 529 962 479 983 q 610 899 579 940 l 581 874 q 518 922 557 904 q 436 939 479 939 q 328 902 371 939 q 274 800 285 865 l 160 168 q 263 25 135 25 q 339 36 299 25 l 414 454 l 301 454 l 308 490 l 567 490 l 486 46 q 432 22 463 33 q 368 3 401 11 q 301 -8 335 -4 q 239 -12 268 -12 q 55 66 113 -12 q 21 279 -3 144 l 99 703 z "},"¿":{"ha":576,"x_min":-18,"x_max":496,"o":"m 489 613 q 453 551 482 576 q 388 526 425 526 q 329 551 350 526 q 315 613 308 576 q 351 675 322 650 q 418 700 381 700 q 476 675 456 700 q 489 613 496 650 m 389 -151 q 293 -212 350 -190 q 174 -235 236 -235 q 33 -189 83 -235 q -18 -60 -18 -143 q 11 60 -18 1 q 90 176 40 119 q 206 286 140 232 q 344 390 272 340 l 364 494 l 400 494 l 363 278 q 257 185 300 229 q 187 99 214 142 q 148 15 160 57 q 136 -72 136 -26 q 157 -162 136 -135 q 219 -190 178 -190 q 295 -173 256 -190 q 367 -126 335 -156 l 389 -151 z "},"¶":{"ha":525,"x_min":69,"x_max":571,"o":"m 317 971 l 353 971 l 175 -42 l 139 -42 l 244 558 q 115 615 160 558 q 86 765 69 671 q 116 849 94 811 q 168 915 138 888 q 237 956 199 942 q 317 971 275 971 m 535 971 l 571 971 l 393 -42 l 357 -42 l 535 971 z "},"¬":{"ha":700,"x_min":33,"x_max":668,"o":"m 628 303 l 563 303 l 592 468 l 33 468 l 44 532 l 668 532 l 628 303 z "},"©":{"ha":957,"x_min":18,"x_max":936,"o":"m 36 478 q 104 672 54 582 q 226 828 154 761 q 384 933 297 894 q 564 971 471 971 q 730 933 656 971 q 852 828 804 894 q 918 672 900 761 q 918 478 936 582 q 850 284 900 374 q 728 128 800 194 q 569 23 657 61 q 389 -15 482 -15 q 224 23 297 -15 q 102 128 150 61 q 36 284 54 194 q 36 478 18 374 m 68 475 q 66 294 50 378 q 126 149 82 211 q 236 52 169 88 q 388 17 303 17 q 556 53 474 17 q 705 152 638 89 q 819 300 772 215 q 885 481 867 385 q 886 660 903 576 q 826 807 869 744 q 716 905 783 869 q 564 940 649 940 q 397 904 478 940 q 249 805 315 868 q 134 657 182 742 q 68 475 86 572 m 275 550 q 308 640 283 599 q 367 711 332 681 q 445 758 401 742 q 536 775 489 775 q 631 756 588 775 q 701 703 674 738 l 672 679 q 619 722 653 706 q 553 738 586 738 q 485 713 513 738 q 450 643 457 688 l 393 322 q 406 247 383 275 q 475 218 429 218 q 520 225 497 218 q 565 244 543 232 q 605 274 586 257 q 636 313 624 292 l 664 297 q 569 212 628 243 q 440 181 510 181 q 351 197 390 181 q 286 244 311 214 q 251 315 261 274 q 250 406 242 357 l 275 550 z "},"®":{"ha":461,"x_min":88,"x_max":486,"o":"m 251 607 q 179 623 211 607 q 126 666 147 639 q 96 731 104 693 q 94 810 88 768 q 123 888 101 851 q 176 953 144 925 q 245 997 207 981 q 322 1013 283 1013 q 394 997 363 1013 q 448 953 426 981 q 478 888 469 925 q 479 810 486 851 q 451 731 472 768 q 398 667 429 694 q 329 623 367 639 q 251 607 292 607 m 256 632 q 324 646 290 632 q 384 684 357 660 q 431 740 411 708 q 456 810 450 772 q 455 878 463 846 q 428 935 447 911 q 381 974 410 960 q 318 988 353 988 q 250 974 283 988 q 190 935 217 960 q 144 879 163 911 q 118 810 125 847 q 119 740 113 772 q 145 684 126 708 q 192 646 164 660 q 256 632 221 632 m 317 921 q 358 906 343 921 q 369 869 374 892 l 368 858 q 344 824 364 839 q 300 810 324 810 l 300 807 q 306 806 300 807 q 319 802 313 806 q 332 792 326 799 q 339 774 338 786 l 347 697 l 299 697 l 292 778 q 272 799 290 799 l 267 799 l 250 697 l 204 697 l 243 921 l 317 921 m 271 821 l 294 821 q 318 851 313 821 l 322 872 q 306 900 326 900 l 285 900 l 271 821 z "},"¢":{"ha":460,"x_min":-12,"x_max":467,"o":"m 382 746 l 413 746 l 154 -67 l 122 -67 l 382 746 m 42 476 q 74 566 50 525 q 133 637 99 607 q 212 683 168 667 q 303 700 256 700 q 397 681 354 700 q 467 629 440 663 l 439 606 q 386 647 419 631 q 319 664 353 664 q 251 639 279 664 q 215 569 224 614 l 139 129 q 153 53 131 81 q 219 25 175 25 q 310 51 264 25 q 381 117 356 76 l 408 103 q 314 17 372 49 q 186 -14 256 -14 q 97 3 136 -14 q 32 49 57 19 q -3 121 7 79 q -4 211 -12 163 l 42 476 z "},"÷":{"ha":583,"x_min":26,"x_max":540,"o":"m 229 613 q 265 674 236 650 q 331 699 293 699 q 389 674 368 699 q 403 613 410 649 q 367 550 396 575 q 300 525 338 525 q 243 550 264 525 q 229 613 222 575 m 533 415 l 26 415 l 32 451 l 540 451 l 533 415 m 167 254 q 202 316 174 292 q 268 340 231 340 q 326 316 304 340 q 340 254 347 292 q 303 193 333 218 q 238 168 274 168 q 180 193 200 168 q 167 254 160 218 z "},"¤":{"ha":504,"x_min":4,"x_max":500,"o":"m 432 300 l 408 279 l 360 339 q 290 302 328 315 q 217 289 253 289 q 90 339 140 289 l 21 279 l 4 300 l 75 358 q 47 494 35 417 q 73 566 54 531 q 122 629 92 601 l 74 688 l 96 707 l 144 649 q 214 685 176 672 q 289 699 251 699 q 358 685 325 699 q 414 647 390 672 l 485 707 l 500 688 l 431 628 q 457 494 471 571 q 383 360 444 418 l 432 300 m 75 494 q 78 425 69 457 q 106 369 86 393 q 155 331 125 344 q 221 317 185 317 q 292 331 257 317 q 355 369 326 344 q 403 425 383 393 q 429 494 424 457 q 428 563 436 531 q 399 619 419 596 q 349 657 379 643 q 283 671 319 671 q 213 657 247 671 q 149 619 178 643 q 101 563 121 596 q 75 494 82 531 z "},"£":{"ha":606,"x_min":1,"x_max":643,"o":"m 160 544 l 196 750 q 284 922 215 860 q 456 983 353 983 q 564 965 513 983 q 643 917 615 947 l 618 886 q 558 923 590 910 q 493 936 525 936 q 413 905 444 936 q 369 815 381 874 l 322 544 l 488 544 l 481 508 l 315 508 l 303 435 q 224 228 283 322 q 56 40 164 135 l 54 36 l 461 36 l 456 0 l 1 0 l 4 15 q 47 74 29 44 q 78 144 64 103 q 104 242 92 185 q 132 386 117 300 l 153 508 l 42 508 l 49 544 l 160 544 z "},"×":{"ha":447,"x_min":0,"x_max":428,"o":"m 406 618 l 428 592 l 240 433 l 372 274 l 340 247 l 210 407 l 22 247 l 0 274 l 188 433 l 57 592 l 88 618 l 218 460 l 406 618 z "},"¦":{"ha":113,"x_min":-56,"x_max":167,"o":"m 167 1013 l 88 567 l 51 567 l 131 1013 l 167 1013 m -56 -42 l 24 407 l 60 407 l -19 -42 l -56 -42 z "},"ª":{"ha":339,"x_min":42,"x_max":364,"o":"m 49 588 l 57 632 q 112 717 65 685 q 250 763 158 749 l 267 861 q 260 908 272 892 q 224 925 249 925 q 178 914 203 925 q 138 888 153 903 l 124 906 q 177 938 143 925 q 246 951 211 951 q 333 916 301 951 q 354 828 364 881 l 299 499 l 204 499 l 208 525 l 217 549 l 211 551 q 165 507 192 524 q 113 490 138 490 q 60 518 79 490 q 49 588 42 546 m 218 576 l 247 747 q 182 715 203 736 q 153 649 161 694 l 142 589 q 144 553 139 567 q 164 540 150 540 q 218 576 189 540 z "},"º":{"ha":342,"x_min":67,"x_max":372,"o":"m 256 979 q 306 969 283 979 q 344 941 328 958 q 366 901 360 924 q 368 853 372 878 l 338 678 q 319 630 333 653 q 285 590 306 607 q 238 562 264 572 q 185 551 213 551 q 135 562 158 551 q 97 590 113 572 q 74 630 81 607 q 71 678 67 653 l 101 853 q 121 901 106 878 q 157 941 136 924 q 203 969 178 958 q 256 979 229 979 m 254 957 q 224 942 238 957 q 206 907 210 928 l 156 624 q 161 588 153 603 q 188 574 169 574 q 217 588 204 574 q 235 624 231 601 l 285 907 q 279 943 288 929 q 254 957 271 957 z "},"ß":{"ha":556,"x_min":-49,"x_max":563,"o":"m 114 0 l -49 0 l 90 786 q 122 865 99 829 q 181 928 146 901 q 263 969 217 954 q 358 983 308 983 q 448 969 408 983 q 514 928 488 954 q 551 865 540 901 q 554 786 563 829 l 551 772 q 528 701 546 735 q 484 640 510 667 q 427 597 458 614 q 361 575 396 579 l 339 572 l 338 564 l 358 561 q 424 534 396 556 q 471 480 453 513 q 494 405 489 447 q 492 314 500 363 l 488 293 q 390 78 464 157 q 211 0 315 0 l 158 0 l 165 36 l 201 36 q 311 210 281 36 l 344 397 q 340 509 357 468 q 283 550 324 550 l 256 550 l 263 586 l 285 586 q 385 743 357 586 l 393 790 q 398 908 408 871 q 351 946 388 946 q 292 908 315 946 q 254 790 268 871 l 114 0 z "},"−":{"ha":515,"x_min":26,"x_max":472,"o":"m 472 451 l 467 415 l 26 415 l 33 451 l 472 451 z "},"V":{"ha":465,"x_min":75,"x_max":560,"o":"m 269 372 l 269 317 l 279 317 l 296 372 l 521 969 l 560 969 l 193 -1 l 122 -1 l 75 969 l 242 969 l 269 372 z "},"P":{"ha":579,"x_min":-21,"x_max":597,"o":"m 397 971 q 487 952 447 971 q 551 901 526 933 q 587 827 576 869 q 589 738 597 785 l 581 686 q 548 597 572 639 q 487 522 524 554 q 405 472 450 490 q 310 453 360 453 l 222 453 l 142 0 l -21 0 l 151 971 l 397 971 m 431 756 q 433 892 447 850 q 374 935 419 935 l 307 935 l 228 489 l 301 489 q 372 532 346 489 q 415 668 399 575 l 431 756 z "},"b":{"ha":532,"x_min":-35,"x_max":494,"o":"m 118 1 l -35 1 l 136 971 l 289 971 l 235 667 l 222 626 l 231 624 q 278 683 251 665 q 340 701 304 701 q 408 685 378 701 q 458 640 438 668 q 486 573 478 611 q 486 493 494 535 l 432 182 q 405 108 425 143 q 356 45 385 72 q 294 3 328 18 q 225 -12 260 -12 q 165 8 188 -12 q 133 78 143 29 l 125 75 l 124 35 l 118 1 m 144 151 q 143 110 140 131 q 153 74 146 90 q 172 49 161 58 q 197 39 183 39 q 238 61 219 39 q 263 115 257 83 l 346 589 q 342 642 353 621 q 310 663 331 663 q 280 653 296 663 q 251 626 264 643 q 228 589 238 610 q 214 546 218 568 l 144 151 z "},"˚":{"ha":235,"x_min":96,"x_max":271,"o":"m 103 874 q 136 931 110 908 q 197 954 163 954 q 252 931 233 954 q 265 874 271 908 q 231 816 258 839 q 169 793 204 793 q 115 816 135 793 q 103 874 96 839 m 131 874 q 139 836 126 851 q 174 821 151 821 q 215 836 197 821 q 238 874 233 851 q 229 912 242 897 q 193 926 217 926 q 153 912 171 926 q 131 874 135 897 z "},"¨":{"ha":378,"x_min":100,"x_max":413,"o":"m 104 865 q 129 908 108 892 q 175 924 150 924 q 215 908 200 924 q 226 865 231 892 q 201 822 222 839 q 154 806 179 806 q 115 822 129 806 q 104 865 100 839 m 285 865 q 311 908 290 892 q 356 924 332 924 q 398 908 383 924 q 407 865 413 892 q 383 822 403 839 q 335 806 363 806 q 296 822 311 806 q 285 865 281 839 z "},"ð":{"ha":532,"x_min":-14,"x_max":563,"o":"m 300 971 q 385 932 347 958 q 451 869 424 906 l 556 906 l 563 874 l 469 842 q 506 744 496 797 q 504 633 515 692 l 428 199 q 397 117 419 156 q 340 49 374 78 q 264 4 306 21 q 178 -12 222 -12 q 95 4 132 -12 q 33 50 58 21 q -3 117 8 79 q -6 199 -14 156 l 46 493 q 76 573 54 535 q 127 640 97 611 q 194 685 157 668 q 268 701 231 701 q 322 683 304 701 q 347 624 340 665 l 357 626 l 358 667 q 368 808 372 747 l 271 775 l 264 807 l 363 840 q 285 939 346 915 l 300 971 m 282 663 q 244 642 261 663 q 219 590 226 622 l 135 106 q 140 44 128 67 q 181 21 153 21 q 231 44 210 21 q 260 106 253 68 l 336 547 q 338 590 340 569 q 328 627 335 611 q 309 653 321 643 q 282 663 297 663 z "},"R":{"ha":621,"x_min":-21,"x_max":597,"o":"m 397 971 q 487 952 447 971 q 552 901 526 933 q 588 827 578 869 q 589 738 597 785 l 585 715 q 554 630 576 669 q 499 559 532 590 q 424 508 465 528 q 336 485 382 489 l 335 475 q 388 462 364 474 q 431 431 413 450 q 460 389 450 413 q 472 340 471 365 l 489 0 l 322 0 l 307 364 q 303 416 306 396 q 295 447 301 436 q 278 463 289 458 q 250 467 267 467 l 225 467 l 142 0 l -21 0 l 151 971 l 397 971 m 431 756 q 433 892 447 850 q 374 935 419 935 l 307 935 l 231 503 l 306 503 q 376 546 350 503 q 418 682 401 589 l 431 756 z "},"d":{"ha":532,"x_min":-17,"x_max":565,"o":"m 261 75 l 253 78 q 196 8 225 29 q 129 -12 167 -12 q 66 3 94 -12 q 18 45 38 18 q -9 108 -1 72 q -10 182 -17 143 l 46 493 q 74 573 53 535 q 126 640 96 611 q 192 685 156 668 q 265 701 228 701 q 322 683 301 701 q 349 624 342 665 l 357 626 l 358 667 l 413 971 l 565 971 l 393 1 l 242 1 l 247 35 l 261 75 m 338 546 q 339 589 342 568 q 328 626 336 610 q 309 653 321 643 q 283 663 297 663 q 244 642 261 663 q 221 590 226 622 l 136 115 q 142 61 131 83 q 175 39 153 39 q 203 49 189 39 q 231 74 218 58 q 254 110 244 90 q 268 151 264 131 l 338 546 z "},"½":{"ha":574,"x_min":47,"x_max":511,"o":"m 158 931 l 121 913 l 115 929 l 197 971 l 231 971 l 157 553 l 92 553 l 158 931 m 433 971 l 471 971 l 85 0 l 47 0 l 433 971 m 328 389 q 426 426 369 426 q 488 406 465 426 q 510 349 510 385 q 487 272 511 307 q 431 213 463 236 l 374 168 q 289 67 311 119 l 461 67 l 450 0 l 250 0 q 287 108 261 57 q 358 213 313 158 l 375 232 q 426 299 406 267 q 447 361 447 332 q 406 404 447 404 q 372 397 390 404 q 338 376 353 389 l 328 389 z "},"O":{"ha":639,"x_min":8,"x_max":631,"o":"m 96 706 q 135 819 107 768 q 203 908 163 871 q 297 965 244 944 q 407 985 349 985 q 510 965 465 985 q 583 908 556 944 q 621 819 611 871 q 619 706 631 768 l 543 278 q 503 158 532 213 q 434 66 475 104 q 341 7 393 28 q 231 -14 289 -14 q 127 7 172 -14 q 55 66 82 28 q 18 158 28 104 q 21 278 8 213 l 96 706 m 164 172 q 238 24 139 24 q 361 172 336 24 l 472 800 q 400 947 497 947 q 320 909 353 947 q 275 800 288 871 l 164 172 z "},"¾":{"ha":569,"x_min":53,"x_max":531,"o":"m 126 942 q 218 979 167 979 q 287 952 263 979 q 304 882 311 925 l 301 868 q 271 802 294 824 q 208 774 247 781 l 207 771 q 263 740 246 764 q 272 672 279 717 l 268 656 q 224 578 260 607 q 136 549 188 549 q 53 575 83 549 l 65 590 q 129 568 96 568 q 174 589 156 568 q 200 660 192 610 l 201 669 q 199 742 211 721 q 151 763 188 763 l 154 781 q 206 801 189 781 q 232 869 224 821 l 233 882 q 200 957 247 957 q 138 929 169 957 l 126 942 m 263 108 l 451 418 l 488 418 l 436 131 l 469 131 l 460 78 l 428 78 l 414 0 l 346 0 l 360 78 l 257 78 l 263 108 m 393 289 l 300 133 l 300 131 l 368 131 l 397 289 l 393 289 m 493 971 l 531 971 l 144 0 l 107 0 l 493 971 z "},"Þ":{"ha":579,"x_min":-19,"x_max":567,"o":"m 314 971 l 272 738 l 369 738 q 518 675 469 738 q 549 508 567 613 l 542 469 q 508 373 532 417 q 451 298 485 329 q 374 250 417 267 q 282 233 331 233 l 183 233 l 143 0 l -19 0 l 151 971 l 314 971 m 394 553 q 394 663 407 624 q 346 701 382 701 l 267 701 l 190 269 l 275 269 q 372 429 344 269 l 394 553 z "},"þ":{"ha":536,"x_min":-72,"x_max":500,"o":"m 224 613 l 232 610 q 287 679 258 658 q 353 700 315 700 q 418 685 389 700 q 466 642 447 669 q 492 581 485 615 q 493 506 500 546 l 439 194 q 409 115 431 153 q 358 48 388 76 q 291 3 328 19 q 217 -14 254 -14 q 162 4 181 -14 q 136 64 143 22 l 126 61 l 125 21 l 81 -233 l -72 -233 l 140 971 l 293 971 l 238 653 l 224 613 m 147 142 q 146 99 143 119 q 156 61 149 78 q 175 35 163 44 q 201 25 188 25 q 240 45 222 25 q 264 97 258 65 l 347 574 q 342 627 353 606 q 310 649 331 649 q 281 639 296 649 q 253 613 267 629 q 231 577 240 597 q 217 536 221 557 l 147 142 z "},"ƒ":{"ha":338,"x_min":-226,"x_max":522,"o":"m -87 -232 q -226 -186 -164 -232 l -204 -158 q -115 -190 -153 -190 q -46 -159 -75 -190 q -7 -75 -17 -128 l 69 358 l -57 358 l -51 392 l 75 392 l 142 771 q 172 856 150 817 q 227 924 194 896 q 300 967 260 951 q 385 983 340 983 q 522 939 458 983 l 500 910 q 414 942 456 942 q 343 910 374 942 q 303 826 313 879 l 226 392 l 353 392 l 347 358 l 221 358 l 157 -7 q 126 -99 149 -57 q 72 -169 104 -140 q -1 -215 39 -199 q -87 -232 -42 -232 z "},"§":{"ha":544,"x_min":-71,"x_max":585,"o":"m 14 374 q 32 447 14 413 q 80 506 50 481 q 150 547 110 532 q 235 561 190 561 q 310 549 275 561 l 239 717 q 221 796 221 757 q 238 867 221 833 q 286 927 256 901 q 356 968 317 953 q 440 983 396 983 q 585 925 529 983 l 557 901 q 468 943 518 943 q 406 918 431 943 q 382 853 382 893 q 396 792 382 824 l 507 514 q 521 453 521 485 q 502 383 521 417 q 452 325 483 350 q 380 285 421 300 q 294 269 339 269 q 258 272 275 269 q 225 279 240 275 l 301 93 q 315 31 315 61 q 297 -39 315 -6 q 246 -97 278 -72 q 172 -137 214 -122 q 86 -153 131 -153 q -71 -82 -12 -153 l -44 -56 q 71 -114 11 -114 q 128 -91 107 -114 q 149 -28 149 -68 q 124 75 149 17 l 32 296 q 14 374 14 336 m 175 433 q 179 400 175 418 q 192 363 183 382 l 204 336 q 276 308 244 308 q 333 334 310 308 q 356 397 356 360 q 351 432 356 413 q 339 474 347 451 l 328 501 q 296 515 314 510 q 263 521 278 521 q 199 496 224 521 q 175 433 175 471 z "},"​":{"ha":1389,"x_min":0,"x_max":0,"o":""}," ":{"ha":268,"x_min":0,"x_max":0,"o":""},"­":{"ha":515,"x_min":26,"x_max":472,"o":"m 472 451 l 467 415 l 26 415 l 33 451 l 472 451 z "},"":{"ha":1389,"x_min":0,"x_max":0,"o":""},"∕":{"ha":371,"x_min":-71,"x_max":431,"o":"m 392 1042 l 431 1042 l -32 -124 l -71 -124 l 392 1042 z "},"y":{"ha":464,"x_min":28,"x_max":482,"o":"m 213 688 l 253 308 l 253 268 l 263 268 l 276 308 l 444 688 l 482 688 l 67 -243 l 28 -243 l 139 0 l 129 0 l 53 688 l 213 688 z "},"@":{"ha":1075,"x_min":-1,"x_max":1019,"o":"m 500 75 q 361 -10 461 -10 q 247 42 279 -10 q 240 186 215 94 l 311 449 q 345 522 322 488 q 399 581 368 556 q 467 622 431 607 q 540 636 504 636 q 619 554 619 636 l 629 554 l 636 596 l 643 622 l 796 622 l 667 135 q 713 29 638 29 q 810 67 761 29 q 899 164 858 104 q 964 298 939 224 q 989 447 989 372 q 960 591 989 525 q 881 705 932 657 q 758 781 829 753 q 601 808 686 808 q 384 760 488 808 q 202 629 281 711 q 77 440 124 547 q 31 214 31 332 q 58 51 31 125 q 137 -74 86 -22 q 258 -155 188 -126 q 415 -183 329 -183 q 715 -97 567 -183 l 725 -124 q 572 -191 651 -168 q 414 -214 493 -214 q 244 -183 321 -214 q 113 -97 168 -153 q 28 39 58 -40 q -1 214 -1 118 q 48 451 -1 338 q 180 650 97 564 q 372 788 263 736 q 600 839 481 839 q 767 809 690 839 q 901 725 844 779 q 988 597 957 671 q 1019 435 1019 522 q 989 265 1019 347 q 906 119 958 182 q 786 17 854 56 q 644 -21 718 -21 q 559 -2 594 -21 q 511 49 524 17 l 510 75 l 500 75 m 385 139 q 375 55 369 81 q 408 29 381 29 q 469 56 440 29 q 508 119 497 83 l 599 454 q 604 558 615 515 q 563 601 593 601 q 517 574 539 601 q 483 507 494 547 l 385 139 z "},"μ":{"ha":532,"x_min":-89,"x_max":522,"o":"m 160 -6 q 119 -7 140 -11 l 74 -265 l -89 -265 l 79 688 l 242 688 l 138 97 q 160 29 125 29 q 195 43 176 29 q 231 78 214 57 q 262 124 249 99 q 279 172 275 149 l 371 688 l 522 688 l 401 0 l 249 0 l 258 51 l 271 93 l 263 96 q 213 27 238 51 q 160 -6 188 3 z "},"a":{"ha":532,"x_min":-15,"x_max":517,"o":"m 261 75 l 253 78 q 197 8 226 29 q 131 -12 168 -12 q 67 3 96 -12 q 19 45 39 18 q -8 108 0 72 q -8 182 -15 143 l 47 493 q 76 573 54 535 q 127 640 97 611 q 193 685 157 668 q 267 701 229 701 q 323 683 303 701 q 350 624 343 665 l 358 626 l 360 667 l 364 688 l 517 688 l 394 1 l 242 1 l 249 35 l 261 75 m 339 546 q 340 589 343 568 q 330 626 338 610 q 310 653 322 643 q 283 663 299 663 q 245 642 263 663 q 221 590 228 622 l 138 115 q 143 61 132 83 q 176 39 154 39 q 205 49 190 39 q 232 74 219 58 q 254 110 244 90 q 268 151 264 131 l 339 546 z "},"g":{"ha":532,"x_min":-54,"x_max":515,"o":"m 358 667 l 363 688 l 515 688 l 383 -53 q 352 -128 376 -93 q 291 -188 328 -162 q 208 -228 254 -214 q 113 -243 163 -243 q -54 -172 4 -243 l -26 -147 q 29 -190 -3 -175 q 94 -206 61 -206 q 181 -171 146 -206 q 228 -76 217 -136 l 247 35 l 260 75 l 253 78 q 196 8 225 29 q 129 -12 167 -12 q 66 3 94 -12 q 18 45 38 18 q -9 108 -1 72 q -10 182 -17 143 l 46 493 q 74 573 53 535 q 126 640 96 611 q 192 685 156 668 q 265 701 228 701 q 322 683 301 701 q 349 624 342 665 l 357 626 l 358 667 m 138 115 q 142 61 131 83 q 175 39 153 39 q 203 49 189 39 q 231 74 218 58 q 254 110 244 90 q 268 151 264 131 l 338 546 q 339 589 342 568 q 328 626 336 610 q 309 653 321 643 q 283 663 297 663 q 244 642 261 663 q 221 590 226 622 l 138 115 z "},"™":{"ha":475,"x_min":119,"x_max":524,"o":"m 524 971 l 474 688 l 424 688 l 461 897 l 460 897 l 381 688 l 350 688 l 333 896 l 331 896 l 294 688 l 268 688 l 317 971 l 385 971 l 394 811 l 397 811 l 458 971 l 524 971 m 279 943 l 225 943 l 179 688 l 129 688 l 175 943 l 119 943 l 124 971 l 285 971 l 279 943 z "},"Á":{"ha":478,"x_min":-97,"x_max":468,"o":"m 260 971 l 331 971 l 401 0 l 233 0 l 213 289 l 49 289 l -58 0 l -97 0 l 260 971 m 164 606 l 61 325 l 210 325 l 190 606 l 190 661 l 181 661 l 164 606 m 285 1028 l 354 1186 l 468 1186 l 311 1028 l 285 1028 z "},"À":{"ha":478,"x_min":-97,"x_max":401,"o":"m 260 971 l 331 971 l 401 0 l 233 0 l 213 289 l 49 289 l -58 0 l -97 0 l 260 971 m 164 606 l 61 325 l 210 325 l 190 606 l 190 661 l 181 661 l 164 606 m 303 1028 l 201 1186 l 315 1186 l 329 1028 l 303 1028 z "},"Â":{"ha":478,"x_min":-97,"x_max":451,"o":"m 260 971 l 331 971 l 401 0 l 233 0 l 213 289 l 49 289 l -58 0 l -97 0 l 260 971 m 164 606 l 61 325 l 210 325 l 190 606 l 190 661 l 181 661 l 164 606 m 329 1185 l 347 1185 l 451 1028 l 421 1028 l 321 1096 l 200 1028 l 168 1028 l 329 1185 z "},"³":{"ha":278,"x_min":53,"x_max":311,"o":"m 126 942 q 218 979 167 979 q 287 952 263 979 q 304 882 311 925 l 301 868 q 271 802 294 824 q 208 774 247 781 l 207 771 q 263 740 246 764 q 272 672 279 717 l 268 656 q 224 578 260 607 q 136 549 188 549 q 53 575 83 549 l 65 590 q 129 568 96 568 q 174 589 156 568 q 200 660 192 610 l 201 669 q 199 742 211 721 q 151 763 188 763 l 154 781 q 206 801 189 781 q 232 869 224 821 l 233 882 q 200 957 247 957 q 138 929 169 957 l 126 942 z "},"Ä":{"ha":478,"x_min":-97,"x_max":478,"o":"m 260 971 l 331 971 l 401 0 l 233 0 l 213 289 l 49 289 l -58 0 l -97 0 l 260 971 m 164 606 l 61 325 l 210 325 l 190 606 l 190 661 l 181 661 l 164 606 m 169 1103 q 194 1145 174 1129 q 240 1161 215 1161 q 281 1145 265 1161 q 292 1103 296 1129 q 266 1060 288 1076 q 219 1043 244 1043 q 180 1060 194 1043 q 169 1103 165 1076 m 350 1103 q 376 1145 356 1129 q 421 1161 397 1161 q 463 1145 449 1161 q 472 1103 478 1129 q 448 1060 468 1076 q 400 1043 428 1043 q 361 1060 376 1043 q 350 1103 346 1076 z "},"Ă":{"ha":478,"x_min":-97,"x_max":450,"o":"m 260 971 l 331 971 l 401 0 l 233 0 l 213 289 l 49 289 l -58 0 l -97 0 l 260 971 m 164 606 l 61 325 l 210 325 l 190 606 l 190 661 l 181 661 l 164 606 m 429 1167 l 450 1167 q 399 1070 439 1108 q 307 1032 360 1032 q 226 1070 254 1032 q 208 1167 199 1108 l 229 1167 q 249 1117 224 1136 q 318 1097 274 1097 q 392 1116 361 1097 q 429 1167 424 1135 z "},"Ā":{"ha":478,"x_min":-97,"x_max":454,"o":"m 260 971 l 331 971 l 401 0 l 233 0 l 213 289 l 49 289 l -58 0 l -97 0 l 260 971 m 164 606 l 61 325 l 210 325 l 190 606 l 190 661 l 181 661 l 164 606 m 449 1085 l 190 1085 l 197 1121 l 454 1121 l 449 1085 z "},"Ą":{"ha":478,"x_min":-97,"x_max":401,"o":"m 260 971 l 331 971 l 401 0 l 233 0 l 213 289 l 49 289 l -58 0 l -97 0 l 260 971 m 164 606 l 61 325 l 210 325 l 190 606 l 190 661 l 181 661 l 164 606 m 306 -111 q 250 -174 282 -151 q 185 -196 218 -196 q 134 -178 154 -196 q 114 -132 114 -160 q 125 -93 114 -112 q 154 -56 136 -74 q 194 -24 172 -39 q 239 3 217 -8 l 263 3 q 207 -43 231 -14 q 183 -104 183 -72 q 194 -138 183 -125 q 221 -151 204 -151 q 288 -101 257 -151 l 306 -111 z "},"Å":{"ha":478,"x_min":-97,"x_max":408,"o":"m 260 971 l 331 971 l 401 0 l 233 0 l 213 289 l 49 289 l -58 0 l -97 0 l 260 971 m 164 606 l 61 325 l 210 325 l 190 606 l 190 661 l 181 661 l 164 606 m 240 1111 q 274 1169 247 1146 q 335 1192 300 1192 q 390 1169 371 1192 q 403 1111 408 1146 q 369 1053 396 1076 q 307 1031 342 1031 q 253 1053 272 1031 q 240 1111 233 1076 m 268 1111 q 276 1074 264 1089 q 311 1058 289 1058 q 353 1074 335 1058 q 375 1111 371 1089 q 367 1149 379 1135 q 331 1164 354 1164 q 290 1149 308 1164 q 268 1111 272 1135 z "},"Ã":{"ha":478,"x_min":-97,"x_max":468,"o":"m 260 971 l 331 971 l 401 0 l 233 0 l 213 289 l 49 289 l -58 0 l -97 0 l 260 971 m 164 606 l 61 325 l 210 325 l 190 606 l 190 661 l 181 661 l 164 606 m 193 1060 l 176 1071 q 294 1157 233 1157 q 333 1147 314 1157 l 368 1131 q 401 1121 386 1121 q 451 1157 429 1121 l 468 1147 q 353 1058 413 1058 q 308 1069 333 1058 l 283 1082 q 247 1093 261 1093 q 193 1060 218 1093 z "},"Æ":{"ha":663,"x_min":-125,"x_max":714,"o":"m 714 971 l 708 933 l 501 933 l 428 514 l 604 514 l 599 478 l 421 478 l 343 36 l 550 36 l 543 -1 l 175 -1 l 226 288 l 47 288 l -86 -1 l -125 -1 l 324 971 l 714 971 m 293 818 l 64 324 l 232 324 l 329 874 l 314 874 l 293 818 z "},"Ǽ":{"ha":663,"x_min":-125,"x_max":714,"o":"m 714 971 l 708 933 l 501 933 l 428 514 l 604 514 l 599 478 l 421 478 l 343 36 l 550 36 l 543 -1 l 175 -1 l 226 288 l 47 288 l -86 -1 l -125 -1 l 324 971 l 714 971 m 293 818 l 64 324 l 232 324 l 329 874 l 314 874 l 293 818 m 499 1028 l 568 1186 l 682 1186 l 525 1028 l 499 1028 z "},"Ć":{"ha":554,"x_min":3,"x_max":599,"o":"m 101 701 q 140 819 113 767 q 208 908 168 871 q 299 965 247 944 q 410 985 350 985 q 599 899 536 985 l 568 874 q 428 942 513 942 q 330 906 368 942 q 279 800 292 869 l 168 178 q 263 29 142 29 q 377 60 324 29 q 463 144 431 92 l 494 129 q 386 23 454 60 q 236 -14 318 -14 q 58 66 114 -14 q 25 281 3 146 l 101 701 m 383 1028 l 453 1186 l 567 1186 l 410 1028 l 383 1028 z "},"Č":{"ha":554,"x_min":3,"x_max":599,"o":"m 101 701 q 140 819 113 767 q 208 908 168 871 q 299 965 247 944 q 410 985 350 985 q 599 899 536 985 l 568 874 q 428 942 513 942 q 330 906 368 942 q 279 800 292 869 l 168 178 q 263 29 142 29 q 377 60 324 29 q 463 144 431 92 l 494 129 q 386 23 454 60 q 236 -14 318 -14 q 58 66 114 -14 q 25 281 3 146 l 101 701 m 324 1185 l 421 1117 l 544 1185 l 575 1185 l 417 1028 l 397 1028 l 293 1185 l 324 1185 z "},"Ĉ":{"ha":554,"x_min":3,"x_max":599,"o":"m 101 701 q 140 819 113 767 q 208 908 168 871 q 299 965 247 944 q 410 985 350 985 q 599 899 536 985 l 568 874 q 428 942 513 942 q 330 906 368 942 q 279 800 292 869 l 168 178 q 263 29 142 29 q 377 60 324 29 q 463 144 431 92 l 494 129 q 386 23 454 60 q 236 -14 318 -14 q 58 66 114 -14 q 25 281 3 146 l 101 701 m 429 1185 l 447 1185 l 551 1028 l 521 1028 l 421 1096 l 300 1028 l 268 1028 l 429 1185 z "},"Ď":{"ha":606,"x_min":-21,"x_max":597,"o":"m 154 971 l 406 971 q 494 951 456 971 q 557 896 533 932 q 589 810 581 860 q 586 700 597 761 l 507 268 q 472 162 497 211 q 410 76 446 113 q 330 20 374 40 q 238 0 286 0 l -21 0 l 154 971 m 144 36 l 219 36 q 336 196 308 36 l 442 778 q 437 894 456 853 q 369 935 418 935 l 306 935 l 144 36 m 299 1185 l 396 1117 l 519 1185 l 550 1185 l 392 1028 l 372 1028 l 268 1185 l 299 1185 z "},"Đ":{"ha":606,"x_min":-21,"x_max":597,"o":"m 154 971 l 406 971 q 494 951 456 971 q 557 896 533 932 q 589 810 581 860 q 586 700 597 761 l 507 268 q 472 162 497 211 q 410 76 446 113 q 330 20 374 40 q 238 0 286 0 l -21 0 l 154 971 m 144 36 l 219 36 q 336 196 308 36 l 442 778 q 437 894 456 853 q 369 935 418 935 l 306 935 l 144 36 m 6 504 l 315 504 l 308 468 l 0 468 l 6 504 z "},"Ð":{"ha":606,"x_min":-21,"x_max":597,"o":"m 154 971 l 406 971 q 494 951 456 971 q 557 896 533 932 q 589 810 581 860 q 586 700 597 761 l 507 268 q 472 162 497 211 q 410 76 446 113 q 330 20 374 40 q 238 0 286 0 l -21 0 l 154 971 m 144 36 l 219 36 q 336 196 308 36 l 442 778 q 437 894 456 853 q 369 935 418 935 l 306 935 l 144 36 m 6 504 l 315 504 l 308 468 l 0 468 l 6 504 z "},"É":{"ha":468,"x_min":-21,"x_max":521,"o":"m 521 971 l 515 935 l 308 935 l 235 514 l 411 514 l 406 478 l 228 478 l 149 36 l 356 36 l 350 0 l -21 0 l 151 971 l 521 971 m 325 1028 l 394 1186 l 508 1186 l 351 1028 l 325 1028 z "},"Ĕ":{"ha":468,"x_min":-21,"x_max":521,"o":"m 521 971 l 515 935 l 308 935 l 235 514 l 411 514 l 406 478 l 228 478 l 149 36 l 356 36 l 350 0 l -21 0 l 151 971 l 521 971 m 469 1167 l 490 1167 q 440 1070 479 1108 q 347 1032 400 1032 q 267 1070 294 1032 q 249 1167 239 1108 l 269 1167 q 289 1117 264 1136 q 358 1097 314 1097 q 433 1116 401 1097 q 469 1167 464 1135 z "},"Ě":{"ha":468,"x_min":-21,"x_max":521,"o":"m 521 971 l 515 935 l 308 935 l 235 514 l 411 514 l 406 478 l 228 478 l 149 36 l 356 36 l 350 0 l -21 0 l 151 971 l 521 971 m 265 1185 l 363 1117 l 486 1185 l 517 1185 l 358 1028 l 339 1028 l 235 1185 l 265 1185 z "},"Ê":{"ha":468,"x_min":-21,"x_max":521,"o":"m 521 971 l 515 935 l 308 935 l 235 514 l 411 514 l 406 478 l 228 478 l 149 36 l 356 36 l 350 0 l -21 0 l 151 971 l 521 971 m 369 1185 l 388 1185 l 492 1028 l 461 1028 l 361 1096 l 240 1028 l 208 1028 l 369 1185 z "},"Ë":{"ha":468,"x_min":-21,"x_max":521,"o":"m 521 971 l 515 935 l 308 935 l 235 514 l 411 514 l 406 478 l 228 478 l 149 36 l 356 36 l 350 0 l -21 0 l 151 971 l 521 971 m 210 1103 q 235 1145 214 1129 q 281 1161 256 1161 q 321 1145 306 1161 q 332 1103 336 1129 q 306 1060 328 1076 q 260 1043 285 1043 q 220 1060 235 1043 q 210 1103 206 1076 m 390 1103 q 417 1145 396 1129 q 461 1161 438 1161 q 503 1145 489 1161 q 513 1103 518 1129 q 488 1060 508 1076 q 440 1043 468 1043 q 401 1060 417 1043 q 390 1103 386 1076 z "},"È":{"ha":468,"x_min":-21,"x_max":521,"o":"m 521 971 l 515 935 l 308 935 l 235 514 l 411 514 l 406 478 l 228 478 l 149 36 l 356 36 l 350 0 l -21 0 l 151 971 l 521 971 m 344 1028 l 243 1186 l 357 1186 l 371 1028 l 344 1028 z "},"Ē":{"ha":468,"x_min":-21,"x_max":521,"o":"m 521 971 l 515 935 l 308 935 l 235 514 l 411 514 l 406 478 l 228 478 l 149 36 l 356 36 l 350 0 l -21 0 l 151 971 l 521 971 m 489 1085 l 231 1085 l 238 1121 l 494 1121 l 489 1085 z "},"Ę":{"ha":468,"x_min":-21,"x_max":521,"o":"m 521 971 l 515 935 l 308 935 l 235 514 l 411 514 l 406 478 l 228 478 l 149 36 l 356 36 l 350 0 l -21 0 l 151 971 l 521 971 m 331 -111 q 275 -174 307 -151 q 210 -196 243 -196 q 159 -178 179 -196 q 139 -132 139 -160 q 150 -93 139 -112 q 179 -56 161 -74 q 219 -24 197 -39 q 264 3 242 -8 l 288 3 q 232 -43 256 -14 q 208 -104 208 -72 q 219 -138 208 -125 q 246 -151 229 -151 q 313 -101 282 -151 l 331 -111 z "},"Ğ":{"ha":621,"x_min":-3,"x_max":610,"o":"m 99 703 q 206 908 122 833 q 414 983 289 983 q 529 962 479 983 q 610 899 579 940 l 581 874 q 518 922 557 904 q 436 939 479 939 q 328 902 371 939 q 274 800 285 865 l 160 168 q 263 25 135 25 q 339 36 299 25 l 414 454 l 301 454 l 308 490 l 567 490 l 486 46 q 432 22 463 33 q 368 3 401 11 q 301 -8 335 -4 q 239 -12 268 -12 q 55 66 113 -12 q 21 279 -3 144 l 99 703 m 540 1167 l 561 1167 q 510 1070 550 1108 q 418 1032 471 1032 q 338 1070 365 1032 q 319 1167 310 1108 l 340 1167 q 360 1117 335 1136 q 429 1097 385 1097 q 503 1116 472 1097 q 540 1167 535 1135 z "},"Ĝ":{"ha":621,"x_min":-3,"x_max":610,"o":"m 99 703 q 206 908 122 833 q 414 983 289 983 q 529 962 479 983 q 610 899 579 940 l 581 874 q 518 922 557 904 q 436 939 479 939 q 328 902 371 939 q 274 800 285 865 l 160 168 q 263 25 135 25 q 339 36 299 25 l 414 454 l 301 454 l 308 490 l 567 490 l 486 46 q 432 22 463 33 q 368 3 401 11 q 301 -8 335 -4 q 239 -12 268 -12 q 55 66 113 -12 q 21 279 -3 144 l 99 703 m 440 1185 l 458 1185 l 563 1028 l 532 1028 l 432 1096 l 311 1028 l 279 1028 l 440 1185 z "},"Ħ":{"ha":646,"x_min":-21,"x_max":682,"o":"m 314 971 l 274 749 l 464 749 l 504 971 l 665 971 l 626 749 l 682 749 l 674 707 l 619 707 l 494 0 l 332 0 l 414 467 l 225 467 l 142 0 l -21 0 l 104 707 l 47 707 l 54 749 l 113 749 l 151 971 l 314 971 m 421 503 l 457 707 l 267 707 l 231 503 l 421 503 z "},"Ĥ":{"ha":646,"x_min":-21,"x_max":665,"o":"m 314 971 l 231 503 l 421 503 l 504 971 l 665 971 l 494 0 l 332 0 l 414 467 l 225 467 l 142 0 l -21 0 l 151 971 l 314 971 m 439 1185 l 457 1185 l 561 1028 l 531 1028 l 431 1096 l 310 1028 l 278 1028 l 439 1185 z "},"Í":{"ha":294,"x_min":-21,"x_max":403,"o":"m 314 971 l 142 0 l -21 0 l 151 971 l 314 971 m 219 1028 l 289 1186 l 403 1186 l 246 1028 l 219 1028 z "},"Ĭ":{"ha":294,"x_min":-21,"x_max":385,"o":"m 314 971 l 142 0 l -21 0 l 151 971 l 314 971 m 364 1167 l 385 1167 q 334 1070 374 1108 q 242 1032 294 1032 q 161 1070 189 1032 q 143 1167 133 1108 l 164 1167 q 183 1117 158 1136 q 253 1097 208 1097 q 327 1116 296 1097 q 364 1167 358 1135 z "},"Î":{"ha":294,"x_min":-21,"x_max":386,"o":"m 314 971 l 142 0 l -21 0 l 151 971 l 314 971 m 264 1185 l 282 1185 l 386 1028 l 356 1028 l 256 1096 l 135 1028 l 103 1028 l 264 1185 z "},"Ï":{"ha":294,"x_min":-21,"x_max":413,"o":"m 314 971 l 142 0 l -21 0 l 151 971 l 314 971 m 104 1103 q 129 1145 108 1129 q 175 1161 150 1161 q 215 1145 200 1161 q 226 1103 231 1129 q 201 1060 222 1076 q 154 1043 179 1043 q 115 1060 129 1043 q 104 1103 100 1076 m 285 1103 q 311 1145 290 1129 q 356 1161 332 1161 q 398 1145 383 1161 q 407 1103 413 1129 q 383 1060 403 1076 q 335 1043 363 1043 q 296 1060 311 1043 q 285 1103 281 1076 z "},"Ì":{"ha":294,"x_min":-21,"x_max":314,"o":"m 314 971 l 142 0 l -21 0 l 151 971 l 314 971 m 238 1028 l 136 1186 l 250 1186 l 264 1028 l 238 1028 z "},"Ī":{"ha":294,"x_min":-21,"x_max":389,"o":"m 314 971 l 142 0 l -21 0 l 151 971 l 314 971 m 383 1085 l 125 1085 l 132 1121 l 389 1121 l 383 1085 z "},"Į":{"ha":294,"x_min":-71,"x_max":314,"o":"m 314 971 l 142 0 l -21 0 l 151 971 l 314 971 m 121 -111 q 65 -174 97 -151 q 0 -196 33 -196 q -51 -178 -31 -196 q -71 -132 -71 -160 q -60 -93 -71 -112 q -31 -56 -49 -74 q 10 -24 -12 -39 q 54 3 32 -8 l 78 3 q 22 -43 46 -14 q -1 -104 -1 -72 q 9 -138 -1 -125 q 36 -151 19 -151 q 103 -101 72 -151 l 121 -111 z "},"Ĵ":{"ha":425,"x_min":-87,"x_max":514,"o":"m -87 50 l -65 74 q 36 28 -17 28 q 99 59 74 28 q 136 149 125 90 l 282 971 l 444 971 l 314 236 q 281 136 304 182 q 223 57 257 90 q 147 5 189 24 q 60 -14 106 -14 q -87 50 -26 -14 m 392 1185 l 410 1185 l 514 1028 l 483 1028 l 383 1096 l 263 1028 l 231 1028 l 392 1185 z "},"Ķ":{"ha":608,"x_min":-21,"x_max":636,"o":"m 142 0 l -21 0 l 150 971 l 314 971 l 142 0 m 274 496 l 279 525 l 594 971 l 636 971 l 400 636 l 532 0 l 364 0 l 274 496 m 254 -156 q 221 -162 233 -162 q 185 -149 199 -162 q 172 -112 172 -136 q 194 -61 172 -83 q 249 -39 217 -39 q 301 -107 301 -39 q 265 -205 301 -162 q 174 -254 229 -247 l 171 -235 q 231 -204 210 -225 q 254 -156 253 -183 z "},"Ĺ":{"ha":415,"x_min":-21,"x_max":401,"o":"m 314 971 l 149 36 l 346 36 l 339 0 l -21 0 l 151 971 l 314 971 m 218 1028 l 288 1186 l 401 1186 l 244 1028 l 218 1028 z "},"Ľ":{"ha":415,"x_min":-21,"x_max":522,"o":"m 363 814 l 419 971 l 522 971 l 390 814 l 363 814 m 314 971 l 149 36 l 346 36 l 339 0 l -21 0 l 151 971 l 314 971 z "},"Ļ":{"ha":415,"x_min":-21,"x_max":346,"o":"m 314 971 l 149 36 l 346 36 l 339 0 l -21 0 l 151 971 l 314 971 m 169 -156 q 136 -162 149 -162 q 101 -149 114 -162 q 88 -112 88 -136 q 110 -61 88 -83 q 164 -39 132 -39 q 217 -107 217 -39 q 181 -205 217 -162 q 89 -254 144 -247 l 86 -235 q 147 -204 125 -225 q 169 -156 168 -183 z "},"Ŀ":{"ha":457,"x_min":-21,"x_max":474,"o":"m 314 971 l 149 36 l 346 36 l 339 0 l -21 0 l 151 971 l 314 971 m 333 492 q 361 539 339 519 q 413 558 383 558 q 458 539 442 558 q 468 490 474 519 q 440 442 463 463 q 389 422 417 422 q 344 442 360 422 q 333 492 328 463 z "},"Ł":{"ha":422,"x_min":-17,"x_max":399,"o":"m 319 971 l 246 554 l 386 624 l 399 593 l 239 514 l 154 36 l 351 36 l 346 0 l -15 0 l 61 426 l -4 394 l -17 426 l 68 467 l 157 971 l 319 971 z "},"Ń":{"ha":557,"x_min":-29,"x_max":585,"o":"m 425 411 l 433 356 l 442 356 l 449 411 l 547 971 l 585 971 l 413 0 l 343 0 l 172 792 l 164 847 l 154 847 l 149 792 l 8 0 l -29 0 l 143 971 l 308 971 l 425 411 m 351 1028 l 421 1186 l 535 1186 l 378 1028 l 351 1028 z "},"Ň":{"ha":557,"x_min":-29,"x_max":585,"o":"m 425 411 l 433 356 l 442 356 l 449 411 l 547 971 l 585 971 l 413 0 l 343 0 l 172 792 l 164 847 l 154 847 l 149 792 l 8 0 l -29 0 l 143 971 l 308 971 l 425 411 m 290 1185 l 388 1117 l 511 1185 l 542 1185 l 383 1028 l 364 1028 l 260 1185 l 290 1185 z "},"Ñ":{"ha":557,"x_min":-29,"x_max":585,"o":"m 425 411 l 433 356 l 442 356 l 449 411 l 547 971 l 585 971 l 413 0 l 343 0 l 172 792 l 164 847 l 154 847 l 149 792 l 8 0 l -29 0 l 143 971 l 308 971 l 425 411 m 260 1060 l 243 1071 q 361 1157 300 1157 q 400 1147 381 1157 l 435 1131 q 468 1121 453 1121 q 518 1157 496 1121 l 535 1147 q 419 1058 479 1058 q 375 1069 400 1058 l 350 1082 q 314 1093 328 1093 q 260 1060 285 1093 z "},"Ņ":{"ha":557,"x_min":-29,"x_max":585,"o":"m 425 411 l 433 356 l 442 356 l 449 411 l 547 971 l 585 971 l 413 0 l 343 0 l 172 792 l 164 847 l 154 847 l 149 792 l 8 0 l -29 0 l 143 971 l 308 971 l 425 411 m 182 -156 q 149 -162 161 -162 q 113 -149 126 -162 q 100 -112 100 -136 q 122 -61 100 -83 q 176 -39 144 -39 q 229 -107 229 -39 q 193 -205 229 -162 q 101 -254 157 -247 l 99 -235 q 159 -204 138 -225 q 182 -156 181 -183 z "},"Ŋ":{"ha":557,"x_min":-28,"x_max":585,"o":"m 449 410 l 547 971 l 585 971 l 410 -15 q 246 -242 383 -162 l 233 -214 q 296 -162 274 -189 q 328 -82 318 -135 l 342 1 l 172 792 l 164 847 l 154 847 l 149 792 l 8 0 l -28 0 l 143 971 l 307 971 l 424 410 l 432 354 l 442 354 l 449 410 z "},"Ó":{"ha":639,"x_min":8,"x_max":631,"o":"m 96 706 q 135 819 107 768 q 203 908 163 871 q 297 965 244 944 q 407 985 349 985 q 510 965 465 985 q 583 908 556 944 q 621 819 611 871 q 619 706 631 768 l 543 278 q 503 158 532 213 q 434 66 475 104 q 341 7 393 28 q 231 -14 289 -14 q 127 7 172 -14 q 55 66 82 28 q 18 158 28 104 q 21 278 8 213 l 96 706 m 164 172 q 238 24 139 24 q 361 172 336 24 l 472 800 q 400 947 497 947 q 320 909 353 947 q 275 800 288 871 l 164 172 m 393 1028 l 463 1186 l 576 1186 l 419 1028 l 393 1028 z "},"Ŏ":{"ha":639,"x_min":8,"x_max":631,"o":"m 96 706 q 135 819 107 768 q 203 908 163 871 q 297 965 244 944 q 407 985 349 985 q 510 965 465 985 q 583 908 556 944 q 621 819 611 871 q 619 706 631 768 l 543 278 q 503 158 532 213 q 434 66 475 104 q 341 7 393 28 q 231 -14 289 -14 q 127 7 172 -14 q 55 66 82 28 q 18 158 28 104 q 21 278 8 213 l 96 706 m 164 172 q 238 24 139 24 q 361 172 336 24 l 472 800 q 400 947 497 947 q 320 909 353 947 q 275 800 288 871 l 164 172 m 538 1167 l 558 1167 q 508 1070 547 1108 q 415 1032 468 1032 q 335 1070 363 1032 q 317 1167 307 1108 l 338 1167 q 357 1117 332 1136 q 426 1097 382 1097 q 501 1116 469 1097 q 538 1167 532 1135 z "},"Ô":{"ha":639,"x_min":8,"x_max":631,"o":"m 96 706 q 135 819 107 768 q 203 908 163 871 q 297 965 244 944 q 407 985 349 985 q 510 965 465 985 q 583 908 556 944 q 621 819 611 871 q 619 706 631 768 l 543 278 q 503 158 532 213 q 434 66 475 104 q 341 7 393 28 q 231 -14 289 -14 q 127 7 172 -14 q 55 66 82 28 q 18 158 28 104 q 21 278 8 213 l 96 706 m 164 172 q 238 24 139 24 q 361 172 336 24 l 472 800 q 400 947 497 947 q 320 909 353 947 q 275 800 288 871 l 164 172 m 439 1185 l 457 1185 l 561 1028 l 531 1028 l 431 1096 l 310 1028 l 278 1028 l 439 1185 z "},"Ö":{"ha":639,"x_min":8,"x_max":631,"o":"m 96 706 q 135 819 107 768 q 203 908 163 871 q 297 965 244 944 q 407 985 349 985 q 510 965 465 985 q 583 908 556 944 q 621 819 611 871 q 619 706 631 768 l 543 278 q 503 158 532 213 q 434 66 475 104 q 341 7 393 28 q 231 -14 289 -14 q 127 7 172 -14 q 55 66 82 28 q 18 158 28 104 q 21 278 8 213 l 96 706 m 164 172 q 238 24 139 24 q 361 172 336 24 l 472 800 q 400 947 497 947 q 320 909 353 947 q 275 800 288 871 l 164 172 m 279 1103 q 304 1145 283 1129 q 350 1161 325 1161 q 390 1145 375 1161 q 401 1103 406 1129 q 376 1060 397 1076 q 329 1043 354 1043 q 290 1060 304 1043 q 279 1103 275 1076 m 460 1103 q 486 1145 465 1129 q 531 1161 507 1161 q 573 1145 558 1161 q 582 1103 588 1129 q 558 1060 578 1076 q 510 1043 538 1043 q 471 1060 486 1043 q 460 1103 456 1076 z "},"Ò":{"ha":639,"x_min":8,"x_max":631,"o":"m 96 706 q 135 819 107 768 q 203 908 163 871 q 297 965 244 944 q 407 985 349 985 q 510 965 465 985 q 583 908 556 944 q 621 819 611 871 q 619 706 631 768 l 543 278 q 503 158 532 213 q 434 66 475 104 q 341 7 393 28 q 231 -14 289 -14 q 127 7 172 -14 q 55 66 82 28 q 18 158 28 104 q 21 278 8 213 l 96 706 m 164 172 q 238 24 139 24 q 361 172 336 24 l 472 800 q 400 947 497 947 q 320 909 353 947 q 275 800 288 871 l 164 172 m 413 1028 l 311 1186 l 425 1186 l 439 1028 l 413 1028 z "},"Ő":{"ha":639,"x_min":8,"x_max":654,"o":"m 96 706 q 135 819 107 768 q 203 908 163 871 q 297 965 244 944 q 407 985 349 985 q 510 965 465 985 q 583 908 556 944 q 621 819 611 871 q 619 706 631 768 l 543 278 q 503 158 532 213 q 434 66 475 104 q 341 7 393 28 q 231 -14 289 -14 q 127 7 172 -14 q 55 66 82 28 q 18 158 28 104 q 21 278 8 213 l 96 706 m 164 172 q 238 24 139 24 q 361 172 336 24 l 472 800 q 400 947 497 947 q 320 909 353 947 q 275 800 288 871 l 164 172 m 482 1028 l 551 1186 l 654 1186 l 508 1028 l 482 1028 m 326 1028 l 397 1186 l 500 1186 l 354 1028 l 326 1028 z "},"Õ":{"ha":639,"x_min":8,"x_max":631,"o":"m 96 706 q 135 819 107 768 q 203 908 163 871 q 297 965 244 944 q 407 985 349 985 q 510 965 465 985 q 583 908 556 944 q 621 819 611 871 q 619 706 631 768 l 543 278 q 503 158 532 213 q 434 66 475 104 q 341 7 393 28 q 231 -14 289 -14 q 127 7 172 -14 q 55 66 82 28 q 18 158 28 104 q 21 278 8 213 l 96 706 m 164 172 q 238 24 139 24 q 361 172 336 24 l 472 800 q 400 947 497 947 q 320 909 353 947 q 275 800 288 871 l 164 172 m 303 1060 l 286 1071 q 404 1157 343 1157 q 443 1147 424 1157 l 478 1131 q 511 1121 496 1121 q 561 1157 539 1121 l 578 1147 q 463 1058 522 1058 q 418 1069 443 1058 l 393 1082 q 357 1093 371 1093 q 303 1060 328 1093 z "},"Ø":{"ha":639,"x_min":-18,"x_max":654,"o":"m 96 706 q 135 819 107 768 q 203 908 163 871 q 297 965 244 944 q 407 985 349 985 q 506 967 463 985 q 576 917 549 949 l 622 986 l 654 971 l 597 885 q 619 706 638 811 l 544 278 q 504 158 532 213 q 435 66 476 104 q 342 7 394 28 q 231 -14 290 -14 q 133 5 175 -14 q 63 58 90 24 l 14 -18 l -18 0 l 40 90 q 15 174 21 126 q 21 278 10 221 l 96 706 m 190 322 l 461 740 l 472 800 q 401 947 497 947 q 320 909 353 947 q 275 800 288 871 l 190 322 m 164 172 q 238 24 139 24 q 361 172 336 24 l 446 650 l 175 232 l 164 172 z "},"Ǿ":{"ha":639,"x_min":-18,"x_max":654,"o":"m 96 706 q 135 819 107 768 q 203 908 163 871 q 297 965 244 944 q 407 985 349 985 q 506 967 463 985 q 576 917 549 949 l 622 986 l 654 971 l 597 885 q 619 706 638 811 l 544 278 q 504 158 532 213 q 435 66 476 104 q 342 7 394 28 q 231 -14 290 -14 q 133 5 175 -14 q 63 58 90 24 l 14 -18 l -18 0 l 40 90 q 15 174 21 126 q 21 278 10 221 l 96 706 m 190 322 l 461 740 l 472 800 q 401 947 497 947 q 320 909 353 947 q 275 800 288 871 l 190 322 m 164 172 q 238 24 139 24 q 361 172 336 24 l 446 650 l 175 232 l 164 172 m 393 1028 l 463 1186 l 576 1186 l 419 1028 l 393 1028 z "},"Œ":{"ha":828,"x_min":13,"x_max":879,"o":"m 94 692 q 133 806 106 754 q 202 894 161 857 q 295 951 243 931 q 406 971 347 971 l 879 971 l 872 935 l 665 935 l 592 514 l 769 514 l 763 478 l 585 478 l 507 36 l 714 36 l 708 0 l 235 0 q 131 21 176 0 q 58 80 86 42 q 22 172 31 118 q 24 292 13 226 l 94 692 m 272 774 l 171 197 q 178 81 158 126 q 242 36 197 36 l 344 36 l 503 935 l 408 935 q 323 890 361 935 q 272 774 285 844 z "},"Ŕ":{"ha":621,"x_min":-21,"x_max":597,"o":"m 397 971 q 487 952 447 971 q 552 901 526 933 q 588 827 578 869 q 589 738 597 785 l 585 715 q 554 630 576 669 q 499 559 532 590 q 424 508 465 528 q 336 485 382 489 l 335 475 q 388 462 364 474 q 431 431 413 450 q 460 389 450 413 q 472 340 471 365 l 489 0 l 322 0 l 307 364 q 303 416 306 396 q 295 447 301 436 q 278 463 289 458 q 250 467 267 467 l 225 467 l 142 0 l -21 0 l 151 971 l 397 971 m 431 756 q 433 892 447 850 q 374 935 419 935 l 307 935 l 231 503 l 306 503 q 376 546 350 503 q 418 682 401 589 l 431 756 m 333 1028 l 403 1186 l 517 1186 l 360 1028 l 333 1028 z "},"Ř":{"ha":621,"x_min":-21,"x_max":597,"o":"m 397 971 q 487 952 447 971 q 552 901 526 933 q 588 827 578 869 q 589 738 597 785 l 585 715 q 554 630 576 669 q 499 559 532 590 q 424 508 465 528 q 336 485 382 489 l 335 475 q 388 462 364 474 q 431 431 413 450 q 460 389 450 413 q 472 340 471 365 l 489 0 l 322 0 l 307 364 q 303 416 306 396 q 295 447 301 436 q 278 463 289 458 q 250 467 267 467 l 225 467 l 142 0 l -21 0 l 151 971 l 397 971 m 431 756 q 433 892 447 850 q 374 935 419 935 l 307 935 l 231 503 l 306 503 q 376 546 350 503 q 418 682 401 589 l 431 756 m 272 1185 l 369 1117 l 493 1185 l 524 1185 l 365 1028 l 346 1028 l 242 1185 l 272 1185 z "},"Ŗ":{"ha":621,"x_min":-21,"x_max":597,"o":"m 397 971 q 487 952 447 971 q 552 901 526 933 q 588 827 578 869 q 589 738 597 785 l 585 715 q 554 630 576 669 q 499 559 532 590 q 424 508 465 528 q 336 485 382 489 l 335 475 q 388 462 364 474 q 431 431 413 450 q 460 389 450 413 q 472 340 471 365 l 489 0 l 322 0 l 307 364 q 303 416 306 396 q 295 447 301 436 q 278 463 289 458 q 250 467 267 467 l 225 467 l 142 0 l -21 0 l 151 971 l 397 971 m 431 756 q 433 892 447 850 q 374 935 419 935 l 307 935 l 231 503 l 306 503 q 376 546 350 503 q 418 682 401 589 l 431 756 m 233 -156 q 200 -162 213 -162 q 165 -149 178 -162 q 151 -112 151 -136 q 174 -61 151 -83 q 228 -39 196 -39 q 281 -107 281 -39 q 244 -205 281 -162 q 153 -254 208 -247 l 150 -235 q 210 -204 189 -225 q 233 -156 232 -183 z "},"Ŧ":{"ha":496,"x_min":46,"x_max":592,"o":"m 585 935 l 408 935 l 347 588 l 488 588 l 481 551 l 340 551 l 243 0 l 81 0 l 178 551 l 46 551 l 53 588 l 185 588 l 246 935 l 69 935 l 75 971 l 592 971 l 585 935 z "},"Ť":{"ha":496,"x_min":69,"x_max":592,"o":"m 585 935 l 408 935 l 243 0 l 81 0 l 246 935 l 69 935 l 75 971 l 592 971 l 585 935 m 260 1185 l 357 1117 l 481 1185 l 511 1185 l 353 1028 l 333 1028 l 229 1185 l 260 1185 z "},"Ț":{"ha":496,"x_min":69,"x_max":592,"o":"m 585 935 l 408 935 l 243 0 l 81 0 l 246 935 l 69 935 l 75 971 l 592 971 l 585 935 m 172 -153 q 139 -160 151 -160 q 103 -147 117 -160 q 90 -110 90 -133 q 113 -58 90 -81 q 167 -36 135 -36 q 219 -104 219 -36 q 183 -202 219 -160 q 92 -251 147 -244 l 89 -232 q 149 -201 128 -222 q 172 -153 171 -181 z "},"Ú":{"ha":585,"x_min":17,"x_max":613,"o":"m 314 971 l 175 190 q 185 73 161 115 q 264 31 208 31 q 380 88 331 31 q 446 240 429 144 l 575 971 l 613 971 l 483 242 q 394 53 461 119 q 224 -14 326 -14 q 126 7 168 -14 q 58 66 83 28 q 24 158 32 104 q 28 276 17 211 l 151 971 l 314 971 m 386 1028 l 456 1186 l 569 1186 l 413 1028 l 386 1028 z "},"Ŭ":{"ha":585,"x_min":17,"x_max":613,"o":"m 314 971 l 175 190 q 185 73 161 115 q 264 31 208 31 q 380 88 331 31 q 446 240 429 144 l 575 971 l 613 971 l 483 242 q 394 53 461 119 q 224 -14 326 -14 q 126 7 168 -14 q 58 66 83 28 q 24 158 32 104 q 28 276 17 211 l 151 971 l 314 971 m 531 1167 l 551 1167 q 501 1070 540 1108 q 408 1032 461 1032 q 328 1070 356 1032 q 310 1167 300 1108 l 331 1167 q 350 1117 325 1136 q 419 1097 375 1097 q 494 1116 463 1097 q 531 1167 525 1135 z "},"Û":{"ha":585,"x_min":17,"x_max":613,"o":"m 314 971 l 175 190 q 185 73 161 115 q 264 31 208 31 q 380 88 331 31 q 446 240 429 144 l 575 971 l 613 971 l 483 242 q 394 53 461 119 q 224 -14 326 -14 q 126 7 168 -14 q 58 66 83 28 q 24 158 32 104 q 28 276 17 211 l 151 971 l 314 971 m 431 1185 l 449 1185 l 553 1028 l 522 1028 l 422 1096 l 301 1028 l 269 1028 l 431 1185 z "},"Ü":{"ha":585,"x_min":17,"x_max":613,"o":"m 314 971 l 175 190 q 185 73 161 115 q 264 31 208 31 q 380 88 331 31 q 446 240 429 144 l 575 971 l 613 971 l 483 242 q 394 53 461 119 q 224 -14 326 -14 q 126 7 168 -14 q 58 66 83 28 q 24 158 32 104 q 28 276 17 211 l 151 971 l 314 971 m 271 1103 q 296 1145 275 1129 q 342 1161 317 1161 q 382 1145 367 1161 q 393 1103 397 1129 q 367 1060 389 1076 q 321 1043 346 1043 q 281 1060 296 1043 q 271 1103 267 1076 m 451 1103 q 478 1145 457 1129 q 522 1161 499 1161 q 565 1145 550 1161 q 574 1103 579 1129 q 549 1060 569 1076 q 501 1043 529 1043 q 463 1060 478 1043 q 451 1103 447 1076 z "},"Ù":{"ha":585,"x_min":17,"x_max":613,"o":"m 314 971 l 175 190 q 185 73 161 115 q 264 31 208 31 q 380 88 331 31 q 446 240 429 144 l 575 971 l 613 971 l 483 242 q 394 53 461 119 q 224 -14 326 -14 q 126 7 168 -14 q 58 66 83 28 q 24 158 32 104 q 28 276 17 211 l 151 971 l 314 971 m 404 1028 l 303 1186 l 417 1186 l 431 1028 l 404 1028 z "},"Ű":{"ha":585,"x_min":17,"x_max":647,"o":"m 314 971 l 175 190 q 185 73 161 115 q 264 31 208 31 q 380 88 331 31 q 446 240 429 144 l 575 971 l 613 971 l 483 242 q 394 53 461 119 q 224 -14 326 -14 q 126 7 168 -14 q 58 66 83 28 q 24 158 32 104 q 28 276 17 211 l 151 971 l 314 971 m 475 1028 l 544 1186 l 647 1186 l 501 1028 l 475 1028 m 319 1028 l 390 1186 l 493 1186 l 347 1028 l 319 1028 z "},"Ū":{"ha":585,"x_min":17,"x_max":613,"o":"m 314 971 l 175 190 q 185 73 161 115 q 264 31 208 31 q 380 88 331 31 q 446 240 429 144 l 575 971 l 613 971 l 483 242 q 394 53 461 119 q 224 -14 326 -14 q 126 7 168 -14 q 58 66 83 28 q 24 158 32 104 q 28 276 17 211 l 151 971 l 314 971 m 550 1085 l 292 1085 l 299 1121 l 556 1121 l 550 1085 z "},"Ų":{"ha":585,"x_min":17,"x_max":613,"o":"m 314 971 l 175 190 q 185 73 161 115 q 264 31 208 31 q 380 88 331 31 q 446 240 429 144 l 575 971 l 613 971 l 483 242 q 394 53 461 119 q 224 -14 326 -14 q 126 7 168 -14 q 58 66 83 28 q 24 158 32 104 q 28 276 17 211 l 151 971 l 314 971 m 354 -111 q 299 -174 331 -151 q 233 -196 267 -196 q 183 -178 203 -196 q 163 -132 163 -160 q 174 -93 163 -112 q 203 -56 185 -74 q 243 -24 221 -39 q 288 3 265 -8 l 311 3 q 256 -43 279 -14 q 232 -104 232 -72 q 242 -138 232 -125 q 269 -151 253 -151 q 336 -101 306 -151 l 354 -111 z "},"Ů":{"ha":585,"x_min":17,"x_max":613,"o":"m 314 971 l 175 190 q 185 73 161 115 q 264 31 208 31 q 380 88 331 31 q 446 240 429 144 l 575 971 l 613 971 l 483 242 q 394 53 461 119 q 224 -14 326 -14 q 126 7 168 -14 q 58 66 83 28 q 24 158 32 104 q 28 276 17 211 l 151 971 l 314 971 m 342 1111 q 375 1169 349 1146 q 436 1192 401 1192 q 491 1169 472 1192 q 504 1111 510 1146 q 470 1053 497 1076 q 408 1031 443 1031 q 354 1053 374 1031 q 342 1111 335 1076 m 369 1111 q 378 1074 365 1089 q 413 1058 390 1058 q 454 1074 436 1058 q 476 1111 472 1089 q 468 1149 481 1135 q 432 1164 456 1164 q 392 1149 410 1164 q 369 1111 374 1135 z "},"Ũ":{"ha":585,"x_min":17,"x_max":613,"o":"m 314 971 l 175 190 q 185 73 161 115 q 264 31 208 31 q 380 88 331 31 q 446 240 429 144 l 575 971 l 613 971 l 483 242 q 394 53 461 119 q 224 -14 326 -14 q 126 7 168 -14 q 58 66 83 28 q 24 158 32 104 q 28 276 17 211 l 151 971 l 314 971 m 294 1060 l 278 1071 q 396 1157 335 1157 q 435 1147 415 1157 l 469 1131 q 503 1121 488 1121 q 553 1157 531 1121 l 569 1147 q 454 1058 514 1058 q 410 1069 435 1058 l 385 1082 q 349 1093 363 1093 q 294 1060 319 1093 z "},"Ẃ":{"ha":707,"x_min":75,"x_max":800,"o":"m 532 390 l 529 335 l 539 335 l 556 390 l 763 971 l 800 971 l 454 0 l 383 0 l 368 478 l 369 533 l 360 533 l 343 478 l 172 0 l 103 0 l 75 971 l 235 971 l 250 390 l 249 335 l 258 335 l 274 390 l 364 646 l 356 971 l 515 971 l 532 390 m 411 1028 l 481 1186 l 594 1186 l 438 1028 l 411 1028 z "},"Ŵ":{"ha":707,"x_min":75,"x_max":800,"o":"m 532 390 l 529 335 l 539 335 l 556 390 l 763 971 l 800 971 l 454 0 l 383 0 l 368 478 l 369 533 l 360 533 l 343 478 l 172 0 l 103 0 l 75 971 l 235 971 l 250 390 l 249 335 l 258 335 l 274 390 l 364 646 l 356 971 l 515 971 l 532 390 m 456 1185 l 474 1185 l 578 1028 l 547 1028 l 447 1096 l 326 1028 l 294 1028 l 456 1185 z "},"Ẅ":{"ha":707,"x_min":75,"x_max":800,"o":"m 532 390 l 529 335 l 539 335 l 556 390 l 763 971 l 800 971 l 454 0 l 383 0 l 368 478 l 369 533 l 360 533 l 343 478 l 172 0 l 103 0 l 75 971 l 235 971 l 250 390 l 249 335 l 258 335 l 274 390 l 364 646 l 356 971 l 515 971 l 532 390 m 296 1103 q 321 1145 300 1129 q 367 1161 342 1161 q 407 1145 392 1161 q 418 1103 422 1129 q 392 1060 414 1076 q 346 1043 371 1043 q 306 1060 321 1043 q 296 1103 292 1076 m 476 1103 q 503 1145 482 1129 q 547 1161 524 1161 q 590 1145 575 1161 q 599 1103 604 1129 q 574 1060 594 1076 q 526 1043 554 1043 q 488 1060 503 1043 q 476 1103 472 1076 z "},"Ẁ":{"ha":707,"x_min":75,"x_max":800,"o":"m 532 390 l 529 335 l 539 335 l 556 390 l 763 971 l 800 971 l 454 0 l 383 0 l 368 478 l 369 533 l 360 533 l 343 478 l 172 0 l 103 0 l 75 971 l 235 971 l 250 390 l 249 335 l 258 335 l 274 390 l 364 646 l 356 971 l 515 971 l 532 390 m 429 1028 l 328 1186 l 442 1186 l 456 1028 l 429 1028 z "},"Ý":{"ha":486,"x_min":74,"x_max":581,"o":"m 314 578 l 321 522 l 331 522 l 353 578 l 540 969 l 581 969 l 333 456 l 254 0 l 92 0 l 169 440 l 74 969 l 244 969 l 314 578 m 350 1028 l 419 1186 l 533 1186 l 376 1028 l 350 1028 z "},"Ŷ":{"ha":486,"x_min":74,"x_max":581,"o":"m 314 578 l 321 522 l 331 522 l 353 578 l 540 969 l 581 969 l 333 456 l 254 0 l 92 0 l 169 440 l 74 969 l 244 969 l 314 578 m 394 1185 l 413 1185 l 517 1028 l 486 1028 l 386 1096 l 265 1028 l 233 1028 l 394 1185 z "},"Ỳ":{"ha":486,"x_min":74,"x_max":581,"o":"m 314 578 l 321 522 l 331 522 l 353 578 l 540 969 l 581 969 l 333 456 l 254 0 l 92 0 l 169 440 l 74 969 l 244 969 l 314 578 m 368 1028 l 267 1186 l 381 1186 l 394 1028 l 368 1028 z "},"Ź":{"ha":585,"x_min":-54,"x_max":617,"o":"m 161 935 l 168 971 l 617 971 l 611 935 l 124 36 l 472 36 l 465 0 l -54 0 l -47 36 l 440 935 l 161 935 m 372 1028 l 442 1186 l 556 1186 l 399 1028 l 372 1028 z "},"Ž":{"ha":585,"x_min":-54,"x_max":617,"o":"m 161 935 l 168 971 l 617 971 l 611 935 l 124 36 l 472 36 l 465 0 l -54 0 l -47 36 l 440 935 l 161 935 m 311 1185 l 408 1117 l 532 1185 l 563 1185 l 404 1028 l 385 1028 l 281 1185 l 311 1185 z "},"à":{"ha":532,"x_min":-15,"x_max":517,"o":"m 261 75 l 253 78 q 197 8 226 29 q 131 -12 168 -12 q 67 3 96 -12 q 19 45 39 18 q -8 108 0 72 q -8 182 -15 143 l 47 493 q 76 573 54 535 q 127 640 97 611 q 193 685 157 668 q 267 701 229 701 q 323 683 303 701 q 350 624 343 665 l 358 626 l 360 667 l 364 688 l 517 688 l 394 1 l 242 1 l 249 35 l 261 75 m 339 546 q 340 589 343 568 q 330 626 338 610 q 310 653 322 643 q 283 663 299 663 q 245 642 263 663 q 221 590 228 622 l 138 115 q 143 61 132 83 q 176 39 154 39 q 205 49 190 39 q 232 74 219 58 q 254 110 244 90 q 268 151 264 131 l 339 546 m 308 788 l 207 946 l 321 946 l 335 788 l 308 788 z "},"á":{"ha":532,"x_min":-15,"x_max":517,"o":"m 261 75 l 253 78 q 197 8 226 29 q 131 -12 168 -12 q 67 3 96 -12 q 19 45 39 18 q -8 108 0 72 q -8 182 -15 143 l 47 493 q 76 573 54 535 q 127 640 97 611 q 193 685 157 668 q 267 701 229 701 q 323 683 303 701 q 350 624 343 665 l 358 626 l 360 667 l 364 688 l 517 688 l 394 1 l 242 1 l 249 35 l 261 75 m 339 546 q 340 589 343 568 q 330 626 338 610 q 310 653 322 643 q 283 663 299 663 q 245 642 263 663 q 221 590 228 622 l 138 115 q 143 61 132 83 q 176 39 154 39 q 205 49 190 39 q 232 74 219 58 q 254 110 244 90 q 268 151 264 131 l 339 546 m 290 788 l 360 946 l 474 946 l 317 788 l 290 788 z "},"â":{"ha":532,"x_min":-15,"x_max":517,"o":"m 261 75 l 253 78 q 197 8 226 29 q 131 -12 168 -12 q 67 3 96 -12 q 19 45 39 18 q -8 108 0 72 q -8 182 -15 143 l 47 493 q 76 573 54 535 q 127 640 97 611 q 193 685 157 668 q 267 701 229 701 q 323 683 303 701 q 350 624 343 665 l 358 626 l 360 667 l 364 688 l 517 688 l 394 1 l 242 1 l 249 35 l 261 75 m 339 546 q 340 589 343 568 q 330 626 338 610 q 310 653 322 643 q 283 663 299 663 q 245 642 263 663 q 221 590 228 622 l 138 115 q 143 61 132 83 q 176 39 154 39 q 205 49 190 39 q 232 74 219 58 q 254 110 244 90 q 268 151 264 131 l 339 546 m 335 944 l 353 944 l 457 788 l 426 788 l 326 856 l 206 788 l 174 788 l 335 944 z "},"ã":{"ha":532,"x_min":-15,"x_max":517,"o":"m 261 75 l 253 78 q 197 8 226 29 q 131 -12 168 -12 q 67 3 96 -12 q 19 45 39 18 q -8 108 0 72 q -8 182 -15 143 l 47 493 q 76 573 54 535 q 127 640 97 611 q 193 685 157 668 q 267 701 229 701 q 323 683 303 701 q 350 624 343 665 l 358 626 l 360 667 l 364 688 l 517 688 l 394 1 l 242 1 l 249 35 l 261 75 m 339 546 q 340 589 343 568 q 330 626 338 610 q 310 653 322 643 q 283 663 299 663 q 245 642 263 663 q 221 590 228 622 l 138 115 q 143 61 132 83 q 176 39 154 39 q 205 49 190 39 q 232 74 219 58 q 254 110 244 90 q 268 151 264 131 l 339 546 m 199 819 l 182 831 q 300 917 239 917 q 339 907 319 917 l 374 890 q 407 881 392 881 q 457 917 435 881 l 474 907 q 358 818 418 818 q 314 829 339 818 l 289 842 q 253 853 267 853 q 199 819 224 853 z "},"å":{"ha":532,"x_min":-15,"x_max":517,"o":"m 261 75 l 253 78 q 197 8 226 29 q 131 -12 168 -12 q 67 3 96 -12 q 19 45 39 18 q -8 108 0 72 q -8 182 -15 143 l 47 493 q 76 573 54 535 q 127 640 97 611 q 193 685 157 668 q 267 701 229 701 q 323 683 303 701 q 350 624 343 665 l 358 626 l 360 667 l 364 688 l 517 688 l 394 1 l 242 1 l 249 35 l 261 75 m 339 546 q 340 589 343 568 q 330 626 338 610 q 310 653 322 643 q 283 663 299 663 q 245 642 263 663 q 221 590 228 622 l 138 115 q 143 61 132 83 q 176 39 154 39 q 205 49 190 39 q 232 74 219 58 q 254 110 244 90 q 268 151 264 131 l 339 546 m 246 871 q 279 928 253 906 q 340 951 306 951 q 395 928 376 951 q 408 871 414 906 q 374 813 401 836 q 313 790 347 790 q 258 813 278 790 q 246 871 239 836 m 274 871 q 282 833 269 849 q 317 818 294 818 q 358 833 340 818 q 381 871 376 849 q 372 909 385 894 q 336 924 360 924 q 296 909 314 924 q 274 871 278 894 z "},"ă":{"ha":532,"x_min":-15,"x_max":517,"o":"m 261 75 l 253 78 q 197 8 226 29 q 131 -12 168 -12 q 67 3 96 -12 q 19 45 39 18 q -8 108 0 72 q -8 182 -15 143 l 47 493 q 76 573 54 535 q 127 640 97 611 q 193 685 157 668 q 267 701 229 701 q 323 683 303 701 q 350 624 343 665 l 358 626 l 360 667 l 364 688 l 517 688 l 394 1 l 242 1 l 249 35 l 261 75 m 339 546 q 340 589 343 568 q 330 626 338 610 q 310 653 322 643 q 283 663 299 663 q 245 642 263 663 q 221 590 228 622 l 138 115 q 143 61 132 83 q 176 39 154 39 q 205 49 190 39 q 232 74 219 58 q 254 110 244 90 q 268 151 264 131 l 339 546 m 435 926 l 456 926 q 405 830 444 868 q 313 792 365 792 q 232 830 260 792 q 214 926 204 868 l 235 926 q 254 876 229 896 q 324 857 279 857 q 398 876 367 857 q 435 926 429 894 z "},"ā":{"ha":532,"x_min":-15,"x_max":517,"o":"m 261 75 l 253 78 q 197 8 226 29 q 131 -12 168 -12 q 67 3 96 -12 q 19 45 39 18 q -8 108 0 72 q -8 182 -15 143 l 47 493 q 76 573 54 535 q 127 640 97 611 q 193 685 157 668 q 267 701 229 701 q 323 683 303 701 q 350 624 343 665 l 358 626 l 360 667 l 364 688 l 517 688 l 394 1 l 242 1 l 249 35 l 261 75 m 339 546 q 340 589 343 568 q 330 626 338 610 q 310 653 322 643 q 283 663 299 663 q 245 642 263 663 q 221 590 228 622 l 138 115 q 143 61 132 83 q 176 39 154 39 q 205 49 190 39 q 232 74 219 58 q 254 110 244 90 q 268 151 264 131 l 339 546 m 454 844 l 196 844 l 203 881 l 460 881 l 454 844 z "},"ą":{"ha":532,"x_min":-15,"x_max":517,"o":"m 261 75 l 253 78 q 197 8 226 29 q 131 -12 168 -12 q 67 3 96 -12 q 19 45 39 18 q -8 108 0 72 q -8 182 -15 143 l 47 493 q 76 573 54 535 q 127 640 97 611 q 193 685 157 668 q 267 701 229 701 q 323 683 303 701 q 350 624 343 665 l 358 626 l 360 667 l 364 688 l 517 688 l 394 1 l 242 1 l 249 35 l 261 75 m 339 546 q 340 589 343 568 q 330 626 338 610 q 310 653 322 643 q 283 663 299 663 q 245 642 263 663 q 221 590 228 622 l 138 115 q 143 61 132 83 q 176 39 154 39 q 205 49 190 39 q 232 74 219 58 q 254 110 244 90 q 268 151 264 131 l 339 546 m 311 -111 q 256 -174 288 -151 q 190 -196 224 -196 q 140 -178 160 -196 q 119 -132 119 -160 q 131 -93 119 -112 q 160 -56 142 -74 q 200 -24 178 -39 q 244 3 222 -8 l 268 3 q 213 -43 236 -14 q 189 -104 189 -72 q 199 -138 189 -125 q 226 -151 210 -151 q 293 -101 263 -151 l 311 -111 z "},"ǽ":{"ha":781,"x_min":-42,"x_max":757,"o":"m 317 569 q 308 639 325 614 q 250 664 290 664 q 175 647 215 664 q 110 606 135 629 l 89 628 q 174 681 122 660 q 285 701 226 701 q 360 689 326 701 q 413 653 393 676 l 422 653 q 488 689 451 676 q 561 701 524 701 q 645 684 607 701 q 709 638 683 667 q 746 569 735 608 q 749 486 757 531 l 721 333 l 433 333 l 394 113 q 411 47 388 72 q 479 22 435 22 q 578 55 529 22 q 656 139 628 88 l 685 126 q 584 24 646 60 q 447 -12 522 -12 q 328 21 375 -12 q 267 115 281 54 l 257 115 q 176 24 228 60 q 75 -12 125 -12 q -12 30 18 -12 q -31 136 -42 72 l -18 204 q 71 336 -3 288 q 289 407 144 385 l 317 569 m 478 586 l 440 367 l 569 367 l 608 585 q 600 642 615 618 q 558 667 585 667 q 508 642 532 667 q 478 586 485 618 m 157 56 q 206 78 178 56 q 253 136 233 101 q 253 199 247 168 l 285 388 q 228 369 251 379 q 188 342 204 358 q 163 301 172 325 q 146 243 153 278 l 125 128 q 128 76 119 96 q 157 56 138 56 m 429 788 l 499 946 l 613 946 l 456 788 l 429 788 z "},"æ":{"ha":803,"x_min":-17,"x_max":776,"o":"m 46 493 q 74 573 53 535 q 126 640 96 611 q 191 685 156 668 q 264 701 226 701 q 332 670 311 701 q 353 564 353 639 l 361 564 q 454 665 394 628 q 581 701 514 701 q 665 684 626 701 q 728 638 703 667 q 765 569 754 608 q 768 485 776 529 l 742 333 l 454 333 l 417 117 q 433 49 410 75 q 500 22 456 22 q 599 54 550 22 q 676 139 647 86 l 706 126 q 604 24 667 60 q 469 -12 542 -12 q 343 24 394 -12 q 281 122 292 60 l 271 122 q 210 22 247 57 q 124 -12 172 -12 q 63 3 90 -12 q 17 44 35 18 q -9 106 -1 71 q -10 181 -17 142 l 46 493 m 590 367 l 629 585 q 620 642 635 618 q 579 667 606 667 q 529 642 553 667 q 499 586 506 618 l 461 367 l 590 367 m 136 117 q 142 63 131 85 q 174 40 153 40 q 227 72 200 40 q 271 153 254 104 q 274 201 269 174 l 324 488 q 340 536 328 511 q 326 627 342 593 q 282 661 310 661 q 242 640 260 661 q 219 588 225 619 l 136 117 z "},"Ÿ":{"ha":486,"x_min":74,"x_max":581,"o":"m 314 578 l 321 522 l 331 522 l 353 578 l 540 969 l 581 969 l 333 456 l 254 0 l 92 0 l 169 440 l 74 969 l 244 969 l 314 578 m 235 1103 q 260 1145 239 1129 q 306 1161 281 1161 q 346 1145 331 1161 q 357 1103 361 1129 q 331 1060 353 1076 q 285 1043 310 1043 q 245 1060 260 1043 q 235 1103 231 1076 m 415 1103 q 442 1145 421 1129 q 486 1161 463 1161 q 528 1145 514 1161 q 538 1103 543 1129 q 513 1060 533 1076 q 465 1043 493 1043 q 426 1060 442 1043 q 415 1103 411 1076 z "},"ć":{"ha":460,"x_min":-12,"x_max":482,"o":"m 42 476 q 74 566 50 525 q 133 637 99 607 q 212 683 168 667 q 303 700 256 700 q 397 681 354 700 q 468 629 440 663 l 439 606 q 386 647 419 631 q 319 664 353 664 q 251 639 279 664 q 217 569 224 614 l 139 129 q 153 53 131 81 q 219 25 175 25 q 310 51 264 25 q 381 117 356 76 l 408 103 q 314 17 372 49 q 186 -14 256 -14 q 97 3 136 -14 q 32 49 57 19 q -3 121 7 79 q -4 211 -12 163 l 42 476 m 299 788 l 368 946 l 482 946 l 325 788 l 299 788 z "},"č":{"ha":460,"x_min":-12,"x_max":489,"o":"m 42 476 q 74 566 50 525 q 133 637 99 607 q 212 683 168 667 q 303 700 256 700 q 397 681 354 700 q 468 629 440 663 l 439 606 q 386 647 419 631 q 319 664 353 664 q 251 639 279 664 q 217 569 224 614 l 139 129 q 153 53 131 81 q 219 25 175 25 q 310 51 264 25 q 381 117 356 76 l 408 103 q 314 17 372 49 q 186 -14 256 -14 q 97 3 136 -14 q 32 49 57 19 q -3 121 7 79 q -4 211 -12 163 l 42 476 m 238 944 l 335 876 l 458 944 l 489 944 l 331 788 l 311 788 l 207 944 l 238 944 z "},"ç":{"ha":460,"x_min":-12,"x_max":468,"o":"m 42 476 q 74 566 50 525 q 133 637 99 607 q 212 683 168 667 q 303 700 256 700 q 397 681 354 700 q 468 629 440 663 l 439 606 q 386 647 419 631 q 319 664 353 664 q 251 639 279 664 q 217 569 224 614 l 139 129 q 153 53 131 81 q 219 25 175 25 q 310 51 264 25 q 381 117 356 76 l 408 103 q 314 17 372 49 q 186 -14 256 -14 q 97 3 136 -14 q 32 49 57 19 q -3 121 7 79 q -4 211 -12 163 l 42 476 m 94 -125 q 126 -149 106 -139 q 167 -158 147 -158 q 201 -147 186 -158 q 215 -117 215 -136 q 143 -68 215 -76 l 185 1 l 206 1 l 181 -44 q 260 -66 229 -47 q 292 -117 292 -85 q 259 -170 292 -151 q 186 -189 226 -189 q 122 -176 151 -189 q 78 -140 93 -164 l 94 -125 z "},"ĉ":{"ha":460,"x_min":-12,"x_max":468,"o":"m 42 476 q 74 566 50 525 q 133 637 99 607 q 212 683 168 667 q 303 700 256 700 q 397 681 354 700 q 468 629 440 663 l 439 606 q 386 647 419 631 q 319 664 353 664 q 251 639 279 664 q 217 569 224 614 l 139 129 q 153 53 131 81 q 219 25 175 25 q 310 51 264 25 q 381 117 356 76 l 408 103 q 314 17 372 49 q 186 -14 256 -14 q 97 3 136 -14 q 32 49 57 19 q -3 121 7 79 q -4 211 -12 163 l 42 476 m 343 944 l 361 944 l 465 788 l 435 788 l 335 856 l 214 788 l 182 788 l 343 944 z "},"ď":{"ha":532,"x_min":-17,"x_max":751,"o":"m 260 75 l 251 78 q 195 8 225 29 q 128 -12 165 -12 q 65 3 93 -12 q 17 45 36 18 q -9 108 -1 72 q -10 182 -17 143 l 44 493 q 73 573 51 535 q 124 640 94 611 q 190 685 154 668 q 264 701 226 701 q 320 683 300 701 q 347 624 340 665 l 357 626 l 357 667 l 411 971 l 564 971 l 392 1 l 240 1 l 246 35 l 260 75 m 593 815 l 649 971 l 751 971 l 619 815 l 593 815 m 336 546 q 338 589 340 568 q 327 626 335 610 q 308 653 319 643 q 282 663 296 663 q 243 642 261 663 q 219 590 225 622 l 135 115 q 140 61 129 83 q 174 39 151 39 q 202 49 188 39 q 230 74 217 58 q 253 110 243 90 q 267 151 263 131 l 336 546 z "},"đ":{"ha":532,"x_min":-17,"x_max":592,"o":"m 261 75 l 253 78 q 196 8 225 29 q 129 -12 167 -12 q 66 3 94 -12 q 18 45 38 18 q -9 108 -1 72 q -10 182 -17 143 l 46 493 q 74 573 53 535 q 126 640 96 611 q 192 685 156 668 q 265 701 228 701 q 322 683 301 701 q 349 624 342 665 l 357 626 l 358 667 l 413 971 l 565 971 l 393 1 l 242 1 l 247 35 l 261 75 m 338 546 q 339 589 342 568 q 328 626 336 610 q 309 653 321 643 q 283 663 297 663 q 244 642 261 663 q 221 590 226 622 l 136 115 q 142 61 131 83 q 175 39 153 39 q 203 49 189 39 q 231 74 218 58 q 254 110 244 90 q 268 151 264 131 l 338 546 m 282 822 l 592 822 l 585 789 l 276 789 l 282 822 z "},"é":{"ha":524,"x_min":-15,"x_max":497,"o":"m 44 486 q 76 569 51 531 q 135 638 100 608 q 214 683 171 667 q 303 700 257 700 q 385 683 347 700 q 449 636 422 665 q 486 569 475 607 q 490 488 497 531 l 463 333 l 174 333 l 136 117 q 153 49 129 75 q 221 22 176 22 q 319 54 271 22 q 396 139 368 86 l 425 126 q 324 24 386 60 q 189 -12 263 -12 q 101 4 140 -12 q 35 49 61 21 q -3 117 8 78 q -7 199 -15 156 l 44 486 m 311 367 l 349 582 q 342 642 356 618 q 300 667 328 667 q 249 642 272 667 q 218 582 225 618 l 181 367 l 311 367 m 292 788 l 361 946 l 475 946 l 318 788 l 292 788 z "},"ĕ":{"ha":524,"x_min":-15,"x_max":497,"o":"m 44 486 q 76 569 51 531 q 135 638 100 608 q 214 683 171 667 q 303 700 257 700 q 385 683 347 700 q 449 636 422 665 q 486 569 475 607 q 490 488 497 531 l 463 333 l 174 333 l 136 117 q 153 49 129 75 q 221 22 176 22 q 319 54 271 22 q 396 139 368 86 l 425 126 q 324 24 386 60 q 189 -12 263 -12 q 101 4 140 -12 q 35 49 61 21 q -3 117 8 78 q -7 199 -15 156 l 44 486 m 311 367 l 349 582 q 342 642 356 618 q 300 667 328 667 q 249 642 272 667 q 218 582 225 618 l 181 367 l 311 367 m 436 926 l 457 926 q 406 830 446 868 q 314 792 367 792 q 233 830 261 792 q 215 926 206 868 l 236 926 q 256 876 231 896 q 325 857 281 857 q 399 876 368 857 q 436 926 431 894 z "},"ě":{"ha":524,"x_min":-15,"x_max":497,"o":"m 44 486 q 76 569 51 531 q 135 638 100 608 q 214 683 171 667 q 303 700 257 700 q 385 683 347 700 q 449 636 422 665 q 486 569 475 607 q 490 488 497 531 l 463 333 l 174 333 l 136 117 q 153 49 129 75 q 221 22 176 22 q 319 54 271 22 q 396 139 368 86 l 425 126 q 324 24 386 60 q 189 -12 263 -12 q 101 4 140 -12 q 35 49 61 21 q -3 117 8 78 q -7 199 -15 156 l 44 486 m 311 367 l 349 582 q 342 642 356 618 q 300 667 328 667 q 249 642 272 667 q 218 582 225 618 l 181 367 l 311 367 m 232 944 l 329 876 l 453 944 l 483 944 l 325 788 l 306 788 l 201 944 l 232 944 z "},"ê":{"ha":524,"x_min":-15,"x_max":497,"o":"m 44 486 q 76 569 51 531 q 135 638 100 608 q 214 683 171 667 q 303 700 257 700 q 385 683 347 700 q 449 636 422 665 q 486 569 475 607 q 490 488 497 531 l 463 333 l 174 333 l 136 117 q 153 49 129 75 q 221 22 176 22 q 319 54 271 22 q 396 139 368 86 l 425 126 q 324 24 386 60 q 189 -12 263 -12 q 101 4 140 -12 q 35 49 61 21 q -3 117 8 78 q -7 199 -15 156 l 44 486 m 311 367 l 349 582 q 342 642 356 618 q 300 667 328 667 q 249 642 272 667 q 218 582 225 618 l 181 367 l 311 367 m 338 944 l 356 944 l 460 788 l 429 788 l 329 856 l 208 788 l 176 788 l 338 944 z "},"ë":{"ha":524,"x_min":-15,"x_max":497,"o":"m 44 486 q 76 569 51 531 q 135 638 100 608 q 214 683 171 667 q 303 700 257 700 q 385 683 347 700 q 449 636 422 665 q 486 569 475 607 q 490 488 497 531 l 463 333 l 174 333 l 136 117 q 153 49 129 75 q 221 22 176 22 q 319 54 271 22 q 396 139 368 86 l 425 126 q 324 24 386 60 q 189 -12 263 -12 q 101 4 140 -12 q 35 49 61 21 q -3 117 8 78 q -7 199 -15 156 l 44 486 m 311 367 l 349 582 q 342 642 356 618 q 300 667 328 667 q 249 642 272 667 q 218 582 225 618 l 181 367 l 311 367 m 178 863 q 203 905 182 889 q 249 921 224 921 q 289 905 274 921 q 300 863 304 889 q 274 819 296 836 q 228 803 253 803 q 188 819 203 803 q 178 863 174 836 m 358 863 q 385 905 364 889 q 429 921 406 921 q 472 905 457 921 q 481 863 486 889 q 456 819 476 836 q 408 803 436 803 q 369 819 385 803 q 358 863 354 836 z "},"è":{"ha":524,"x_min":-15,"x_max":497,"o":"m 44 486 q 76 569 51 531 q 135 638 100 608 q 214 683 171 667 q 303 700 257 700 q 385 683 347 700 q 449 636 422 665 q 486 569 475 607 q 490 488 497 531 l 463 333 l 174 333 l 136 117 q 153 49 129 75 q 221 22 176 22 q 319 54 271 22 q 396 139 368 86 l 425 126 q 324 24 386 60 q 189 -12 263 -12 q 101 4 140 -12 q 35 49 61 21 q -3 117 8 78 q -7 199 -15 156 l 44 486 m 311 367 l 349 582 q 342 642 356 618 q 300 667 328 667 q 249 642 272 667 q 218 582 225 618 l 181 367 l 311 367 m 311 788 l 210 946 l 324 946 l 338 788 l 311 788 z "},"ē":{"ha":524,"x_min":-15,"x_max":497,"o":"m 44 486 q 76 569 51 531 q 135 638 100 608 q 214 683 171 667 q 303 700 257 700 q 385 683 347 700 q 449 636 422 665 q 486 569 475 607 q 490 488 497 531 l 463 333 l 174 333 l 136 117 q 153 49 129 75 q 221 22 176 22 q 319 54 271 22 q 396 139 368 86 l 425 126 q 324 24 386 60 q 189 -12 263 -12 q 101 4 140 -12 q 35 49 61 21 q -3 117 8 78 q -7 199 -15 156 l 44 486 m 311 367 l 349 582 q 342 642 356 618 q 300 667 328 667 q 249 642 272 667 q 218 582 225 618 l 181 367 l 311 367 m 457 844 l 199 844 l 206 881 l 463 881 l 457 844 z "},"ę":{"ha":524,"x_min":-15,"x_max":497,"o":"m 44 486 q 76 569 51 531 q 135 638 100 608 q 214 683 171 667 q 303 700 257 700 q 385 683 347 700 q 449 636 422 665 q 486 569 475 607 q 490 488 497 531 l 463 333 l 174 333 l 136 117 q 153 49 129 75 q 221 22 176 22 q 319 54 271 22 q 396 139 368 86 l 425 126 q 324 24 386 60 q 189 -12 263 -12 q 101 4 140 -12 q 35 49 61 21 q -3 117 8 78 q -7 199 -15 156 l 44 486 m 311 367 l 349 582 q 342 642 356 618 q 300 667 328 667 q 249 642 272 667 q 218 582 225 618 l 181 367 l 311 367 m 318 -111 q 263 -174 294 -151 q 197 -196 231 -196 q 147 -178 167 -196 q 126 -132 126 -160 q 138 -93 126 -112 q 167 -56 149 -74 q 207 -24 185 -39 q 251 3 229 -8 l 275 3 q 219 -43 243 -14 q 196 -104 196 -72 q 206 -138 196 -125 q 233 -151 217 -151 q 300 -101 269 -151 l 318 -111 z "},"ğ":{"ha":532,"x_min":-54,"x_max":515,"o":"m 358 667 l 363 688 l 515 688 l 383 -53 q 352 -128 376 -93 q 291 -188 328 -162 q 208 -228 254 -214 q 113 -243 163 -243 q -54 -172 4 -243 l -26 -147 q 29 -190 -3 -175 q 94 -206 61 -206 q 181 -171 146 -206 q 228 -76 217 -136 l 247 35 l 260 75 l 253 78 q 196 8 225 29 q 129 -12 167 -12 q 66 3 94 -12 q 18 45 38 18 q -9 108 -1 72 q -10 182 -17 143 l 46 493 q 74 573 53 535 q 126 640 96 611 q 192 685 156 668 q 265 701 228 701 q 322 683 301 701 q 349 624 342 665 l 357 626 l 358 667 m 138 115 q 142 61 131 83 q 175 39 153 39 q 203 49 189 39 q 231 74 218 58 q 254 110 244 90 q 268 151 264 131 l 338 546 q 339 589 342 568 q 328 626 336 610 q 309 653 321 643 q 283 663 297 663 q 244 642 261 663 q 221 590 226 622 l 138 115 m 435 926 l 456 926 q 405 830 444 868 q 313 792 365 792 q 232 830 260 792 q 214 926 204 868 l 235 926 q 254 876 229 896 q 324 857 279 857 q 398 876 367 857 q 435 926 429 894 z "},"ĝ":{"ha":532,"x_min":-54,"x_max":515,"o":"m 358 667 l 363 688 l 515 688 l 383 -53 q 352 -128 376 -93 q 291 -188 328 -162 q 208 -228 254 -214 q 113 -243 163 -243 q -54 -172 4 -243 l -26 -147 q 29 -190 -3 -175 q 94 -206 61 -206 q 181 -171 146 -206 q 228 -76 217 -136 l 247 35 l 260 75 l 253 78 q 196 8 225 29 q 129 -12 167 -12 q 66 3 94 -12 q 18 45 38 18 q -9 108 -1 72 q -10 182 -17 143 l 46 493 q 74 573 53 535 q 126 640 96 611 q 192 685 156 668 q 265 701 228 701 q 322 683 301 701 q 349 624 342 665 l 357 626 l 358 667 m 138 115 q 142 61 131 83 q 175 39 153 39 q 203 49 189 39 q 231 74 218 58 q 254 110 244 90 q 268 151 264 131 l 338 546 q 339 589 342 568 q 328 626 336 610 q 309 653 321 643 q 283 663 297 663 q 244 642 261 663 q 221 590 226 622 l 138 115 m 335 944 l 353 944 l 457 788 l 426 788 l 326 856 l 206 788 l 174 788 l 335 944 z "},"ġ":{"ha":532,"x_min":-54,"x_max":515,"o":"m 358 667 l 363 688 l 515 688 l 383 -53 q 352 -128 376 -93 q 291 -188 328 -162 q 208 -228 254 -214 q 113 -243 163 -243 q -54 -172 4 -243 l -26 -147 q 29 -190 -3 -175 q 94 -206 61 -206 q 181 -171 146 -206 q 228 -76 217 -136 l 247 35 l 260 75 l 253 78 q 196 8 225 29 q 129 -12 167 -12 q 66 3 94 -12 q 18 45 38 18 q -9 108 -1 72 q -10 182 -17 143 l 46 493 q 74 573 53 535 q 126 640 96 611 q 192 685 156 668 q 265 701 228 701 q 322 683 301 701 q 349 624 342 665 l 357 626 l 358 667 m 138 115 q 142 61 131 83 q 175 39 153 39 q 203 49 189 39 q 231 74 218 58 q 254 110 244 90 q 268 151 264 131 l 338 546 q 339 589 342 568 q 328 626 336 610 q 309 653 321 643 q 283 663 297 663 q 244 642 261 663 q 221 590 226 622 l 138 115 m 265 861 q 290 904 269 888 q 336 921 310 921 q 377 904 363 921 q 388 863 392 888 q 363 819 383 836 q 315 803 342 803 q 275 819 289 803 q 265 861 261 836 z "},"ģ":{"ha":532,"x_min":-54,"x_max":515,"o":"m 358 667 l 363 688 l 515 688 l 383 -53 q 352 -128 376 -93 q 291 -188 328 -162 q 208 -228 254 -214 q 113 -243 163 -243 q -54 -172 4 -243 l -26 -147 q 29 -190 -3 -175 q 94 -206 61 -206 q 181 -171 146 -206 q 228 -76 217 -136 l 247 35 l 260 75 l 253 78 q 196 8 225 29 q 129 -12 167 -12 q 66 3 94 -12 q 18 45 38 18 q -9 108 -1 72 q -10 182 -17 143 l 46 493 q 74 573 53 535 q 126 640 96 611 q 192 685 156 668 q 265 701 228 701 q 322 683 301 701 q 349 624 342 665 l 357 626 l 358 667 m 138 115 q 142 61 131 83 q 175 39 153 39 q 203 49 189 39 q 231 74 218 58 q 254 110 244 90 q 268 151 264 131 l 338 546 q 339 589 342 568 q 328 626 336 610 q 309 653 321 643 q 283 663 297 663 q 244 642 261 663 q 221 590 226 622 l 138 115 m 306 892 q 338 900 325 900 q 372 887 358 900 q 385 851 385 874 q 363 802 385 824 q 313 781 342 781 q 260 846 260 781 q 295 940 260 899 q 383 990 331 982 l 386 971 q 306 892 308 949 z "},"ħ":{"ha":544,"x_min":-29,"x_max":522,"o":"m 229 592 q 298 675 264 650 q 379 700 332 700 q 484 659 446 700 q 511 556 522 618 l 414 0 l 251 0 l 356 590 q 332 657 368 657 q 298 644 317 657 q 262 610 279 631 q 231 563 244 589 q 214 514 218 538 l 124 0 l -29 0 l 142 971 l 293 971 l 235 635 l 221 594 l 229 592 m 72 825 l 382 825 l 375 792 l 67 792 l 72 825 z "},"ĥ":{"ha":544,"x_min":-29,"x_max":558,"o":"m 229 592 q 298 675 264 650 q 379 700 332 700 q 484 659 446 700 q 511 556 522 618 l 414 0 l 251 0 l 356 590 q 332 657 368 657 q 298 644 317 657 q 262 610 279 631 q 231 563 244 589 q 214 514 218 538 l 124 0 l -29 0 l 142 971 l 293 971 l 235 635 l 221 594 l 229 592 m 436 1157 l 454 1157 l 558 1000 l 528 1000 l 428 1068 l 307 1000 l 275 1000 l 436 1157 z "},"í":{"ha":282,"x_min":-21,"x_max":354,"o":"m 253 688 l 132 0 l -21 0 l 100 688 l 253 688 m 171 788 l 240 946 l 354 946 l 197 788 l 171 788 z "},"ĭ":{"ha":282,"x_min":-21,"x_max":336,"o":"m 253 688 l 132 0 l -21 0 l 100 688 l 253 688 m 315 926 l 336 926 q 285 830 325 868 q 193 792 246 792 q 113 830 140 792 q 94 926 85 868 l 115 926 q 135 876 110 896 q 204 857 160 857 q 278 876 247 857 q 315 926 310 894 z "},"î":{"ha":282,"x_min":-21,"x_max":338,"o":"m 253 688 l 132 0 l -21 0 l 100 688 l 253 688 m 215 944 l 233 944 l 338 788 l 307 788 l 207 856 l 86 788 l 54 788 l 215 944 z "},"ï":{"ha":282,"x_min":-21,"x_max":364,"o":"m 253 688 l 132 0 l -21 0 l 100 688 l 253 688 m 56 863 q 81 905 60 889 q 126 921 101 921 q 167 905 151 921 q 178 863 182 889 q 152 819 174 836 q 106 803 131 803 q 66 819 81 803 q 56 863 51 836 m 236 863 q 263 905 242 889 q 307 921 283 921 q 349 905 335 921 q 358 863 364 889 q 334 819 354 836 q 286 803 314 803 q 247 819 263 803 q 236 863 232 836 z "},"ì":{"ha":282,"x_min":-21,"x_max":253,"o":"m 253 688 l 132 0 l -21 0 l 100 688 l 253 688 m 189 788 l 88 946 l 201 946 l 215 788 l 189 788 z "},"ī":{"ha":282,"x_min":-21,"x_max":340,"o":"m 253 688 l 132 0 l -21 0 l 100 688 l 253 688 m 335 844 l 76 844 l 83 881 l 340 881 l 335 844 z "},"į":{"ha":283,"x_min":-71,"x_max":304,"o":"m 121 860 q 157 922 128 897 q 224 946 186 946 q 283 922 263 946 q 297 860 304 897 q 261 798 290 824 q 193 772 232 772 q 135 798 156 772 q 121 860 114 824 m 253 688 l 132 0 l -21 0 l 100 688 l 253 688 m 121 -111 q 65 -174 97 -151 q 0 -196 33 -196 q -51 -178 -31 -196 q -71 -132 -71 -160 q -60 -93 -71 -112 q -31 -56 -49 -74 q 10 -24 -12 -39 q 54 3 32 -8 l 78 3 q 22 -43 46 -14 q -1 -104 -1 -72 q 9 -138 -1 -125 q 36 -151 19 -151 q 103 -101 72 -151 l 121 -111 z "},"ĩ":{"ha":282,"x_min":-21,"x_max":354,"o":"m 253 688 l 132 0 l -21 0 l 100 688 l 253 688 m 79 819 l 63 831 q 181 917 119 917 q 219 907 200 917 l 254 890 q 288 881 272 881 q 338 917 315 881 l 354 907 q 239 818 299 818 q 194 829 219 818 l 169 842 q 133 853 147 853 q 79 819 104 853 z "},"ı":{"ha":282,"x_min":-21,"x_max":253,"o":"m 253 688 l 132 0 l -21 0 l 100 688 l 253 688 z "},"ĵ":{"ha":325,"x_min":-86,"x_max":376,"o":"m 186 51 q 160 -33 178 6 q 111 -108 142 -72 q 35 -176 81 -143 q -74 -243 -11 -208 l -86 -221 q -52 -194 -68 -207 q -23 -162 -36 -181 q 0 -121 -10 -144 q 15 -64 10 -97 l 147 688 l 297 688 l 186 51 m 254 944 l 272 944 l 376 788 l 346 788 l 246 856 l 125 788 l 93 788 l 254 944 z "},"ķ":{"ha":551,"x_min":-31,"x_max":510,"o":"m 121 0 l -31 0 l 140 971 l 292 971 l 121 0 m 338 504 l 471 0 l 313 0 l 224 410 l 226 432 l 468 688 l 510 688 l 338 504 m 221 -156 q 188 -162 200 -162 q 152 -149 165 -162 q 139 -112 139 -136 q 161 -61 139 -83 q 215 -39 183 -39 q 268 -107 268 -39 q 232 -205 268 -162 q 140 -254 196 -247 l 138 -235 q 198 -204 176 -225 q 221 -156 219 -183 z "},"ĸ":{"ha":550,"x_min":-29,"x_max":511,"o":"m 244 688 l 122 0 l -29 0 l 92 688 l 244 688 m 340 507 l 472 0 l 315 0 l 225 410 l 228 432 l 469 688 l 511 688 l 340 507 z "},"ĺ":{"ha":251,"x_min":-32,"x_max":386,"o":"m 142 971 l 292 971 l 119 0 l -32 0 l 142 971 m 203 1028 l 272 1186 l 386 1186 l 229 1028 l 203 1028 z "},"ľ":{"ha":258,"x_min":-32,"x_max":478,"o":"m 142 971 l 292 971 l 119 0 l -32 0 l 142 971 m 347 814 l 319 814 l 375 971 l 478 971 l 347 814 z "},"ł":{"ha":251,"x_min":-32,"x_max":292,"o":"m 51 469 l 0 444 l -11 476 l 60 510 l 142 971 l 292 971 l 224 589 l 276 614 l 288 582 l 215 547 l 119 0 l -32 0 l 51 469 z "},"ń":{"ha":540,"x_min":-33,"x_max":519,"o":"m 226 592 q 295 675 261 650 q 376 700 329 700 q 481 659 443 700 q 508 556 519 618 l 410 0 l 247 0 l 351 590 q 329 657 364 657 q 294 644 314 657 q 258 610 275 631 q 227 563 240 589 q 210 514 214 538 l 119 0 l -33 0 l 88 688 l 240 688 l 231 635 l 218 594 l 226 592 m 296 788 l 365 946 l 479 946 l 322 788 l 296 788 z "},"ň":{"ha":540,"x_min":-33,"x_max":519,"o":"m 226 592 q 295 675 261 650 q 376 700 329 700 q 481 659 443 700 q 508 556 519 618 l 410 0 l 247 0 l 351 590 q 329 657 364 657 q 294 644 314 657 q 258 610 275 631 q 227 563 240 589 q 210 514 214 538 l 119 0 l -33 0 l 88 688 l 240 688 l 231 635 l 218 594 l 226 592 m 236 944 l 333 876 l 457 944 l 488 944 l 329 788 l 310 788 l 206 944 l 236 944 z "},"ņ":{"ha":540,"x_min":-33,"x_max":519,"o":"m 226 592 q 295 675 261 650 q 376 700 329 700 q 481 659 443 700 q 508 556 519 618 l 410 0 l 247 0 l 351 590 q 329 657 364 657 q 294 644 314 657 q 258 610 275 631 q 227 563 240 589 q 210 514 214 538 l 119 0 l -33 0 l 88 688 l 240 688 l 231 635 l 218 594 l 226 592 m 192 -156 q 158 -162 171 -162 q 123 -149 136 -162 q 110 -112 110 -136 q 132 -61 110 -83 q 186 -39 154 -39 q 239 -107 239 -39 q 203 -205 239 -162 q 111 -254 167 -247 l 108 -235 q 169 -204 147 -225 q 192 -156 190 -183 z "},"ñ":{"ha":540,"x_min":-33,"x_max":519,"o":"m 226 592 q 295 675 261 650 q 376 700 329 700 q 481 659 443 700 q 508 556 519 618 l 410 0 l 247 0 l 351 590 q 329 657 364 657 q 294 644 314 657 q 258 610 275 631 q 227 563 240 589 q 210 514 214 538 l 119 0 l -33 0 l 88 688 l 240 688 l 231 635 l 218 594 l 226 592 m 206 819 l 189 831 q 307 917 246 917 q 346 907 326 917 l 381 890 q 414 881 399 881 q 464 917 442 881 l 481 907 q 365 818 425 818 q 321 829 346 818 l 296 842 q 260 853 274 853 q 206 819 231 853 z "},"ŀ":{"ha":410,"x_min":-32,"x_max":408,"o":"m 142 971 l 292 971 l 119 0 l -32 0 l 142 971 m 268 506 q 296 553 274 533 q 347 572 318 572 q 392 553 376 572 q 403 504 408 533 q 374 456 397 476 q 324 436 351 436 q 278 456 294 436 q 268 506 263 476 z "},"ó":{"ha":536,"x_min":-15,"x_max":497,"o":"m 301 701 q 385 684 347 701 q 449 638 422 667 q 486 569 475 608 q 490 489 497 531 l 439 199 q 407 117 431 156 q 348 49 383 78 q 270 3 313 19 q 182 -14 228 -14 q 99 3 136 -14 q 35 50 61 21 q -3 117 8 79 q -7 199 -15 156 l 43 489 q 76 571 51 532 q 135 639 100 610 q 214 685 171 668 q 301 701 257 701 m 300 667 q 249 642 272 667 q 218 582 225 618 l 133 104 q 142 44 126 68 q 186 21 157 21 q 236 44 214 21 q 265 104 258 68 l 349 582 q 342 643 356 619 q 300 667 328 667 m 290 788 l 360 946 l 474 946 l 317 788 l 290 788 z "},"ŏ":{"ha":536,"x_min":-15,"x_max":497,"o":"m 301 701 q 385 684 347 701 q 449 638 422 667 q 486 569 475 608 q 490 489 497 531 l 439 199 q 407 117 431 156 q 348 49 383 78 q 270 3 313 19 q 182 -14 228 -14 q 99 3 136 -14 q 35 50 61 21 q -3 117 8 79 q -7 199 -15 156 l 43 489 q 76 571 51 532 q 135 639 100 610 q 214 685 171 668 q 301 701 257 701 m 300 667 q 249 642 272 667 q 218 582 225 618 l 133 104 q 142 44 126 68 q 186 21 157 21 q 236 44 214 21 q 265 104 258 68 l 349 582 q 342 643 356 619 q 300 667 328 667 m 435 926 l 456 926 q 405 830 444 868 q 313 792 365 792 q 232 830 260 792 q 214 926 204 868 l 235 926 q 254 876 229 896 q 324 857 279 857 q 398 876 367 857 q 435 926 429 894 z "},"ô":{"ha":536,"x_min":-15,"x_max":497,"o":"m 301 701 q 385 684 347 701 q 449 638 422 667 q 486 569 475 608 q 490 489 497 531 l 439 199 q 407 117 431 156 q 348 49 383 78 q 270 3 313 19 q 182 -14 228 -14 q 99 3 136 -14 q 35 50 61 21 q -3 117 8 79 q -7 199 -15 156 l 43 489 q 76 571 51 532 q 135 639 100 610 q 214 685 171 668 q 301 701 257 701 m 300 667 q 249 642 272 667 q 218 582 225 618 l 133 104 q 142 44 126 68 q 186 21 157 21 q 236 44 214 21 q 265 104 258 68 l 349 582 q 342 643 356 619 q 300 667 328 667 m 335 944 l 353 944 l 457 788 l 426 788 l 326 856 l 206 788 l 174 788 l 335 944 z "},"ö":{"ha":536,"x_min":-15,"x_max":497,"o":"m 301 701 q 385 684 347 701 q 449 638 422 667 q 486 569 475 608 q 490 489 497 531 l 439 199 q 407 117 431 156 q 348 49 383 78 q 270 3 313 19 q 182 -14 228 -14 q 99 3 136 -14 q 35 50 61 21 q -3 117 8 79 q -7 199 -15 156 l 43 489 q 76 571 51 532 q 135 639 100 610 q 214 685 171 668 q 301 701 257 701 m 300 667 q 249 642 272 667 q 218 582 225 618 l 133 104 q 142 44 126 68 q 186 21 157 21 q 236 44 214 21 q 265 104 258 68 l 349 582 q 342 643 356 619 q 300 667 328 667 m 175 863 q 200 905 179 889 q 246 921 221 921 q 286 905 271 921 q 297 863 301 889 q 272 819 293 836 q 225 803 250 803 q 185 819 200 803 q 175 863 171 836 m 356 863 q 382 905 361 889 q 426 921 403 921 q 469 905 454 921 q 478 863 483 889 q 453 819 474 836 q 406 803 433 803 q 367 819 382 803 q 356 863 351 836 z "},"œ":{"ha":811,"x_min":-12,"x_max":786,"o":"m 307 701 q 438 649 389 701 l 440 649 q 593 701 508 701 q 677 684 639 701 q 740 638 715 667 q 776 569 765 608 q 778 485 786 529 l 751 333 l 464 333 l 425 118 q 442 50 418 76 q 511 24 465 24 q 614 56 564 24 q 692 139 664 89 l 715 126 q 615 24 676 60 q 478 -12 553 -12 q 338 39 393 -12 l 335 39 q 189 -12 268 -12 q 103 4 142 -12 q 38 50 64 21 q -1 117 11 79 q -6 199 -12 156 l 46 489 q 77 571 53 532 q 137 639 101 610 q 217 685 172 668 q 307 701 261 701 m 350 582 q 342 643 357 618 q 301 668 328 668 q 249 642 274 668 q 219 582 225 617 l 135 106 q 144 47 128 72 q 188 21 160 21 q 238 45 215 21 q 267 106 260 69 l 350 582 m 508 590 l 469 368 l 600 368 l 639 588 q 630 643 644 619 q 589 667 615 667 q 538 644 561 667 q 508 590 514 621 z "},"ò":{"ha":536,"x_min":-15,"x_max":497,"o":"m 301 701 q 385 684 347 701 q 449 638 422 667 q 486 569 475 608 q 490 489 497 531 l 439 199 q 407 117 431 156 q 348 49 383 78 q 270 3 313 19 q 182 -14 228 -14 q 99 3 136 -14 q 35 50 61 21 q -3 117 8 79 q -7 199 -15 156 l 43 489 q 76 571 51 532 q 135 639 100 610 q 214 685 171 668 q 301 701 257 701 m 300 667 q 249 642 272 667 q 218 582 225 618 l 133 104 q 142 44 126 68 q 186 21 157 21 q 236 44 214 21 q 265 104 258 68 l 349 582 q 342 643 356 619 q 300 667 328 667 m 308 788 l 207 946 l 321 946 l 335 788 l 308 788 z "},"ő":{"ha":536,"x_min":-15,"x_max":551,"o":"m 301 701 q 385 684 347 701 q 449 638 422 667 q 486 569 475 608 q 490 489 497 531 l 439 199 q 407 117 431 156 q 348 49 383 78 q 270 3 313 19 q 182 -14 228 -14 q 99 3 136 -14 q 35 50 61 21 q -3 117 8 79 q -7 199 -15 156 l 43 489 q 76 571 51 532 q 135 639 100 610 q 214 685 171 668 q 301 701 257 701 m 300 667 q 249 642 272 667 q 218 582 225 618 l 133 104 q 142 44 126 68 q 186 21 157 21 q 236 44 214 21 q 265 104 258 68 l 349 582 q 342 643 356 619 q 300 667 328 667 m 379 788 l 449 946 l 551 946 l 406 788 l 379 788 m 224 788 l 294 946 l 397 946 l 251 788 l 224 788 z "},"ō":{"ha":536,"x_min":-15,"x_max":497,"o":"m 301 701 q 385 684 347 701 q 449 638 422 667 q 486 569 475 608 q 490 489 497 531 l 439 199 q 407 117 431 156 q 348 49 383 78 q 270 3 313 19 q 182 -14 228 -14 q 99 3 136 -14 q 35 50 61 21 q -3 117 8 79 q -7 199 -15 156 l 43 489 q 76 571 51 532 q 135 639 100 610 q 214 685 171 668 q 301 701 257 701 m 300 667 q 249 642 272 667 q 218 582 225 618 l 133 104 q 142 44 126 68 q 186 21 157 21 q 236 44 214 21 q 265 104 258 68 l 349 582 q 342 643 356 619 q 300 667 328 667 m 454 844 l 196 844 l 203 881 l 460 881 l 454 844 z "},"ø":{"ha":536,"x_min":-43,"x_max":519,"o":"m 18 72 q -7 199 -19 129 l 44 489 q 77 571 53 532 q 136 639 101 610 q 214 685 171 668 q 303 701 257 701 q 381 686 344 701 q 442 644 417 671 l 492 711 l 519 694 l 464 618 q 490 558 482 590 q 490 489 497 525 l 439 199 q 408 117 432 156 q 349 49 383 78 q 271 3 314 19 q 183 -14 228 -14 q 102 2 139 -14 q 39 46 65 18 l -15 -26 l -43 -10 l 18 72 m 300 667 q 249 642 272 667 q 218 582 225 618 l 163 268 l 336 501 l 350 582 q 342 643 357 619 q 300 667 328 667 m 135 104 q 143 44 128 68 q 186 21 158 21 q 237 44 215 21 q 265 104 258 68 l 322 429 l 150 196 l 135 104 z "},"ǿ":{"ha":536,"x_min":-43,"x_max":519,"o":"m 18 72 q -7 199 -19 129 l 44 489 q 77 571 53 532 q 136 639 101 610 q 214 685 171 668 q 303 701 257 701 q 381 686 344 701 q 442 644 417 671 l 492 711 l 519 694 l 464 618 q 490 558 482 590 q 490 489 497 525 l 439 199 q 408 117 432 156 q 349 49 383 78 q 271 3 314 19 q 183 -14 228 -14 q 102 2 139 -14 q 39 46 65 18 l -15 -26 l -43 -10 l 18 72 m 300 667 q 249 642 272 667 q 218 582 225 618 l 163 268 l 336 501 l 350 582 q 342 643 357 619 q 300 667 328 667 m 135 104 q 143 44 128 68 q 186 21 158 21 q 237 44 215 21 q 265 104 258 68 l 322 429 l 150 196 l 135 104 m 288 744 l 357 903 l 471 903 l 314 744 l 288 744 z "},"õ":{"ha":536,"x_min":-15,"x_max":497,"o":"m 301 701 q 385 684 347 701 q 449 638 422 667 q 486 569 475 608 q 490 489 497 531 l 439 199 q 407 117 431 156 q 348 49 383 78 q 270 3 313 19 q 182 -14 228 -14 q 99 3 136 -14 q 35 50 61 21 q -3 117 8 79 q -7 199 -15 156 l 43 489 q 76 571 51 532 q 135 639 100 610 q 214 685 171 668 q 301 701 257 701 m 300 667 q 249 642 272 667 q 218 582 225 618 l 133 104 q 142 44 126 68 q 186 21 157 21 q 236 44 214 21 q 265 104 258 68 l 349 582 q 342 643 356 619 q 300 667 328 667 m 199 819 l 182 831 q 300 917 239 917 q 339 907 319 917 l 374 890 q 407 881 392 881 q 457 917 435 881 l 474 907 q 358 818 418 818 q 314 829 339 818 l 289 842 q 253 853 267 853 q 199 819 224 853 z "},"ŕ":{"ha":372,"x_min":-35,"x_max":419,"o":"m 236 689 l 219 590 l 206 550 l 215 547 q 291 658 240 615 q 399 701 342 701 l 376 572 q 283 564 333 581 q 206 515 233 547 l 115 0 l -35 0 l 86 689 l 236 689 m 236 788 l 306 946 l 419 946 l 263 788 l 236 788 z "},"ř":{"ha":372,"x_min":-35,"x_max":428,"o":"m 236 689 l 219 590 l 206 550 l 215 547 q 291 658 240 615 q 399 701 342 701 l 376 572 q 283 564 333 581 q 206 515 233 547 l 115 0 l -35 0 l 86 689 l 236 689 m 176 944 l 274 876 l 397 944 l 428 944 l 269 788 l 250 788 l 146 944 l 176 944 z "},"ŗ":{"ha":372,"x_min":-44,"x_max":399,"o":"m 236 689 l 219 590 l 206 550 l 215 547 q 291 658 240 615 q 399 701 342 701 l 376 572 q 283 564 333 581 q 206 515 233 547 l 115 0 l -35 0 l 86 689 l 236 689 m 39 -156 q 6 -162 18 -162 q -30 -149 -17 -162 q -43 -112 -43 -136 q -21 -61 -43 -83 q 33 -39 1 -39 q 86 -107 86 -39 q 50 -205 86 -162 q -42 -254 14 -247 l -44 -235 q 16 -204 -6 -225 q 39 -156 38 -183 z "},"ś":{"ha":411,"x_min":-47,"x_max":422,"o":"m 375 619 q 286 661 336 661 q 224 636 249 661 q 200 571 200 611 q 214 510 200 542 l 326 232 q 339 169 339 199 q 320 100 339 133 q 269 42 301 67 q 196 1 238 17 q 110 -14 154 -14 q 21 5 61 -14 q -47 58 -19 24 l -21 83 q 37 40 7 56 q 94 25 67 25 q 150 49 129 25 q 171 113 171 72 q 146 214 171 156 l 56 435 q 38 514 38 475 q 56 585 38 551 q 103 645 74 619 q 174 686 133 671 q 258 701 214 701 q 403 643 349 701 l 375 619 m 239 788 l 308 946 l 422 946 l 265 788 l 239 788 z "},"š":{"ha":411,"x_min":-47,"x_max":431,"o":"m 375 619 q 286 661 336 661 q 224 636 249 661 q 200 571 200 611 q 214 510 200 542 l 326 232 q 339 169 339 199 q 320 100 339 133 q 269 42 301 67 q 196 1 238 17 q 110 -14 154 -14 q 21 5 61 -14 q -47 58 -19 24 l -21 83 q 37 40 7 56 q 94 25 67 25 q 150 49 129 25 q 171 113 171 72 q 146 214 171 156 l 56 435 q 38 514 38 475 q 56 585 38 551 q 103 645 74 619 q 174 686 133 671 q 258 701 214 701 q 403 643 349 701 l 375 619 m 179 944 l 276 876 l 400 944 l 431 944 l 272 788 l 253 788 l 149 944 l 179 944 z "},"ș":{"ha":411,"x_min":-47,"x_max":403,"o":"m 375 619 q 286 661 336 661 q 224 636 249 661 q 200 571 200 611 q 214 510 200 542 l 326 232 q 339 169 339 199 q 320 100 339 133 q 269 42 301 67 q 196 1 238 17 q 110 -14 154 -14 q 21 5 61 -14 q -47 58 -19 24 l -21 83 q 37 40 7 56 q 94 25 67 25 q 150 49 129 25 q 171 113 171 72 q 146 214 171 156 l 56 435 q 38 514 38 475 q 56 585 38 551 q 103 645 74 619 q 174 686 133 671 q 258 701 214 701 q 403 643 349 701 l 375 619 m 119 -156 q 86 -162 99 -162 q 51 -149 64 -162 q 38 -112 38 -136 q 60 -61 38 -83 q 114 -39 82 -39 q 167 -107 167 -39 q 131 -205 167 -162 q 39 -254 94 -247 l 36 -235 q 97 -204 75 -225 q 119 -156 118 -183 z "},"ŝ":{"ha":411,"x_min":-47,"x_max":406,"o":"m 375 619 q 286 661 336 661 q 224 636 249 661 q 200 571 200 611 q 214 510 200 542 l 326 232 q 339 169 339 199 q 320 100 339 133 q 269 42 301 67 q 196 1 238 17 q 110 -14 154 -14 q 21 5 61 -14 q -47 58 -19 24 l -21 83 q 37 40 7 56 q 94 25 67 25 q 150 49 129 25 q 171 113 171 72 q 146 214 171 156 l 56 435 q 38 514 38 475 q 56 585 38 551 q 103 645 74 619 q 174 686 133 671 q 258 701 214 701 q 403 643 349 701 l 375 619 m 283 944 l 301 944 l 406 788 l 375 788 l 275 856 l 154 788 l 122 788 l 283 944 z "},"ŧ":{"ha":326,"x_min":-1,"x_max":389,"o":"m 107 -12 q 24 30 49 -12 q 13 146 -1 72 l 78 521 l 8 521 l 14 554 l 85 554 l 101 654 l 32 654 l 38 688 l 108 688 l 136 846 l 296 896 l 260 688 l 389 688 l 383 654 l 254 654 l 236 554 l 365 554 l 360 521 l 231 521 l 160 118 q 159 67 154 90 q 185 44 164 44 q 257 83 211 44 l 275 58 q 192 7 239 26 q 107 -12 146 -12 z "},"ť":{"ha":347,"x_min":-1,"x_max":481,"o":"m 333 814 l 390 971 l 481 971 l 361 814 l 333 814 m 107 -12 q 24 30 49 -12 q 13 147 -1 72 l 101 654 l 32 654 l 38 688 l 108 688 l 136 846 l 296 896 l 260 688 l 389 688 l 383 654 l 254 654 l 160 119 q 159 68 154 92 q 185 44 164 44 q 257 83 211 44 l 275 60 q 192 8 239 28 q 107 -12 146 -12 z "},"ţ":{"ha":326,"x_min":-4,"x_max":389,"o":"m 107 -12 q 24 30 49 -12 q 13 147 -1 72 l 101 654 l 32 654 l 38 688 l 108 688 l 136 846 l 296 896 l 260 688 l 389 688 l 383 654 l 254 654 l 160 119 q 159 68 154 92 q 185 44 164 44 q 257 83 211 44 l 275 60 q 192 8 239 28 q 107 -12 146 -12 m 13 -125 q 44 -149 24 -139 q 85 -158 65 -158 q 119 -147 104 -158 q 133 -117 133 -136 q 61 -68 133 -76 l 103 1 l 124 1 l 99 -44 q 178 -66 147 -47 q 210 -117 210 -85 q 177 -170 210 -151 q 104 -189 144 -189 q 40 -176 69 -189 q -4 -140 11 -164 l 13 -125 z "},"ț":{"ha":326,"x_min":-1,"x_max":389,"o":"m 107 -12 q 24 30 49 -12 q 13 147 -1 72 l 101 654 l 32 654 l 38 688 l 108 688 l 136 846 l 296 896 l 260 688 l 389 688 l 383 654 l 254 654 l 160 119 q 159 68 154 92 q 185 44 164 44 q 257 83 211 44 l 275 60 q 192 8 239 28 q 107 -12 146 -12 m 121 -156 q 88 -162 100 -162 q 52 -149 65 -162 q 39 -112 39 -136 q 61 -61 39 -83 q 115 -39 83 -39 q 168 -107 168 -39 q 132 -205 168 -162 q 40 -254 96 -247 l 38 -235 q 98 -204 76 -225 q 121 -156 119 -183 z "},"ú":{"ha":532,"x_min":-29,"x_max":522,"o":"m 263 96 q 195 13 229 38 q 114 -12 161 -12 q 8 28 46 -12 q -18 132 -29 69 l 79 688 l 242 688 l 138 97 q 161 31 125 31 q 195 44 176 31 q 231 78 214 57 q 262 124 249 99 q 279 174 275 150 l 371 688 l 522 688 l 401 0 l 249 0 l 258 53 l 272 93 l 263 96 m 296 788 l 365 946 l 479 946 l 322 788 l 296 788 z "},"ŭ":{"ha":532,"x_min":-29,"x_max":522,"o":"m 263 96 q 195 13 229 38 q 114 -12 161 -12 q 8 28 46 -12 q -18 132 -29 69 l 79 688 l 242 688 l 138 97 q 161 31 125 31 q 195 44 176 31 q 231 78 214 57 q 262 124 249 99 q 279 174 275 150 l 371 688 l 522 688 l 401 0 l 249 0 l 258 53 l 272 93 l 263 96 m 440 926 l 461 926 q 410 830 450 868 q 318 792 371 792 q 238 830 265 792 q 219 926 210 868 l 240 926 q 260 876 235 896 q 329 857 285 857 q 403 876 372 857 q 440 926 435 894 z "},"û":{"ha":532,"x_min":-29,"x_max":522,"o":"m 263 96 q 195 13 229 38 q 114 -12 161 -12 q 8 28 46 -12 q -18 132 -29 69 l 79 688 l 242 688 l 138 97 q 161 31 125 31 q 195 44 176 31 q 231 78 214 57 q 262 124 249 99 q 279 174 275 150 l 371 688 l 522 688 l 401 0 l 249 0 l 258 53 l 272 93 l 263 96 m 340 944 l 358 944 l 463 788 l 432 788 l 332 856 l 211 788 l 179 788 l 340 944 z "},"ü":{"ha":532,"x_min":-29,"x_max":522,"o":"m 263 96 q 195 13 229 38 q 114 -12 161 -12 q 8 28 46 -12 q -18 132 -29 69 l 79 688 l 242 688 l 138 97 q 161 31 125 31 q 195 44 176 31 q 231 78 214 57 q 262 124 249 99 q 279 174 275 150 l 371 688 l 522 688 l 401 0 l 249 0 l 258 53 l 272 93 l 263 96 m 181 863 q 206 905 185 889 q 251 921 226 921 q 292 905 276 921 q 303 863 307 889 q 277 819 299 836 q 231 803 256 803 q 191 819 206 803 q 181 863 176 836 m 361 863 q 388 905 367 889 q 432 921 408 921 q 474 905 460 921 q 483 863 489 889 q 459 819 479 836 q 411 803 439 803 q 372 819 388 803 q 361 863 357 836 z "},"ù":{"ha":532,"x_min":-29,"x_max":522,"o":"m 263 96 q 195 13 229 38 q 114 -12 161 -12 q 8 28 46 -12 q -18 132 -29 69 l 79 688 l 242 688 l 138 97 q 161 31 125 31 q 195 44 176 31 q 231 78 214 57 q 262 124 249 99 q 279 174 275 150 l 371 688 l 522 688 l 401 0 l 249 0 l 258 53 l 272 93 l 263 96 m 314 788 l 213 946 l 326 946 l 340 788 l 314 788 z "},"ű":{"ha":532,"x_min":-29,"x_max":557,"o":"m 263 96 q 195 13 229 38 q 114 -12 161 -12 q 8 28 46 -12 q -18 132 -29 69 l 79 688 l 242 688 l 138 97 q 161 31 125 31 q 195 44 176 31 q 231 78 214 57 q 262 124 249 99 q 279 174 275 150 l 371 688 l 522 688 l 401 0 l 249 0 l 258 53 l 272 93 l 263 96 m 385 788 l 454 946 l 557 946 l 411 788 l 385 788 m 229 788 l 300 946 l 403 946 l 257 788 l 229 788 z "},"ū":{"ha":532,"x_min":-29,"x_max":522,"o":"m 263 96 q 195 13 229 38 q 114 -12 161 -12 q 8 28 46 -12 q -18 132 -29 69 l 79 688 l 242 688 l 138 97 q 161 31 125 31 q 195 44 176 31 q 231 78 214 57 q 262 124 249 99 q 279 174 275 150 l 371 688 l 522 688 l 401 0 l 249 0 l 258 53 l 272 93 l 263 96 m 460 844 l 201 844 l 208 881 l 465 881 l 460 844 z "},"ų":{"ha":532,"x_min":-29,"x_max":522,"o":"m 263 96 q 195 13 229 38 q 114 -12 161 -12 q 8 28 46 -12 q -18 132 -29 69 l 79 688 l 242 688 l 138 97 q 161 31 125 31 q 195 44 176 31 q 231 78 214 57 q 262 124 249 99 q 279 174 275 150 l 371 688 l 522 688 l 401 0 l 249 0 l 258 53 l 272 93 l 263 96 m 319 -111 q 264 -174 296 -151 q 199 -196 232 -196 q 148 -178 168 -196 q 128 -132 128 -160 q 139 -93 128 -112 q 168 -56 150 -74 q 208 -24 186 -39 q 253 3 231 -8 l 276 3 q 221 -43 244 -14 q 197 -104 197 -72 q 208 -138 197 -125 q 235 -151 218 -151 q 301 -101 271 -151 l 319 -111 z "},"ů":{"ha":532,"x_min":-29,"x_max":522,"o":"m 263 96 q 195 13 229 38 q 114 -12 161 -12 q 8 28 46 -12 q -18 132 -29 69 l 79 688 l 242 688 l 138 97 q 161 31 125 31 q 195 44 176 31 q 231 78 214 57 q 262 124 249 99 q 279 174 275 150 l 371 688 l 522 688 l 401 0 l 249 0 l 258 53 l 272 93 l 263 96 m 251 871 q 285 928 258 906 q 346 951 311 951 q 401 928 382 951 q 414 871 419 906 q 380 813 407 836 q 318 790 353 790 q 264 813 283 790 q 251 871 244 836 m 279 871 q 288 833 275 849 q 322 818 300 818 q 364 833 346 818 q 386 871 382 849 q 378 909 390 894 q 342 924 365 924 q 301 909 319 924 q 279 871 283 894 z "},"ũ":{"ha":532,"x_min":-29,"x_max":522,"o":"m 263 96 q 195 13 229 38 q 114 -12 161 -12 q 8 28 46 -12 q -18 132 -29 69 l 79 688 l 242 688 l 138 97 q 161 31 125 31 q 195 44 176 31 q 231 78 214 57 q 262 124 249 99 q 279 174 275 150 l 371 688 l 522 688 l 401 0 l 249 0 l 258 53 l 272 93 l 263 96 m 204 819 l 188 831 q 306 917 244 917 q 344 907 325 917 l 379 890 q 413 881 397 881 q 463 917 440 881 l 479 907 q 364 818 424 818 q 319 829 344 818 l 294 842 q 258 853 272 853 q 204 819 229 853 z "},"ẃ":{"ha":704,"x_min":53,"x_max":721,"o":"m 53 688 l 210 688 l 238 335 l 236 294 l 246 294 l 258 335 l 343 543 l 332 688 l 490 688 l 517 335 l 515 294 l 525 294 l 539 335 l 683 688 l 721 688 l 433 0 l 388 0 l 353 428 l 354 468 l 344 468 l 332 428 l 154 0 l 108 0 l 53 688 m 392 788 l 461 946 l 575 946 l 418 788 l 392 788 z "},"ŵ":{"ha":704,"x_min":53,"x_max":721,"o":"m 53 688 l 210 688 l 238 335 l 236 294 l 246 294 l 258 335 l 343 543 l 332 688 l 490 688 l 517 335 l 515 294 l 525 294 l 539 335 l 683 688 l 721 688 l 433 0 l 388 0 l 353 428 l 354 468 l 344 468 l 332 428 l 154 0 l 108 0 l 53 688 m 436 944 l 454 944 l 558 788 l 528 788 l 428 856 l 307 788 l 275 788 l 436 944 z "},"ẅ":{"ha":704,"x_min":53,"x_max":721,"o":"m 53 688 l 210 688 l 238 335 l 236 294 l 246 294 l 258 335 l 343 543 l 332 688 l 490 688 l 517 335 l 515 294 l 525 294 l 539 335 l 683 688 l 721 688 l 433 0 l 388 0 l 353 428 l 354 468 l 344 468 l 332 428 l 154 0 l 108 0 l 53 688 m 276 863 q 301 905 281 889 q 347 921 322 921 q 388 905 372 921 q 399 863 403 889 q 373 819 394 836 q 326 803 351 803 q 287 819 301 803 q 276 863 272 836 m 457 863 q 483 905 463 889 q 528 921 504 921 q 570 905 556 921 q 579 863 585 889 q 555 819 575 836 q 507 803 535 803 q 468 819 483 803 q 457 863 453 836 z "},"ẁ":{"ha":704,"x_min":53,"x_max":721,"o":"m 53 688 l 210 688 l 238 335 l 236 294 l 246 294 l 258 335 l 343 543 l 332 688 l 490 688 l 517 335 l 515 294 l 525 294 l 539 335 l 683 688 l 721 688 l 433 0 l 388 0 l 353 428 l 354 468 l 344 468 l 332 428 l 154 0 l 108 0 l 53 688 m 410 788 l 308 946 l 422 946 l 436 788 l 410 788 z "},"ý":{"ha":464,"x_min":28,"x_max":482,"o":"m 213 688 l 253 308 l 253 268 l 263 268 l 276 308 l 444 688 l 482 688 l 67 -243 l 28 -243 l 139 0 l 129 0 l 53 688 l 213 688 m 289 788 l 358 946 l 472 946 l 315 788 l 289 788 z "},"ŷ":{"ha":464,"x_min":28,"x_max":482,"o":"m 213 688 l 253 308 l 253 268 l 263 268 l 276 308 l 444 688 l 482 688 l 67 -243 l 28 -243 l 139 0 l 129 0 l 53 688 l 213 688 m 333 944 l 351 944 l 456 788 l 425 788 l 325 856 l 204 788 l 172 788 l 333 944 z "},"ÿ":{"ha":464,"x_min":28,"x_max":482,"o":"m 213 688 l 253 308 l 253 268 l 263 268 l 276 308 l 444 688 l 482 688 l 67 -243 l 28 -243 l 139 0 l 129 0 l 53 688 l 213 688 m 174 863 q 199 905 178 889 q 244 921 219 921 q 285 905 269 921 q 296 863 300 889 q 270 819 292 836 q 224 803 249 803 q 184 819 199 803 q 174 863 169 836 m 354 863 q 381 905 360 889 q 425 921 401 921 q 467 905 453 921 q 476 863 482 889 q 452 819 472 836 q 404 803 432 803 q 365 819 381 803 q 354 863 350 836 z "},"ỳ":{"ha":464,"x_min":28,"x_max":482,"o":"m 213 688 l 253 308 l 253 268 l 263 268 l 276 308 l 444 688 l 482 688 l 67 -243 l 28 -243 l 139 0 l 129 0 l 53 688 l 213 688 m 307 788 l 206 946 l 319 946 l 333 788 l 307 788 z "},"ź":{"ha":499,"x_min":-44,"x_max":504,"o":"m -44 0 l -39 33 l 324 654 l 121 654 l 126 688 l 504 688 l 497 654 l 135 33 l 388 33 l 382 0 l -44 0 m 306 788 l 375 946 l 489 946 l 332 788 l 306 788 z "},"ž":{"ha":499,"x_min":-44,"x_max":504,"o":"m -44 0 l -39 33 l 324 654 l 121 654 l 126 688 l 504 688 l 497 654 l 135 33 l 388 33 l 382 0 l -44 0 m 246 944 l 343 876 l 467 944 l 497 944 l 339 788 l 319 788 l 215 944 l 246 944 z "},"¥":{"ha":494,"x_min":-1,"x_max":581,"o":"m 314 578 l 321 522 l 331 522 l 353 578 l 540 969 l 581 969 l 335 460 l 494 460 l 488 424 l 328 424 l 311 328 l 471 328 l 464 292 l 304 292 l 254 0 l 92 0 l 142 292 l -1 292 l 4 328 l 149 328 l 165 424 l 22 424 l 28 460 l 165 460 l 74 969 l 244 969 l 314 578 z "},"€":{"ha":554,"x_min":-15,"x_max":599,"o":"m 47 397 l -15 397 l -8 433 l 53 433 l 71 532 l 8 532 l 15 568 l 78 568 l 101 701 q 140 819 113 767 q 208 907 168 871 q 299 963 247 943 q 410 983 350 983 q 520 962 472 983 q 599 897 568 940 l 568 874 q 428 942 513 942 q 330 906 368 942 q 279 800 292 869 l 238 568 l 478 568 l 467 532 l 231 532 l 214 433 l 428 433 l 417 397 l 207 397 l 168 178 q 263 29 142 29 q 377 60 324 29 q 463 144 431 92 l 494 129 q 386 24 454 60 q 236 -12 318 -12 q 58 67 114 -12 q 25 281 1 146 l 47 397 z "},"Ĩ":{"ha":294,"x_min":-21,"x_max":403,"o":"m 314 971 l 142 0 l -21 0 l 151 971 l 314 971 m 128 1060 l 111 1071 q 229 1157 168 1157 q 268 1147 249 1157 l 303 1131 q 336 1121 321 1121 q 386 1157 364 1121 l 403 1147 q 288 1058 347 1058 q 243 1069 268 1058 l 218 1082 q 182 1093 196 1093 q 128 1060 153 1093 z "},"Ō":{"ha":639,"x_min":8,"x_max":631,"o":"m 96 706 q 135 819 107 768 q 203 908 163 871 q 297 965 244 944 q 407 985 349 985 q 510 965 465 985 q 583 908 556 944 q 621 819 611 871 q 619 706 631 768 l 543 278 q 503 158 532 213 q 434 66 475 104 q 341 7 393 28 q 231 -14 289 -14 q 127 7 172 -14 q 55 66 82 28 q 18 158 28 104 q 21 278 8 213 l 96 706 m 164 172 q 238 24 139 24 q 361 172 336 24 l 472 800 q 400 947 497 947 q 320 909 353 947 q 275 800 288 871 l 164 172 m 558 1085 l 300 1085 l 307 1121 l 564 1121 l 558 1085 z "},"E":{"ha":468,"x_min":-21,"x_max":521,"o":"m 521 971 l 515 935 l 308 935 l 235 514 l 411 514 l 406 478 l 228 478 l 149 36 l 356 36 l 350 0 l -21 0 l 151 971 l 521 971 z "},"W":{"ha":707,"x_min":75,"x_max":800,"o":"m 532 390 l 529 335 l 539 335 l 556 390 l 763 971 l 800 971 l 454 0 l 383 0 l 368 478 l 369 533 l 360 533 l 343 478 l 172 0 l 103 0 l 75 971 l 235 971 l 250 390 l 249 335 l 258 335 l 274 390 l 364 646 l 356 971 l 515 971 l 532 390 z "},"f":{"ha":290,"x_min":-12,"x_max":476,"o":"m 108 688 l 131 811 q 156 881 138 849 q 203 935 175 913 q 265 972 231 958 q 339 985 300 985 q 476 940 413 985 l 454 910 q 369 942 406 942 q 290 849 307 942 l 261 688 l 392 688 l 385 654 l 256 654 l 140 0 l -12 0 l 103 654 l 32 654 l 39 688 l 108 688 z "},"n":{"ha":540,"x_min":-33,"x_max":519,"o":"m 226 592 q 295 675 261 650 q 376 700 329 700 q 481 659 443 700 q 508 556 519 618 l 410 0 l 247 0 l 351 590 q 329 657 364 657 q 294 644 314 657 q 258 610 275 631 q 227 563 240 589 q 210 514 214 538 l 119 0 l -33 0 l 88 688 l 240 688 l 231 635 l 218 594 l 226 592 z "},"u":{"ha":532,"x_min":-29,"x_max":522,"o":"m 263 96 q 195 13 229 38 q 114 -12 161 -12 q 8 28 46 -12 q -18 132 -29 69 l 79 688 l 242 688 l 138 97 q 161 31 125 31 q 195 44 176 31 q 231 78 214 57 q 262 124 249 99 q 279 174 275 150 l 371 688 l 522 688 l 401 0 l 249 0 l 258 53 l 272 93 l 263 96 z "},"w":{"ha":704,"x_min":53,"x_max":721,"o":"m 53 688 l 210 688 l 238 335 l 236 294 l 246 294 l 258 335 l 343 543 l 332 688 l 490 688 l 517 335 l 515 294 l 525 294 l 539 335 l 683 688 l 721 688 l 433 0 l 388 0 l 353 428 l 354 468 l 344 468 l 332 428 l 154 0 l 108 0 l 53 688 z "},"ŋ":{"ha":546,"x_min":-33,"x_max":518,"o":"m 375 700 q 480 658 442 700 q 507 556 518 617 l 418 51 q 392 -31 410 7 q 341 -104 374 -69 q 261 -173 308 -139 q 147 -242 214 -207 l 135 -219 q 169 -193 153 -207 q 198 -162 185 -179 q 221 -121 211 -144 q 236 -64 231 -97 l 351 590 q 329 657 364 657 q 294 644 314 657 q 258 610 275 631 q 227 563 240 589 q 210 514 214 538 l 119 0 l -33 0 l 88 688 l 240 688 l 231 635 l 218 594 l 226 592 q 295 675 261 650 q 375 700 329 700 z "},"ﬁ":{"ha":572,"x_min":-12,"x_max":542,"o":"m 108 688 l 131 811 q 156 881 138 849 q 203 935 175 913 q 266 972 231 958 q 340 985 301 985 q 494 926 424 985 l 469 897 q 368 942 408 942 q 289 849 306 942 l 261 688 l 542 688 l 421 0 l 268 0 l 383 654 l 256 654 l 140 0 l -12 0 l 103 654 l 32 654 l 39 688 l 108 688 z "},"ﬂ":{"ha":551,"x_min":-12,"x_max":592,"o":"m 108 688 l 131 811 q 156 881 138 849 q 203 935 175 913 q 266 972 231 958 q 340 985 301 985 q 438 963 389 985 l 440 972 l 592 972 l 421 0 l 268 0 l 383 654 l 256 654 l 140 0 l -12 0 l 103 654 l 32 654 l 39 688 l 108 688 m 390 688 l 431 922 q 368 942 394 942 q 289 849 306 942 l 261 688 l 390 688 z "},"ﬀ":{"ha":569,"x_min":-12,"x_max":754,"o":"m 265 0 l 381 654 l 256 654 l 140 0 l -12 0 l 103 654 l 32 654 l 38 688 l 108 688 l 126 788 q 153 860 133 826 q 201 918 172 893 q 267 957 231 943 q 342 971 303 971 q 472 929 410 971 q 615 985 532 985 q 754 939 689 985 l 732 910 q 647 940 685 940 q 568 849 585 940 l 539 688 l 669 688 l 663 654 l 533 654 l 418 0 l 265 0 m 261 688 l 386 688 l 408 811 q 450 900 417 858 q 374 926 408 926 q 285 825 304 926 l 261 688 z "},"ﬃ":{"ha":850,"x_min":-12,"x_max":819,"o":"m 265 0 l 381 654 l 256 654 l 140 0 l -12 0 l 103 654 l 32 654 l 38 688 l 108 688 l 126 788 q 153 860 133 826 q 201 918 172 893 q 267 957 231 943 q 342 971 303 971 q 474 929 410 971 q 615 985 532 985 q 772 925 701 985 l 747 897 q 646 940 688 940 q 567 847 583 940 l 539 688 l 819 688 l 699 0 l 546 0 l 661 654 l 533 654 l 418 0 l 265 0 m 374 926 q 285 825 304 926 l 261 688 l 386 688 l 408 811 q 450 900 417 858 q 374 926 408 926 z "},"ﬄ":{"ha":831,"x_min":-12,"x_max":869,"o":"m 265 0 l 381 654 l 256 654 l 140 0 l -12 0 l 103 654 l 32 654 l 38 688 l 108 688 l 126 788 q 153 860 133 826 q 201 918 172 893 q 267 957 231 943 q 342 971 303 971 q 472 929 410 971 q 615 985 532 985 q 715 961 665 985 l 718 971 l 869 971 l 699 0 l 546 0 l 661 654 l 533 654 l 418 0 l 265 0 m 668 688 l 708 922 q 646 940 674 940 q 567 847 583 940 l 539 688 l 668 688 m 374 926 q 285 825 304 926 l 261 688 l 386 688 l 408 811 q 450 900 417 858 q 374 926 406 926 z "},"¼":{"ha":506,"x_min":47,"x_max":471,"o":"m 158 931 l 121 913 l 115 929 l 197 971 l 231 971 l 157 553 l 92 553 l 158 931 m 433 971 l 471 971 l 85 0 l 47 0 l 433 971 m 197 108 l 386 418 l 422 418 l 371 131 l 404 131 l 394 78 l 363 78 l 349 0 l 281 0 l 294 78 l 192 78 l 197 108 m 328 289 l 235 133 l 235 131 l 303 131 l 332 289 l 328 289 z "},"Š":{"ha":521,"x_min":-19,"x_max":543,"o":"m 272 164 q 246 296 272 215 l 133 642 q 122 688 125 665 q 118 733 118 710 q 137 832 118 786 q 188 912 156 878 q 265 965 221 946 q 361 985 310 985 q 466 961 418 985 q 543 897 514 938 l 513 872 q 457 920 492 901 q 389 939 422 939 q 313 899 342 939 q 283 797 283 860 q 287 752 283 775 q 299 703 290 729 l 428 290 q 440 213 440 251 q 419 124 440 165 q 363 51 399 82 q 277 3 326 21 q 171 -14 228 -14 q 69 2 118 -14 q -19 49 21 18 l 6 79 q 81 42 40 56 q 156 29 121 29 q 241 65 210 29 q 272 164 272 100 m 281 1185 l 378 1117 l 501 1185 l 532 1185 l 374 1028 l 354 1028 l 250 1185 l 281 1185 z "},"Ś":{"ha":521,"x_min":-19,"x_max":543,"o":"m 272 164 q 246 296 272 215 l 133 642 q 122 688 125 665 q 118 733 118 710 q 137 832 118 786 q 188 912 156 878 q 265 965 221 946 q 361 985 310 985 q 466 961 418 985 q 543 897 514 938 l 513 872 q 457 920 492 901 q 389 939 422 939 q 313 899 342 939 q 283 797 283 860 q 287 752 283 775 q 299 703 290 729 l 428 290 q 440 213 440 251 q 419 124 440 165 q 363 51 399 82 q 277 3 326 21 q 171 -14 228 -14 q 69 2 118 -14 q -19 49 21 18 l 6 79 q 81 42 40 56 q 156 29 121 29 q 241 65 210 29 q 272 164 272 100 m 340 1028 l 410 1186 l 524 1186 l 367 1028 l 340 1028 z "},"Ŝ":{"ha":521,"x_min":-19,"x_max":543,"o":"m 272 164 q 246 296 272 215 l 133 642 q 122 688 125 665 q 118 733 118 710 q 137 832 118 786 q 188 912 156 878 q 265 965 221 946 q 361 985 310 985 q 466 961 418 985 q 543 897 514 938 l 513 872 q 457 920 492 901 q 389 939 422 939 q 313 899 342 939 q 283 797 283 860 q 287 752 283 775 q 299 703 290 729 l 428 290 q 440 213 440 251 q 419 124 440 165 q 363 51 399 82 q 277 3 326 21 q 171 -14 228 -14 q 69 2 118 -14 q -19 49 21 18 l 6 79 q 81 42 40 56 q 156 29 121 29 q 241 65 210 29 q 272 164 272 100 m 386 1185 l 404 1185 l 508 1028 l 478 1028 l 378 1096 l 257 1028 l 225 1028 l 386 1185 z "},"Ș":{"ha":521,"x_min":-19,"x_max":543,"o":"m 272 164 q 246 296 272 215 l 133 642 q 122 688 125 665 q 118 733 118 710 q 137 832 118 786 q 188 912 156 878 q 265 965 221 946 q 361 985 310 985 q 466 961 418 985 q 543 897 514 938 l 513 872 q 457 920 492 901 q 389 939 422 939 q 313 899 342 939 q 283 797 283 860 q 287 752 283 775 q 299 703 290 729 l 428 290 q 440 213 440 251 q 419 124 440 165 q 363 51 399 82 q 277 3 326 21 q 171 -14 228 -14 q 69 2 118 -14 q -19 49 21 18 l 6 79 q 81 42 40 56 q 156 29 121 29 q 241 65 210 29 q 272 164 272 100 m 188 -156 q 154 -162 167 -162 q 119 -149 132 -162 q 106 -112 106 -136 q 128 -61 106 -83 q 182 -39 150 -39 q 235 -107 235 -39 q 199 -205 235 -162 q 107 -254 163 -247 l 104 -235 q 165 -204 143 -225 q 188 -156 186 -183 z "},"Ş":{"ha":521,"x_min":-19,"x_max":543,"o":"m 272 164 q 246 296 272 215 l 133 642 q 122 688 125 665 q 118 733 118 710 q 137 832 118 786 q 188 912 156 878 q 265 965 221 946 q 361 985 310 985 q 466 961 418 985 q 543 897 514 938 l 513 872 q 457 920 492 901 q 389 939 422 939 q 313 899 342 939 q 283 797 283 860 q 287 752 283 775 q 299 703 290 729 l 428 290 q 440 213 440 251 q 419 124 440 165 q 363 51 399 82 q 277 3 326 21 q 171 -14 228 -14 q 69 2 118 -14 q -19 49 21 18 l 6 79 q 81 42 40 56 q 156 29 121 29 q 241 65 210 29 q 272 164 272 100 m 79 -125 q 111 -149 90 -139 q 151 -158 132 -158 q 185 -147 171 -158 q 200 -117 200 -136 q 128 -68 200 -76 l 169 1 l 190 1 l 165 -44 q 245 -66 214 -47 q 276 -117 276 -85 q 244 -170 276 -151 q 171 -189 211 -189 q 107 -176 136 -189 q 63 -140 78 -164 l 79 -125 z "},"h":{"ha":544,"x_min":-29,"x_max":522,"o":"m 229 592 q 298 675 264 650 q 379 700 332 700 q 484 659 446 700 q 511 556 522 618 l 414 0 l 251 0 l 356 590 q 332 657 368 657 q 298 644 317 657 q 262 610 279 631 q 231 563 244 589 q 214 514 218 538 l 124 0 l -29 0 l 142 971 l 293 971 l 235 635 l 221 594 l 229 592 z "},"o":{"ha":536,"x_min":-15,"x_max":497,"o":"m 301 701 q 385 684 347 701 q 449 638 422 667 q 486 569 475 608 q 490 489 497 531 l 439 199 q 407 117 431 156 q 348 49 383 78 q 270 3 313 19 q 182 -14 228 -14 q 99 3 136 -14 q 35 50 61 21 q -3 117 8 79 q -7 199 -15 156 l 43 489 q 76 571 51 532 q 135 639 100 610 q 214 685 171 668 q 301 701 257 701 m 300 667 q 249 642 272 667 q 218 582 225 618 l 133 104 q 142 44 126 68 q 186 21 157 21 q 236 44 214 21 q 265 104 258 68 l 349 582 q 342 643 356 619 q 300 667 328 667 z "},"c":{"ha":460,"x_min":-12,"x_max":468,"o":"m 42 476 q 74 566 50 525 q 133 637 99 607 q 212 683 168 667 q 303 700 256 700 q 397 681 354 700 q 468 629 440 663 l 439 606 q 386 647 419 631 q 319 664 353 664 q 251 639 279 664 q 217 569 224 614 l 139 129 q 153 53 131 81 q 219 25 175 25 q 310 51 264 25 q 381 117 356 76 l 408 103 q 314 17 372 49 q 186 -14 256 -14 q 97 3 136 -14 q 32 49 57 19 q -3 121 7 79 q -4 211 -12 163 l 42 476 z "},"e":{"ha":524,"x_min":-15,"x_max":497,"o":"m 44 486 q 76 569 51 531 q 135 638 100 608 q 214 683 171 667 q 303 700 257 700 q 385 683 347 700 q 449 636 422 665 q 486 569 475 607 q 490 488 497 531 l 463 333 l 174 333 l 136 117 q 153 49 129 75 q 221 22 176 22 q 319 54 271 22 q 396 139 368 86 l 425 126 q 324 24 386 60 q 189 -12 263 -12 q 101 4 140 -12 q 35 49 61 21 q -3 117 8 78 q -7 199 -15 156 l 44 486 m 311 367 l 349 582 q 342 642 356 618 q 300 667 328 667 q 249 642 272 667 q 218 582 225 618 l 181 367 l 311 367 z "},"ļ":{"ha":251,"x_min":-32,"x_max":292,"o":"m 142 971 l 292 971 l 119 0 l -32 0 l 142 971 m 53 -156 q 19 -162 32 -162 q -16 -149 -3 -162 q -29 -112 -29 -136 q -7 -61 -29 -83 q 47 -39 15 -39 q 100 -107 100 -39 q 64 -205 100 -162 q -28 -254 28 -247 l -31 -235 q 30 -204 8 -225 q 53 -156 51 -183 z "},"ş":{"ha":411,"x_min":-47,"x_max":403,"o":"m 375 619 q 286 661 336 661 q 224 636 249 661 q 200 571 200 611 q 214 510 200 542 l 326 232 q 339 169 339 199 q 320 100 339 133 q 269 42 301 67 q 196 1 238 17 q 110 -14 154 -14 q 21 5 61 -14 q -47 58 -19 24 l -21 83 q 37 40 7 56 q 94 25 67 25 q 150 49 129 25 q 171 113 171 72 q 146 214 171 156 l 56 435 q 38 514 38 475 q 56 585 38 551 q 103 645 74 619 q 174 686 133 671 q 258 701 214 701 q 403 643 349 701 l 375 619 m 11 -125 q 43 -149 22 -139 q 83 -158 64 -158 q 117 -147 103 -158 q 132 -117 132 -136 q 60 -68 132 -76 l 101 1 l 122 1 l 97 -44 q 177 -66 146 -47 q 208 -117 208 -85 q 176 -170 208 -151 q 103 -189 143 -189 q 39 -176 68 -189 q -6 -140 10 -164 l 11 -125 z "},"ȷ":{"ha":325,"x_min":-86,"x_max":297,"o":"m 186 51 q 160 -33 178 6 q 111 -108 142 -72 q 35 -176 81 -143 q -74 -243 -11 -208 l -86 -221 q -52 -194 -68 -207 q -23 -162 -36 -181 q 0 -121 -10 -144 q 15 -64 10 -97 l 147 688 l 297 688 l 186 51 z "},"ä":{"ha":532,"x_min":-15,"x_max":517,"o":"m 261 75 l 253 78 q 197 8 226 29 q 131 -12 168 -12 q 67 3 96 -12 q 19 45 39 18 q -8 108 0 72 q -8 182 -15 143 l 47 493 q 76 573 54 535 q 127 640 97 611 q 193 685 157 668 q 267 701 229 701 q 323 683 303 701 q 350 624 343 665 l 358 626 l 360 667 l 364 688 l 517 688 l 394 1 l 242 1 l 249 35 l 261 75 m 339 546 q 340 589 343 568 q 330 626 338 610 q 310 653 322 643 q 283 663 299 663 q 245 642 263 663 q 221 590 228 622 l 138 115 q 143 61 132 83 q 176 39 154 39 q 205 49 190 39 q 232 74 219 58 q 254 110 244 90 q 268 151 264 131 l 339 546 m 175 863 q 200 905 179 889 q 246 921 221 921 q 286 905 271 921 q 297 863 301 889 q 272 819 293 836 q 225 803 250 803 q 185 819 200 803 q 175 863 171 836 m 356 863 q 382 905 361 889 q 426 921 403 921 q 469 905 454 921 q 478 863 483 889 q 453 819 474 836 q 406 803 433 803 q 367 819 382 803 q 356 863 351 836 z "},"←":{"ha":935,"x_min":35,"x_max":897,"o":"m 350 711 l 371 682 l 118 488 l 897 488 l 890 450 l 113 450 l 297 257 l 265 228 l 35 469 l 350 711 z "},"⟵":{"ha":1303,"x_min":35,"x_max":1265,"o":"m 350 711 l 371 682 l 118 488 l 1265 488 l 1258 450 l 113 450 l 297 257 l 265 228 l 35 469 l 350 711 z "},"⇐":{"ha":935,"x_min":35,"x_max":907,"o":"m 350 711 l 371 682 l 190 543 l 907 543 l 900 506 l 142 506 l 94 469 l 129 432 l 886 432 l 881 394 l 165 394 l 297 257 l 265 228 l 35 469 l 350 711 z "},"⟸":{"ha":1303,"x_min":35,"x_max":1275,"o":"m 350 711 l 371 682 l 190 543 l 1275 543 l 1268 506 l 142 506 l 94 469 l 129 432 l 1254 432 l 1249 394 l 165 394 l 297 257 l 265 228 l 35 469 l 350 711 z "},"→":{"ha":935,"x_min":31,"x_max":893,"o":"m 578 229 l 557 258 l 810 453 l 31 453 l 38 490 l 815 490 l 631 683 l 663 713 l 893 471 l 578 229 z "},"⟹":{"ha":1303,"x_min":21,"x_max":1261,"o":"m 946 229 l 925 258 l 1106 397 l 21 397 l 28 435 l 1154 435 l 1201 471 l 1167 508 l 42 508 l 47 546 l 1131 546 l 999 683 l 1031 713 l 1261 471 l 946 229 z "},"⇒":{"ha":935,"x_min":21,"x_max":893,"o":"m 578 229 l 557 258 l 738 397 l 21 397 l 28 435 l 786 435 l 833 471 l 799 508 l 42 508 l 47 546 l 763 546 l 631 683 l 663 713 l 893 471 l 578 229 z "},"⟶":{"ha":1303,"x_min":31,"x_max":1261,"o":"m 946 229 l 925 258 l 1178 453 l 31 453 l 38 490 l 1183 490 l 999 683 l 1031 713 l 1261 471 l 946 229 z "},"↖":{"ha":611,"x_min":60,"x_max":568,"o":"m 488 969 l 481 932 l 181 932 l 568 463 l 536 436 l 150 906 l 97 607 l 60 607 l 124 969 l 488 969 z "},"↗":{"ha":571,"x_min":46,"x_max":554,"o":"m 126 969 l 133 932 l 433 932 l 46 463 l 78 436 l 464 906 l 517 607 l 554 607 l 490 969 l 126 969 z "},"↘":{"ha":611,"x_min":43,"x_max":550,"o":"m 124 1 l 129 39 l 429 39 l 43 508 l 74 535 l 460 65 l 513 364 l 550 365 l 488 1 l 124 1 z "},"↙":{"ha":571,"x_min":15,"x_max":522,"o":"m 442 1 l 436 39 l 136 39 l 522 508 l 492 535 l 106 65 l 53 364 l 15 365 l 78 1 l 442 1 z "},"↔":{"ha":982,"x_min":35,"x_max":940,"o":"m 624 228 l 603 258 l 856 450 l 113 450 l 297 257 l 265 228 l 35 469 l 350 711 l 371 682 l 118 488 l 864 488 l 678 683 l 710 711 l 940 469 l 624 228 z "},"⟷":{"ha":1344,"x_min":35,"x_max":1303,"o":"m 350 711 l 371 682 l 118 488 l 1226 488 l 1040 683 l 1072 711 l 1303 469 l 988 228 l 967 258 l 1218 450 l 113 450 l 297 257 l 265 228 l 35 469 l 350 711 z "},"⇔":{"ha":1026,"x_min":35,"x_max":986,"o":"m 350 711 l 371 682 l 190 543 l 856 543 l 724 683 l 754 711 l 986 469 l 669 228 l 649 258 l 828 394 l 165 394 l 297 257 l 265 228 l 35 469 l 350 711 m 876 432 l 926 469 l 892 506 l 142 506 l 94 469 l 129 432 l 876 432 z "},"⟺":{"ha":1313,"x_min":35,"x_max":1271,"o":"m 350 711 l 371 682 l 192 544 l 1142 544 l 1010 683 l 1040 711 l 1271 469 l 956 228 l 935 258 l 1115 396 l 164 396 l 297 257 l 265 228 l 35 469 l 350 711 m 1164 433 l 1213 471 l 1176 507 l 143 507 l 94 469 l 128 433 l 1164 433 z "},"↑":{"ha":558,"x_min":51,"x_max":533,"o":"m 533 565 l 499 540 l 346 760 l 229 101 l 192 101 l 307 758 l 78 540 l 51 565 l 340 839 l 533 565 z "},"↓":{"ha":560,"x_min":19,"x_max":501,"o":"m 19 375 l 54 400 l 207 181 l 324 839 l 361 839 l 246 182 l 475 400 l 501 375 l 213 101 l 19 375 z "},"↕":{"ha":560,"x_min":18,"x_max":535,"o":"m 18 375 l 54 400 l 207 183 l 308 758 l 78 540 l 51 565 l 342 839 l 535 565 l 500 540 l 346 758 l 244 182 l 475 400 l 501 375 l 211 101 l 18 375 z "},"↩":{"ha":1067,"x_min":35,"x_max":1057,"o":"m 351 711 l 372 681 l 118 488 l 842 488 q 908 501 876 488 q 965 539 940 515 q 1004 594 989 563 q 1019 660 1019 625 q 986 744 1019 711 q 893 778 953 778 l 860 778 l 867 815 l 908 815 q 1016 773 975 815 q 1057 667 1057 731 q 1039 586 1057 625 q 991 517 1021 547 q 922 469 961 488 q 843 450 883 450 l 113 450 l 297 257 l 265 228 l 35 469 l 351 711 z "},"↪":{"ha":1136,"x_min":72,"x_max":1094,"o":"m 778 711 l 757 681 l 1011 488 l 288 488 q 221 501 253 488 q 165 539 189 515 q 125 594 140 563 q 110 660 110 625 q 143 744 110 711 q 236 778 176 778 l 269 778 l 263 815 l 221 815 q 113 773 154 815 q 72 667 72 731 q 90 586 72 625 q 138 517 108 547 q 207 469 168 488 q 286 450 246 450 l 1017 450 l 832 257 l 864 228 l 1094 469 l 778 711 z "},"Ċ":{"ha":554,"x_min":3,"x_max":599,"o":"m 101 701 q 140 819 113 767 q 208 908 168 871 q 299 965 247 944 q 410 985 350 985 q 599 899 536 985 l 568 874 q 428 942 513 942 q 330 906 368 942 q 279 800 292 869 l 168 178 q 263 29 142 29 q 377 60 324 29 q 463 144 431 92 l 494 129 q 386 23 454 60 q 236 -14 318 -14 q 58 66 114 -14 q 25 281 3 146 l 101 701 m 360 1101 q 384 1144 364 1128 q 431 1161 404 1161 q 472 1144 457 1161 q 482 1103 486 1128 q 457 1060 478 1076 q 410 1043 436 1043 q 369 1060 383 1043 q 360 1101 356 1076 z "},"Ė":{"ha":468,"x_min":-21,"x_max":521,"o":"m 521 971 l 515 935 l 308 935 l 235 514 l 411 514 l 406 478 l 228 478 l 149 36 l 356 36 l 350 0 l -21 0 l 151 971 l 521 971 m 301 1101 q 326 1144 306 1128 q 372 1161 346 1161 q 413 1144 399 1161 q 424 1103 428 1128 q 399 1060 419 1076 q 351 1043 378 1043 q 311 1060 325 1043 q 301 1101 297 1076 z "},"Ġ":{"ha":621,"x_min":-3,"x_max":610,"o":"m 99 703 q 206 908 122 833 q 414 983 289 983 q 529 962 479 983 q 610 899 579 940 l 581 874 q 518 922 557 904 q 436 939 479 939 q 328 902 371 939 q 274 800 285 865 l 160 168 q 263 25 135 25 q 339 36 299 25 l 414 454 l 301 454 l 308 490 l 567 490 l 486 46 q 432 22 463 33 q 368 3 401 11 q 301 -8 335 -4 q 239 -12 268 -12 q 55 66 113 -12 q 21 279 -3 144 l 99 703 m 371 1101 q 395 1144 375 1128 q 442 1161 415 1161 q 483 1144 468 1161 q 493 1103 497 1128 q 468 1060 489 1076 q 421 1043 447 1043 q 381 1060 394 1043 q 371 1101 367 1076 z "},"İ":{"ha":294,"x_min":-21,"x_max":321,"o":"m 314 971 l 142 0 l -21 0 l 151 971 l 314 971 m 194 1101 q 219 1144 199 1128 q 265 1161 239 1161 q 306 1144 292 1161 q 317 1103 321 1128 q 292 1060 313 1076 q 244 1043 271 1043 q 204 1060 218 1043 q 194 1101 190 1076 z "},"Ţ":{"ha":496,"x_min":47,"x_max":592,"o":"m 585 935 l 408 935 l 243 0 l 81 0 l 246 935 l 69 935 l 75 971 l 592 971 l 585 935 m 64 -122 q 96 -146 75 -136 q 136 -156 117 -156 q 170 -144 156 -156 q 185 -114 185 -133 q 113 -65 185 -74 l 154 4 l 175 4 l 150 -42 q 230 -63 199 -44 q 261 -114 261 -82 q 228 -167 261 -149 q 156 -186 196 -186 q 92 -174 121 -186 q 47 -137 63 -161 l 64 -122 z "},"Ç":{"ha":554,"x_min":3,"x_max":599,"o":"m 101 701 q 140 819 113 767 q 208 908 168 871 q 299 965 247 944 q 410 985 350 985 q 599 899 536 985 l 568 874 q 428 942 513 942 q 330 906 368 942 q 279 800 292 869 l 168 178 q 263 29 142 29 q 377 60 324 29 q 463 144 431 92 l 494 129 q 386 23 454 60 q 236 -14 318 -14 q 58 66 114 -14 q 25 281 3 146 l 101 701 m 139 -126 q 171 -150 150 -140 q 211 -160 192 -160 q 245 -149 231 -160 q 260 -118 260 -137 q 188 -69 260 -78 l 229 0 l 250 0 l 225 -46 q 305 -67 274 -49 q 336 -118 336 -86 q 303 -172 336 -153 q 231 -190 271 -190 q 167 -178 196 -190 q 122 -142 138 -165 l 139 -126 z "},"Ż":{"ha":585,"x_min":-54,"x_max":617,"o":"m 161 935 l 168 971 l 617 971 l 611 935 l 124 36 l 472 36 l 465 0 l -54 0 l -47 36 l 440 935 l 161 935 m 347 1101 q 372 1144 351 1128 q 418 1161 392 1161 q 459 1144 444 1161 q 469 1103 474 1128 q 444 1060 465 1076 q 397 1043 424 1043 q 357 1060 371 1043 q 347 1101 343 1076 z "},"ċ":{"ha":460,"x_min":-12,"x_max":468,"o":"m 42 476 q 74 566 50 525 q 133 637 99 607 q 212 683 168 667 q 303 700 256 700 q 397 681 354 700 q 468 629 440 663 l 439 606 q 386 647 419 631 q 319 664 353 664 q 251 639 279 664 q 217 569 224 614 l 139 129 q 153 53 131 81 q 219 25 175 25 q 310 51 264 25 q 381 117 356 76 l 408 103 q 314 17 372 49 q 186 -14 256 -14 q 97 3 136 -14 q 32 49 57 19 q -3 121 7 79 q -4 211 -12 163 l 42 476 m 274 861 q 298 904 278 888 q 344 921 318 921 q 385 904 371 921 q 396 863 400 888 q 371 819 392 836 q 324 803 350 803 q 283 819 297 803 q 274 861 269 836 z "},"ė":{"ha":524,"x_min":-15,"x_max":497,"o":"m 44 486 q 76 569 51 531 q 135 638 100 608 q 214 683 171 667 q 303 700 257 700 q 385 683 347 700 q 449 636 422 665 q 486 569 475 607 q 490 488 497 531 l 463 333 l 174 333 l 136 117 q 153 49 129 75 q 221 22 176 22 q 319 54 271 22 q 396 139 368 86 l 425 126 q 324 24 386 60 q 189 -12 263 -12 q 101 4 140 -12 q 35 49 61 21 q -3 117 8 78 q -7 199 -15 156 l 44 486 m 311 367 l 349 582 q 342 642 356 618 q 300 667 328 667 q 249 642 272 667 q 218 582 225 618 l 181 367 l 311 367 m 268 861 q 292 904 272 888 q 339 921 313 921 q 380 904 365 921 q 390 863 394 888 q 365 819 386 836 q 318 803 344 803 q 278 819 292 803 q 268 861 264 836 z "},"ż":{"ha":499,"x_min":-44,"x_max":504,"o":"m -44 0 l -39 33 l 324 654 l 121 654 l 126 688 l 504 688 l 497 654 l 135 33 l 388 33 l 382 0 l -44 0 m 282 861 q 306 904 286 888 q 353 921 326 921 q 394 904 379 921 q 404 863 408 888 q 379 819 400 836 q 332 803 358 803 q 292 819 306 803 q 282 861 278 836 z "},"Ģ":{"ha":621,"x_min":-3,"x_max":610,"o":"m 99 703 q 206 908 122 833 q 414 983 289 983 q 529 962 479 983 q 610 899 579 940 l 581 874 q 518 922 557 904 q 436 939 479 939 q 328 902 371 939 q 274 800 285 865 l 160 168 q 263 25 135 25 q 339 36 299 25 l 414 454 l 301 454 l 308 490 l 567 490 l 486 46 q 432 22 463 33 q 368 3 401 11 q 301 -8 335 -4 q 239 -12 268 -12 q 55 66 113 -12 q 21 279 -3 144 l 99 703 m 256 -156 q 222 -162 235 -162 q 187 -149 200 -162 q 174 -112 174 -136 q 196 -61 174 -83 q 250 -39 218 -39 q 303 -107 303 -39 q 267 -205 303 -162 q 175 -254 231 -247 l 172 -235 q 233 -204 211 -225 q 256 -156 254 -183 z "},"А":{"ha":478,"x_min":-97,"x_max":401,"o":"m 260 971 l 331 971 l 401 0 l 233 0 l 213 289 l 49 289 l -58 0 l -97 0 l 260 971 m 164 606 l 61 325 l 210 325 l 190 606 l 190 661 l 181 661 l 164 606 z "},"Б":{"ha":585,"x_min":-19,"x_max":558,"o":"m 340 504 q 420 485 385 504 q 478 435 456 467 q 511 360 501 403 q 513 268 521 317 l 506 231 q 473 141 497 183 q 415 67 449 99 q 338 18 381 36 q 251 0 296 0 l -19 0 l 151 971 l 558 971 l 551 935 l 307 935 l 231 504 l 340 504 m 354 293 q 354 426 369 383 q 293 468 339 468 l 225 468 l 149 36 l 228 36 q 298 73 274 36 q 339 206 322 110 l 354 293 z "},"В":{"ha":585,"x_min":-21,"x_max":585,"o":"m 571 719 q 543 635 563 672 q 498 570 524 597 q 441 527 472 543 q 376 507 410 511 l 356 504 l 354 496 l 374 492 q 438 467 410 486 q 485 417 467 447 q 511 348 504 386 q 511 268 518 310 l 506 231 q 476 148 499 189 q 421 74 454 107 q 344 20 388 40 q 251 0 301 0 l -21 0 l 151 971 l 400 971 q 481 954 444 971 q 542 908 518 938 q 575 839 565 879 q 576 751 585 799 l 571 719 m 300 518 q 366 557 344 518 q 404 689 388 596 l 418 768 q 426 898 433 861 q 372 935 418 935 l 307 935 l 233 518 l 300 518 m 357 307 q 356 441 372 400 q 294 482 339 482 l 226 482 l 149 36 l 228 36 q 299 74 275 36 q 339 204 324 113 l 357 307 z "},"Г":{"ha":415,"x_min":-21,"x_max":511,"o":"m 151 971 l 511 971 l 504 935 l 307 935 l 142 0 l -21 0 l 151 971 z "},"Д":{"ha":553,"x_min":-132,"x_max":575,"o":"m -132 -210 l -92 22 l -57 22 q -7 95 -31 51 q 38 202 17 139 q 80 351 60 265 q 119 547 100 436 l 194 971 l 575 971 l 408 22 l 481 22 l 440 -210 l 278 -210 l 313 -14 l -61 -14 l -96 -210 l -132 -210 m 246 22 l 407 935 l 225 935 l 154 532 q 121 367 139 447 q 81 221 103 288 q 35 103 60 154 q -19 22 10 51 l 246 22 z "},"Е":{"ha":468,"x_min":-21,"x_max":521,"o":"m 521 971 l 514 935 l 307 935 l 233 514 l 410 514 l 404 478 l 226 478 l 149 36 l 356 36 l 349 0 l -21 0 l 151 971 l 521 971 z "},"Ж":{"ha":922,"x_min":-97,"x_max":947,"o":"m 676 0 l 604 414 q 581 477 596 463 q 543 492 565 492 l 542 492 l 454 0 l 292 0 l 379 492 l 378 492 q 335 478 356 492 q 290 415 315 464 l 72 0 l -97 0 l 113 381 q 201 493 157 460 q 303 529 244 526 l 143 971 l 186 971 l 346 529 l 385 529 l 464 971 l 626 971 l 549 529 l 589 529 l 904 971 l 947 971 l 632 529 q 722 493 689 526 q 769 381 754 460 l 844 0 l 676 0 z "},"З":{"ha":649,"x_min":-19,"x_max":658,"o":"m 213 -14 q 83 2 143 -14 q -19 49 24 18 l 7 81 q 92 42 49 54 q 178 29 136 29 q 333 85 269 29 q 413 236 396 140 l 425 300 q 403 435 440 385 q 290 485 365 485 l 260 485 l 267 521 l 296 521 q 415 570 365 521 q 481 707 465 619 l 488 750 q 465 885 503 835 q 354 936 428 936 q 267 919 313 936 q 176 869 221 901 l 154 897 q 269 960 203 938 q 408 983 335 983 q 518 967 469 983 q 599 919 567 950 q 645 847 632 889 q 650 751 658 804 l 643 714 q 565 570 626 621 q 403 511 503 519 l 375 508 l 374 497 l 400 494 q 551 432 503 485 q 583 288 600 379 l 576 242 q 535 136 567 183 q 455 56 503 89 q 345 4 407 22 q 213 -14 283 -14 z "},"И":{"ha":557,"x_min":-28,"x_max":585,"o":"m 585 971 l 414 0 l 376 0 l 517 792 l 529 847 l 519 847 l 492 792 l 43 0 l -28 0 l 143 971 l 181 971 l 81 411 l 68 356 l 78 356 l 106 411 l 419 971 l 585 971 z "},"Й":{"ha":557,"x_min":-28,"x_max":585,"o":"m 585 971 l 414 0 l 376 0 l 517 792 l 529 847 l 519 847 l 492 792 l 43 0 l -28 0 l 143 971 l 181 971 l 81 411 l 68 356 l 78 356 l 106 411 l 419 971 l 585 971 m 471 1167 l 492 1167 q 441 1070 481 1108 q 349 1032 401 1032 q 268 1070 296 1032 q 250 1167 240 1108 l 271 1167 q 290 1117 265 1136 q 360 1097 315 1097 q 434 1116 403 1097 q 471 1167 465 1135 z "},"К":{"ha":608,"x_min":-22,"x_max":633,"o":"m 363 0 l 290 414 q 267 477 282 463 q 229 492 251 492 l 228 492 l 140 0 l -22 0 l 150 971 l 313 971 l 235 529 l 275 529 l 590 971 l 633 971 l 318 529 q 407 493 374 526 q 456 381 440 460 l 531 0 l 363 0 z "},"Л":{"ha":757,"x_min":-93,"x_max":776,"o":"m -74 53 q -4 31 -39 31 q 57 63 32 31 q 100 179 82 96 l 267 971 l 776 971 l 606 0 l 443 0 l 608 935 l 422 935 l 285 304 q 180 65 251 144 q 17 -14 108 -14 q -93 18 -44 -14 l -74 53 z "},"М":{"ha":746,"x_min":-28,"x_max":767,"o":"m 594 0 l 432 0 l 567 758 l 579 814 l 569 814 l 553 758 l 279 0 l 208 0 l 158 758 l 158 814 l 149 814 l 142 758 l 8 0 l -28 0 l 143 972 l 315 972 l 351 381 l 353 325 l 363 325 l 378 381 l 592 972 l 767 972 l 594 0 z "},"Н":{"ha":646,"x_min":-21,"x_max":665,"o":"m 314 971 l 231 503 l 421 503 l 504 971 l 665 971 l 494 0 l 332 0 l 414 467 l 225 467 l 142 0 l -21 0 l 151 971 l 314 971 z "},"О":{"ha":639,"x_min":8,"x_max":631,"o":"m 96 706 q 135 819 107 768 q 203 908 163 871 q 297 965 244 944 q 407 985 349 985 q 510 965 465 985 q 583 908 556 944 q 621 819 611 871 q 619 706 631 768 l 543 278 q 503 158 532 213 q 434 66 475 104 q 341 7 393 28 q 231 -14 289 -14 q 127 7 172 -14 q 55 66 82 28 q 18 158 28 104 q 21 278 8 213 l 96 706 m 164 172 q 238 24 139 24 q 361 172 336 24 l 472 800 q 400 947 497 947 q 320 909 353 947 q 275 800 288 871 l 164 172 z "},"П":{"ha":646,"x_min":-21,"x_max":665,"o":"m 150 971 l 665 971 l 494 0 l 332 0 l 497 935 l 306 935 l 142 0 l -21 0 l 150 971 z "},"Р":{"ha":579,"x_min":-21,"x_max":597,"o":"m 397 971 q 487 952 447 971 q 551 901 526 933 q 587 827 576 869 q 589 738 597 785 l 581 686 q 548 597 572 639 q 487 522 524 554 q 405 472 450 490 q 310 453 360 453 l 222 453 l 142 0 l -21 0 l 151 971 l 397 971 m 431 756 q 433 892 447 850 q 374 935 419 935 l 307 935 l 228 489 l 301 489 q 372 532 346 489 q 415 668 399 575 l 431 756 z "},"С":{"ha":554,"x_min":3,"x_max":599,"o":"m 101 701 q 140 819 113 767 q 208 908 168 871 q 299 965 247 944 q 410 985 350 985 q 599 899 536 985 l 568 874 q 428 942 513 942 q 330 906 368 942 q 279 800 292 869 l 168 178 q 263 29 142 29 q 377 60 324 29 q 463 144 431 92 l 494 129 q 386 23 454 60 q 236 -14 318 -14 q 58 66 114 -14 q 25 281 3 146 l 101 701 z "},"Т":{"ha":496,"x_min":69,"x_max":592,"o":"m 585 935 l 408 935 l 243 0 l 81 0 l 246 935 l 69 935 l 75 971 l 592 971 l 585 935 z "},"У":{"ha":378,"x_min":-36,"x_max":471,"o":"m 260 581 l 260 525 l 269 525 l 286 581 l 433 971 l 471 971 l 139 90 q 85 17 119 42 q 7 -8 51 -8 q -36 -3 -15 -8 l -22 33 q 52 38 21 24 q 103 99 83 51 l 118 138 l 75 971 l 242 971 l 260 581 z "},"Ф":{"ha":719,"x_min":8,"x_max":708,"o":"m 263 42 q 66 126 124 46 q 38 372 8 207 l 78 600 q 192 841 106 758 q 418 929 279 924 l 433 1014 l 472 1014 l 457 931 q 652 842 596 924 q 681 600 708 760 l 640 372 q 526 126 611 206 q 301 42 440 46 l 286 -43 l 247 -43 l 263 42 m 307 78 q 366 89 342 79 q 408 122 390 99 q 439 182 426 144 q 461 278 451 219 l 532 682 q 544 779 543 740 q 537 843 546 818 q 507 880 528 868 q 451 893 486 892 l 307 78 m 185 278 q 174 183 175 221 q 182 122 172 144 q 213 89 192 99 q 268 78 233 79 l 413 893 q 353 879 378 892 q 309 842 328 867 q 278 778 290 817 q 256 682 265 739 l 185 278 z "},"Х":{"ha":500,"x_min":-96,"x_max":568,"o":"m 308 667 l 314 613 l 324 613 l 351 667 l 526 971 l 568 971 l 328 556 l 424 0 l 254 0 l 192 356 l 186 408 l 176 408 l 150 356 l -56 0 l -96 0 l 172 467 l 85 971 l 257 971 l 308 667 z "},"Ц":{"ha":671,"x_min":-19,"x_max":667,"o":"m 151 971 l 314 971 l 149 36 l 339 36 l 504 971 l 667 971 l 501 36 l 610 36 l 576 -151 l 482 -151 l 508 0 l -19 0 l 151 971 z "},"Ч":{"ha":613,"x_min":51,"x_max":631,"o":"m 363 379 q 282 296 326 321 q 189 271 238 271 q 127 282 154 271 q 82 315 100 293 q 58 369 64 338 q 58 440 51 400 l 151 971 l 314 971 l 211 393 q 213 331 204 349 q 240 314 221 314 q 281 327 258 314 q 324 361 303 340 q 360 408 344 382 q 379 457 375 433 l 469 971 l 631 971 l 460 0 l 297 0 l 358 336 l 371 376 l 363 379 z "},"Ш":{"ha":889,"x_min":-19,"x_max":908,"o":"m 151 971 l 314 971 l 149 36 l 285 36 l 449 971 l 611 971 l 447 36 l 582 36 l 746 971 l 908 971 l 738 0 l -19 0 l 151 971 z "},"Щ":{"ha":914,"x_min":-19,"x_max":908,"o":"m 151 971 l 314 971 l 149 36 l 285 36 l 449 971 l 611 971 l 447 36 l 582 36 l 746 971 l 908 971 l 738 0 l -19 0 l 151 971 m 725 36 l 853 36 l 819 -151 l 725 -151 l 751 0 l 719 0 l 725 36 z "},"Ъ":{"ha":618,"x_min":14,"x_max":561,"o":"m 351 546 q 445 528 404 546 q 513 478 486 510 q 551 403 540 447 q 553 310 561 360 l 539 231 q 506 141 531 183 q 448 67 482 99 q 372 18 414 36 q 285 0 329 0 l 14 0 l 178 935 l 69 935 l 75 971 l 347 971 l 272 546 l 351 546 m 396 336 q 333 510 426 510 l 265 510 l 182 36 l 261 36 q 331 73 306 36 q 372 204 356 110 l 396 336 z "},"Ы":{"ha":863,"x_min":-21,"x_max":883,"o":"m 318 546 q 412 528 371 546 q 480 478 453 510 q 517 403 507 447 q 519 310 528 360 l 506 231 q 473 141 497 183 q 414 67 449 99 q 337 18 379 36 q 250 0 294 0 l -21 0 l 150 971 l 313 971 l 238 546 l 318 546 m 883 971 l 711 0 l 549 0 l 721 971 l 883 971 m 363 336 q 299 510 393 510 l 231 510 l 147 36 l 228 36 q 297 73 272 36 q 339 204 322 110 l 363 336 z "},"Ь":{"ha":585,"x_min":-21,"x_max":528,"o":"m 318 546 q 412 528 371 546 q 480 478 453 510 q 517 403 507 447 q 519 310 528 360 l 506 231 q 473 141 497 183 q 414 67 449 99 q 337 18 379 36 q 250 0 294 0 l -21 0 l 150 971 l 313 971 l 238 546 l 318 546 m 363 336 q 299 510 393 510 l 231 510 l 147 36 l 228 36 q 297 73 272 36 q 339 204 322 110 l 363 336 z "},"Э":{"ha":542,"x_min":-74,"x_max":544,"o":"m 447 281 q 340 66 424 144 q 133 -12 256 -12 q -4 24 50 -12 q -74 129 -58 61 l -37 144 q 19 60 -24 92 q 121 29 61 29 q 267 178 240 29 l 318 468 l 96 468 l 101 504 l 324 504 l 376 800 q 363 906 388 869 q 279 942 339 942 q 117 874 196 942 l 94 897 q 194 962 139 940 q 313 983 250 983 q 488 908 432 983 q 521 701 544 832 l 447 281 z "},"Ю":{"ha":893,"x_min":-19,"x_max":894,"o":"m 314 971 l 232 503 l 326 503 l 361 706 q 400 819 372 768 q 469 906 428 869 q 562 963 510 943 q 672 983 614 983 q 775 963 731 983 q 847 907 819 943 q 885 819 875 871 q 883 706 894 768 l 808 278 q 769 159 797 213 q 699 67 740 106 q 606 8 658 29 q 496 -12 554 -12 q 393 8 438 -12 q 322 67 349 29 q 285 159 294 106 q 288 278 275 213 l 319 467 l 225 467 l 143 0 l -19 0 l 151 971 l 314 971 m 429 172 q 503 24 404 24 q 626 172 601 24 l 738 799 q 667 947 765 947 q 585 909 618 947 q 540 799 553 871 l 429 172 z "},"Я":{"ha":621,"x_min":-40,"x_max":639,"o":"m 468 0 l 306 0 l 388 467 l 363 467 q 333 463 346 467 q 310 447 321 458 q 290 416 300 436 q 268 364 281 396 l 125 0 l -40 0 l 94 340 q 124 389 104 365 q 168 431 143 413 q 222 462 193 450 q 281 475 251 474 l 282 485 q 203 508 238 489 q 146 559 168 528 q 115 630 124 590 q 114 715 106 669 l 118 738 q 151 827 126 785 q 213 901 176 869 q 297 952 250 933 q 393 971 343 971 l 639 971 l 468 0 m 271 682 q 265 546 254 589 q 321 503 276 503 l 394 503 l 471 935 l 404 935 q 328 892 357 935 q 283 756 300 850 l 271 682 z "},"Ё":{"ha":468,"x_min":-21,"x_max":521,"o":"m 521 971 l 514 935 l 307 935 l 233 514 l 410 514 l 404 478 l 226 478 l 149 36 l 356 36 l 349 0 l -21 0 l 151 971 l 521 971 m 210 1103 q 235 1145 214 1129 q 281 1161 256 1161 q 321 1145 306 1161 q 332 1103 336 1129 q 306 1060 328 1076 q 260 1043 285 1043 q 220 1060 235 1043 q 210 1103 206 1076 m 390 1103 q 417 1145 396 1129 q 461 1161 438 1161 q 503 1145 489 1161 q 513 1103 518 1129 q 488 1060 508 1076 q 440 1043 468 1043 q 401 1060 417 1043 q 390 1103 386 1076 z "},"Ђ":{"ha":636,"x_min":39,"x_max":596,"o":"m 543 935 l 367 935 l 314 635 l 300 594 l 308 592 q 378 676 343 651 q 458 701 413 701 q 519 690 492 701 q 563 659 546 679 q 588 613 581 639 q 590 556 596 586 l 501 51 q 474 -33 493 6 q 422 -107 454 -72 q 342 -175 389 -142 q 231 -242 294 -208 l 217 -219 q 251 -193 235 -207 q 280 -162 267 -179 q 303 -121 293 -144 q 319 -64 314 -97 l 435 590 q 411 658 447 658 q 377 644 396 658 q 341 610 358 631 q 310 563 324 589 q 293 514 297 538 l 201 0 l 39 0 l 204 935 l 69 935 l 75 971 l 550 971 l 543 935 z "},"Ѓ":{"ha":415,"x_min":-21,"x_max":511,"o":"m 151 971 l 511 971 l 504 935 l 307 935 l 142 0 l -21 0 l 151 971 m 310 1028 l 379 1186 l 493 1186 l 336 1028 l 310 1028 z "},"Ґ":{"ha":415,"x_min":-19,"x_max":535,"o":"m 153 971 l 408 971 l 433 1107 l 535 1107 l 504 935 l 307 935 l 143 0 l -19 0 l 153 971 z "},"Є":{"ha":554,"x_min":-1,"x_max":593,"o":"m 96 701 q 135 819 107 767 q 202 907 163 871 q 293 963 242 943 q 404 983 344 983 q 515 962 467 983 q 593 897 563 940 l 563 874 q 422 942 506 942 q 326 906 364 942 q 276 800 288 869 l 224 504 l 446 504 l 440 468 l 218 468 l 167 178 q 260 29 140 29 q 373 60 319 29 q 458 144 426 92 l 489 129 q 382 24 449 61 q 232 -12 315 -12 q 54 66 110 -12 q 22 281 -1 144 l 96 701 z "},"Ѕ":{"ha":521,"x_min":-19,"x_max":543,"o":"m 272 164 q 246 296 272 215 l 133 642 q 122 688 125 665 q 118 733 118 710 q 137 832 118 786 q 188 912 156 878 q 265 965 221 946 q 361 985 310 985 q 466 961 418 985 q 543 897 514 938 l 513 872 q 457 920 492 901 q 389 939 422 939 q 313 899 342 939 q 283 797 283 860 q 287 752 283 775 q 299 703 290 729 l 428 290 q 440 213 440 251 q 419 124 440 165 q 363 51 399 82 q 277 3 326 21 q 171 -14 228 -14 q 69 2 118 -14 q -19 49 21 18 l 6 79 q 81 42 40 56 q 156 29 121 29 q 241 65 210 29 q 272 164 272 100 z "},"І":{"ha":294,"x_min":-21,"x_max":314,"o":"m 314 971 l 142 0 l -21 0 l 151 971 l 314 971 z "},"Ї":{"ha":294,"x_min":-21,"x_max":413,"o":"m 314 971 l 142 0 l -21 0 l 151 971 l 314 971 m 104 1103 q 129 1145 108 1129 q 175 1161 150 1161 q 215 1145 200 1161 q 226 1103 231 1129 q 201 1060 222 1076 q 154 1043 179 1043 q 115 1060 129 1043 q 104 1103 100 1076 m 285 1103 q 311 1145 290 1129 q 356 1161 332 1161 q 398 1145 383 1161 q 407 1103 413 1129 q 383 1060 403 1076 q 335 1043 363 1043 q 296 1060 311 1043 q 285 1103 281 1076 z "},"Ј":{"ha":425,"x_min":-87,"x_max":444,"o":"m -87 50 l -65 74 q 36 28 -17 28 q 99 59 74 28 q 136 149 125 90 l 282 971 l 444 971 l 314 236 q 281 136 304 182 q 223 57 257 90 q 147 5 189 24 q 60 -14 106 -14 q -87 50 -26 -14 z "},"Љ":{"ha":1047,"x_min":-93,"x_max":990,"o":"m 701 546 l 781 546 q 874 528 833 546 q 942 478 915 510 q 980 403 969 447 q 982 310 990 360 l 968 231 q 935 141 960 183 q 877 67 911 99 q 801 18 843 36 q 714 0 758 0 l 442 0 l 607 935 l 421 935 l 285 304 q 180 66 251 144 q 17 -12 108 -12 q -93 19 -47 -12 l -74 53 q -4 31 -39 31 q 57 63 32 31 q 100 179 82 96 l 267 971 l 776 971 l 701 546 m 825 336 q 763 510 856 510 l 694 510 l 611 36 l 692 36 q 760 73 736 36 q 801 204 785 110 l 825 336 z "},"Њ":{"ha":938,"x_min":-21,"x_max":874,"o":"m 313 971 l 231 503 l 421 503 l 503 971 l 665 971 l 583 503 l 664 503 q 758 485 717 503 q 826 435 799 467 q 863 360 853 404 q 865 267 874 317 l 858 231 q 826 141 850 183 q 767 67 801 99 q 691 18 733 36 q 604 0 649 0 l 332 0 l 414 467 l 224 467 l 142 0 l -21 0 l 150 971 l 313 971 m 707 293 q 644 467 738 467 l 576 467 l 500 36 l 581 36 q 650 73 625 36 q 692 204 675 110 l 707 293 z "},"Ћ":{"ha":636,"x_min":39,"x_max":596,"o":"m 544 935 l 367 935 l 314 635 l 300 594 l 310 592 q 378 676 343 651 q 458 701 413 701 q 519 690 492 701 q 564 659 546 679 q 589 613 582 639 q 590 556 596 586 l 493 0 l 331 0 l 435 590 q 411 658 447 658 q 377 644 396 658 q 341 610 358 631 q 310 563 324 589 q 293 514 297 538 l 201 0 l 39 0 l 204 935 l 69 935 l 75 971 l 550 971 l 544 935 z "},"Ќ":{"ha":608,"x_min":-22,"x_max":633,"o":"m 363 0 l 290 414 q 267 477 282 463 q 229 492 251 492 l 228 492 l 140 0 l -22 0 l 150 971 l 313 971 l 235 529 l 275 529 l 590 971 l 633 971 l 318 529 q 407 493 374 526 q 456 381 440 460 l 531 0 l 363 0 m 379 1028 l 449 1186 l 563 1186 l 406 1028 l 379 1028 z "},"Ў":{"ha":378,"x_min":-36,"x_max":471,"o":"m 260 581 l 260 525 l 269 525 l 286 581 l 433 971 l 471 971 l 139 90 q 85 17 119 42 q 7 -8 51 -8 q -36 -3 -15 -8 l -22 33 q 52 38 21 24 q 103 99 83 51 l 118 138 l 75 971 l 242 971 l 260 581 m 426 1167 l 447 1167 q 397 1070 436 1108 q 304 1032 357 1032 q 224 1070 251 1032 q 206 1167 196 1108 l 226 1167 q 246 1117 221 1136 q 315 1097 271 1097 q 390 1116 358 1097 q 426 1167 421 1135 z "},"Џ":{"ha":646,"x_min":-19,"x_max":667,"o":"m 151 971 l 314 971 l 149 33 l 339 33 l 504 971 l 667 971 l 496 0 l 285 0 l 258 -151 l 165 -151 l 192 0 l -19 0 l 151 971 z "},"б":{"ha":636,"x_min":7,"x_max":667,"o":"m 19 272 l 86 654 q 144 825 106 760 q 235 928 183 890 q 349 983 288 967 q 472 1010 410 1000 l 667 1042 l 667 1007 l 474 974 q 393 956 428 965 q 333 921 358 946 q 288 850 307 896 q 256 725 269 804 l 232 592 q 314 638 264 621 q 413 656 364 656 q 492 640 457 656 q 551 595 528 625 q 582 522 574 565 q 581 422 590 478 l 554 272 q 513 154 543 207 q 439 64 482 101 q 344 6 396 26 q 236 -14 292 -14 q 135 6 181 -14 q 60 64 90 26 q 19 154 31 101 q 19 272 7 207 m 225 554 l 157 163 q 173 61 146 99 q 242 24 200 24 q 326 68 283 24 q 386 211 368 113 l 424 428 q 429 512 432 478 q 415 567 426 546 q 386 599 404 589 q 347 608 368 608 q 285 594 319 608 q 225 554 251 579 z "},"в":{"ha":531,"x_min":-35,"x_max":499,"o":"m 488 510 q 461 440 481 468 q 417 396 442 413 q 365 372 392 379 q 314 361 338 364 l 299 360 l 297 350 l 311 347 q 363 333 336 343 q 410 303 389 322 q 442 257 431 285 q 446 190 453 229 l 442 164 q 413 94 435 125 q 361 43 392 64 q 295 11 331 22 q 224 0 260 0 l -35 0 l 86 688 l 329 688 q 393 679 361 688 q 449 652 425 671 q 486 604 474 633 q 492 533 499 575 l 488 510 m 244 371 q 301 399 279 371 q 333 494 322 428 l 340 536 q 340 628 351 603 q 296 653 328 653 l 233 653 l 183 371 l 244 371 m 297 211 q 290 308 308 278 q 239 338 272 338 l 178 338 l 124 35 l 196 35 q 253 61 229 35 q 288 153 276 88 l 297 211 z "},"г":{"ha":383,"x_min":-35,"x_max":410,"o":"m 88 688 l 410 688 l 403 654 l 233 654 l 118 0 l -35 0 l 88 688 z "},"д":{"ha":522,"x_min":-117,"x_max":508,"o":"m -117 -182 l -81 21 l -37 21 q 9 94 -12 50 q 51 201 31 139 q 91 346 72 264 q 128 533 110 428 l 156 688 l 508 688 l 393 21 l 465 21 l 431 -182 l 278 -182 l 308 -12 l -53 -12 l -82 -182 l -117 -182 m 240 21 l 351 653 l 183 653 l 160 518 q 128 361 146 438 q 91 220 111 285 q 48 104 71 156 q -3 21 25 53 l 240 21 z "},"е":{"ha":524,"x_min":-15,"x_max":497,"o":"m 44 486 q 76 569 51 531 q 135 638 100 608 q 214 683 171 667 q 303 700 257 700 q 385 683 347 700 q 449 636 422 665 q 486 569 475 607 q 490 488 497 531 l 463 333 l 174 333 l 136 117 q 153 49 129 75 q 221 22 176 22 q 319 54 271 22 q 396 139 368 86 l 425 126 q 324 24 386 60 q 189 -12 263 -12 q 101 4 140 -12 q 35 49 61 21 q -3 117 8 78 q -7 199 -15 156 l 44 486 m 311 367 l 349 582 q 342 642 356 618 q 300 667 328 667 q 249 642 272 667 q 218 582 225 618 l 181 367 l 311 367 z "},"ж":{"ha":757,"x_min":-93,"x_max":719,"o":"m 472 303 q 458 335 468 326 q 432 344 447 344 l 428 344 l 368 0 l 215 0 l 276 344 l 272 344 q 244 335 258 344 q 218 303 231 326 l 65 0 l -93 0 l 53 272 q 88 320 67 300 q 131 353 108 340 q 176 373 154 367 q 215 379 199 379 l 107 688 l 147 688 l 254 379 l 282 379 l 338 688 l 489 688 l 433 379 l 463 379 l 678 688 l 719 688 l 503 379 q 540 372 519 378 q 578 353 560 365 q 610 320 596 340 q 628 272 624 300 l 676 0 l 519 0 l 472 303 z "},"з":{"ha":482,"x_min":-81,"x_max":449,"o":"m 96 -14 q -81 31 -17 -14 l -57 60 q 61 25 -3 25 q 171 62 125 25 q 228 164 217 99 l 233 203 q 219 305 244 268 q 140 342 194 342 l 119 342 l 125 376 l 146 376 q 278 515 253 376 l 281 538 q 267 630 292 597 q 192 663 243 663 q 126 651 160 663 q 63 615 93 639 l 44 640 q 238 701 117 701 q 395 654 342 701 q 433 524 449 607 l 431 510 q 360 412 419 450 q 219 367 301 374 l 196 364 l 194 354 l 217 353 q 349 303 303 346 q 385 193 396 260 l 381 168 q 290 34 365 82 q 96 -14 214 -14 z "},"и":{"ha":494,"x_min":-35,"x_max":483,"o":"m 483 688 l 363 1 l 329 1 l 426 557 l 438 597 l 429 599 l 406 558 l 29 1 l -35 1 l 88 688 l 122 688 l 53 297 l 42 257 l 51 256 l 74 296 l 333 688 l 483 688 z "},"й":{"ha":494,"x_min":-35,"x_max":483,"o":"m 483 688 l 363 1 l 329 1 l 426 557 l 438 597 l 429 599 l 406 558 l 29 1 l -35 1 l 88 688 l 122 688 l 53 297 l 42 257 l 51 256 l 74 296 l 333 688 l 483 688 m 410 926 l 431 926 q 380 830 419 868 q 288 792 340 792 q 207 830 235 792 q 189 926 179 868 l 210 926 q 229 876 204 896 q 299 857 254 857 q 373 876 342 857 q 410 926 404 894 z "},"к":{"ha":507,"x_min":-33,"x_max":469,"o":"m 224 303 q 209 335 219 326 q 183 344 199 344 l 179 344 l 118 0 l -33 0 l 88 689 l 240 689 l 185 379 l 214 379 l 429 689 l 469 689 l 254 379 q 291 373 271 379 q 328 353 311 367 q 360 320 346 340 q 378 272 374 300 l 426 0 l 269 0 l 224 303 z "},"л":{"ha":608,"x_min":-83,"x_max":599,"o":"m -64 40 q -18 28 -42 28 q 28 56 11 28 q 60 147 44 85 l 185 688 l 599 688 l 476 0 l 325 0 l 440 654 l 331 654 l 222 189 q 186 104 211 142 q 129 40 161 67 q 62 0 97 14 q -6 -14 26 -14 q -83 10 -47 -14 l -64 40 z "},"м":{"ha":594,"x_min":-33,"x_max":585,"o":"m 464 0 l 311 0 l 406 533 l 415 575 l 407 575 l 396 533 l 197 0 l 135 0 l 107 533 l 108 575 l 99 575 l 94 533 l 0 0 l -33 0 l 88 686 l 254 686 l 269 344 l 267 304 l 276 304 l 289 344 l 418 686 l 585 686 l 464 0 z "},"н":{"ha":550,"x_min":-33,"x_max":540,"o":"m 240 689 l 183 363 l 331 363 l 388 689 l 540 689 l 419 0 l 267 0 l 325 328 l 176 328 l 119 0 l -33 0 l 88 689 l 240 689 z "},"о":{"ha":536,"x_min":-15,"x_max":497,"o":"m 301 701 q 385 684 347 701 q 449 638 422 667 q 486 569 475 608 q 490 489 497 531 l 439 199 q 407 117 431 156 q 348 49 383 78 q 270 3 313 19 q 182 -14 228 -14 q 99 3 136 -14 q 35 50 61 21 q -3 117 8 79 q -7 199 -15 156 l 43 489 q 76 571 51 532 q 135 639 100 610 q 214 685 171 668 q 301 701 257 701 m 300 667 q 249 642 272 667 q 218 582 225 618 l 133 104 q 142 44 126 68 q 186 21 157 21 q 236 44 214 21 q 265 104 258 68 l 349 582 q 342 643 356 619 q 300 667 328 667 z "},"п":{"ha":536,"x_min":-35,"x_max":525,"o":"m 525 688 l 404 0 l 253 0 l 368 653 l 232 653 l 117 0 l -35 0 l 86 688 l 525 688 z "},"р":{"ha":536,"x_min":-72,"x_max":500,"o":"m 224 613 l 232 610 q 288 679 258 658 q 356 700 318 700 q 419 685 390 700 q 466 642 447 669 q 492 581 485 615 q 493 506 500 546 l 439 194 q 409 115 431 153 q 358 48 388 76 q 292 3 328 19 q 219 -14 256 -14 q 136 64 149 -14 l 126 61 l 125 21 l 81 -233 l -72 -233 l 90 688 l 243 688 l 238 653 l 224 613 m 147 142 q 146 99 143 119 q 156 61 149 78 q 175 35 163 44 q 201 25 188 25 q 240 46 222 25 q 264 99 258 67 l 347 574 q 342 627 353 606 q 310 649 331 649 q 281 639 296 649 q 253 613 267 629 q 231 577 240 597 q 217 536 221 557 l 147 142 z "},"с":{"ha":460,"x_min":-12,"x_max":468,"o":"m 42 476 q 74 566 50 525 q 133 637 99 607 q 212 683 168 667 q 303 700 256 700 q 397 681 354 700 q 468 629 440 663 l 439 606 q 386 647 419 631 q 319 664 353 664 q 251 639 279 664 q 217 569 224 614 l 139 129 q 153 53 131 81 q 219 25 175 25 q 310 51 264 25 q 381 117 356 76 l 408 103 q 314 17 372 49 q 186 -14 256 -14 q 97 3 136 -14 q 32 49 57 19 q -3 121 7 79 q -4 211 -12 163 l 42 476 z "},"т":{"ha":467,"x_min":46,"x_max":483,"o":"m 478 654 l 339 654 l 224 0 l 71 0 l 186 654 l 46 654 l 53 688 l 483 688 l 478 654 z "},"у":{"ha":465,"x_min":-57,"x_max":483,"o":"m 214 688 l 257 310 l 257 269 l 267 269 l 281 310 l 446 688 l 483 688 l 117 -144 q -15 -243 74 -243 q -57 -237 -36 -243 l -42 -204 q 31 -199 0 -214 q 83 -136 61 -185 l 136 -17 l 54 688 l 214 688 z "},"ф":{"ha":588,"x_min":-14,"x_max":549,"o":"m 396 971 l 347 700 q 435 679 396 697 q 501 633 475 661 q 538 568 526 606 q 542 489 549 531 l 490 199 q 459 117 483 154 q 399 51 435 79 q 317 6 363 22 q 222 -12 272 -11 l 183 -233 l 149 -233 l 188 -12 q 100 9 139 -8 q 35 55 61 26 q -3 120 8 83 q -7 199 -14 157 l 44 489 q 76 571 51 533 q 136 636 100 608 q 217 681 172 664 q 313 700 263 699 l 361 971 l 396 971 m 228 21 q 317 104 303 26 l 401 582 q 342 667 415 658 l 228 21 m 307 665 q 218 582 233 657 l 133 104 q 193 22 121 31 l 307 665 z "},"х":{"ha":518,"x_min":-68,"x_max":469,"o":"m 215 688 l 271 492 l 278 454 l 288 454 l 307 492 l 431 688 l 469 688 l 294 410 l 414 0 l 254 0 l 176 271 l 169 308 l 160 308 l 140 271 l -29 0 l -68 0 l 153 353 l 57 688 l 215 688 z "},"ц":{"ha":574,"x_min":-35,"x_max":525,"o":"m 86 688 l 238 688 l 122 33 l 258 33 l 374 688 l 525 688 l 410 35 l 518 35 l 486 -151 l 392 -151 l 418 0 l -35 0 l 86 688 z "},"ч":{"ha":518,"x_min":13,"x_max":508,"o":"m 283 271 q 222 210 253 228 q 151 192 192 192 q 94 202 121 192 q 48 232 67 213 q 21 281 29 251 q 19 350 13 311 l 79 688 l 231 688 l 161 288 q 160 242 154 256 q 185 229 167 229 q 219 239 201 229 q 253 264 238 249 q 279 297 268 279 q 293 332 290 315 l 356 688 l 508 688 l 388 0 l 235 0 l 275 226 l 290 267 l 283 271 z "},"ш":{"ha":749,"x_min":-33,"x_max":739,"o":"m 88 688 l 240 688 l 125 35 l 222 35 l 336 688 l 489 688 l 374 35 l 471 35 l 586 688 l 739 688 l 618 0 l -33 0 l 88 688 z "},"щ":{"ha":785,"x_min":-33,"x_max":739,"o":"m 88 688 l 240 688 l 125 35 l 222 35 l 336 688 l 489 688 l 374 35 l 471 35 l 586 688 l 739 688 l 618 0 l -33 0 l 88 688 m 604 35 l 731 35 l 699 -151 l 604 -151 l 631 0 l 599 0 l 604 35 z "},"ъ":{"ha":571,"x_min":7,"x_max":486,"o":"m 322 388 q 391 375 360 388 q 444 340 422 363 q 476 286 465 317 q 479 219 486 256 l 469 164 q 443 101 464 131 q 393 49 422 71 q 328 13 364 26 q 256 0 292 0 l 7 0 l 122 654 l 31 654 l 38 689 l 281 689 l 228 388 l 322 388 m 328 229 q 283 353 350 353 l 221 353 l 165 35 l 236 35 q 285 60 268 35 q 315 154 303 86 l 328 229 z "},"ы":{"ha":751,"x_min":-35,"x_max":742,"o":"m 281 388 q 349 375 318 388 q 402 340 381 363 q 434 286 424 317 q 438 219 444 256 l 428 164 q 401 101 422 131 q 351 49 381 71 q 286 13 322 26 q 214 0 250 0 l -35 0 l 86 688 l 239 689 l 186 388 l 281 388 m 742 689 l 621 0 l 468 0 l 589 689 l 742 689 m 286 229 q 242 353 308 353 l 179 353 l 124 35 l 194 35 q 244 60 226 35 q 272 154 261 86 l 286 229 z "},"ь":{"ha":529,"x_min":-35,"x_max":444,"o":"m 281 388 q 349 375 318 388 q 402 340 381 363 q 434 286 424 317 q 438 219 444 256 l 428 164 q 401 101 422 131 q 351 49 381 71 q 286 13 322 26 q 214 0 250 0 l -35 0 l 86 688 l 239 689 l 186 388 l 281 388 m 286 229 q 242 353 308 353 l 179 353 l 124 35 l 194 35 q 244 60 226 35 q 272 154 261 86 l 286 229 z "},"э":{"ha":479,"x_min":-67,"x_max":440,"o":"m 385 211 q 351 122 376 163 q 291 51 326 81 q 210 4 256 21 q 115 -12 165 -12 q -3 18 46 -12 q -67 103 -51 49 l -33 118 q 14 51 -22 78 q 94 25 50 25 q 172 53 139 25 q 213 129 204 82 l 247 326 l 69 326 l 75 360 l 253 360 l 290 568 q 279 638 299 613 q 219 663 260 663 q 147 647 186 663 q 81 606 108 631 l 60 628 q 149 681 99 663 q 250 700 199 700 q 335 683 297 700 q 397 636 372 667 q 431 565 421 606 q 432 476 440 525 l 385 211 z "},"ю":{"ha":789,"x_min":-33,"x_max":750,"o":"m 556 701 q 639 684 601 701 q 702 638 676 667 q 739 570 728 608 q 743 489 750 532 l 692 199 q 660 117 685 156 q 601 50 636 79 q 524 4 567 21 q 436 -12 481 -12 q 352 4 390 -12 q 288 50 314 21 q 251 117 263 79 q 247 199 240 156 l 269 328 l 176 328 l 119 0 l -33 0 l 88 689 l 240 689 l 183 363 l 275 363 l 297 489 q 330 571 306 532 q 389 639 354 610 q 467 685 424 668 q 556 701 510 701 m 553 668 q 501 644 525 668 q 471 583 478 619 l 388 106 q 396 45 381 69 q 439 21 411 21 q 490 44 468 21 q 518 106 511 68 l 603 583 q 595 644 610 619 q 553 668 581 668 z "},"я":{"ha":526,"x_min":-42,"x_max":517,"o":"m 396 0 l 243 0 l 301 326 l 279 326 q 260 324 268 326 q 244 312 251 321 q 228 287 236 303 q 210 244 221 271 l 114 0 l -42 0 l 54 240 q 111 306 69 278 q 204 335 153 335 l 206 344 q 93 399 128 351 q 68 508 58 446 l 71 524 q 94 587 76 557 q 138 640 113 617 q 197 676 164 663 q 267 689 231 689 l 517 689 l 396 0 m 215 482 q 213 390 204 419 q 253 361 221 361 l 307 361 l 358 654 l 310 654 q 257 624 278 654 q 224 528 236 594 l 215 482 z "},"ё":{"ha":524,"x_min":-15,"x_max":497,"o":"m 44 486 q 76 569 51 531 q 135 638 100 608 q 214 683 171 667 q 303 700 257 700 q 385 683 347 700 q 449 636 422 665 q 486 569 475 607 q 490 488 497 531 l 463 333 l 174 333 l 136 117 q 153 49 129 75 q 221 22 176 22 q 319 54 271 22 q 396 139 368 86 l 425 126 q 324 24 386 60 q 189 -12 263 -12 q 101 4 140 -12 q 35 49 61 21 q -3 117 8 78 q -7 199 -15 156 l 44 486 m 311 367 l 349 582 q 342 642 356 618 q 300 667 328 667 q 249 642 272 667 q 218 582 225 618 l 181 367 l 311 367 m 178 863 q 203 905 182 889 q 249 921 224 921 q 289 905 274 921 q 300 863 304 889 q 274 819 296 836 q 228 803 253 803 q 188 819 203 803 q 178 863 174 836 m 358 863 q 385 905 364 889 q 429 921 406 921 q 472 905 457 921 q 481 863 486 889 q 456 819 476 836 q 408 803 436 803 q 369 819 385 803 q 358 863 354 836 z "},"ђ":{"ha":550,"x_min":-29,"x_max":521,"o":"m 231 592 q 299 676 265 651 q 378 701 332 701 q 484 660 447 701 q 510 556 521 618 l 421 50 q 395 -34 413 4 q 347 -107 378 -72 q 271 -175 317 -142 q 163 -242 225 -208 l 147 -219 q 208 -159 185 -193 q 240 -64 231 -125 l 354 590 q 332 658 367 658 q 298 644 317 658 q 262 610 279 631 q 231 563 244 589 q 214 514 218 538 l 124 0 l -29 0 l 110 790 l 67 790 l 74 824 l 115 824 l 142 972 l 294 972 l 268 824 l 371 824 l 365 790 l 263 790 l 235 635 l 222 594 l 231 592 z "},"ѓ":{"ha":383,"x_min":-35,"x_max":410,"o":"m 88 688 l 410 688 l 403 654 l 233 654 l 118 0 l -35 0 l 88 688 m 211 744 l 281 903 l 394 903 l 238 744 l 211 744 z "},"ґ":{"ha":383,"x_min":-33,"x_max":432,"o":"m 89 688 l 308 688 l 331 822 l 432 822 l 403 654 l 233 654 l 119 0 l -33 0 l 89 688 z "},"є":{"ha":460,"x_min":-12,"x_max":468,"o":"m 43 476 q 75 565 51 525 q 133 636 99 606 q 212 683 168 667 q 303 700 256 700 q 398 681 354 700 q 468 628 442 663 l 439 606 q 387 647 419 631 q 321 663 354 663 q 252 638 281 663 q 217 568 224 613 l 179 360 l 358 360 l 351 326 l 174 326 l 139 129 q 153 53 131 82 q 221 25 175 25 q 310 51 265 25 q 381 118 356 78 l 410 103 q 315 18 374 49 q 186 -12 256 -12 q 97 4 136 -12 q 32 51 57 21 q -3 122 7 81 q -4 211 -12 163 l 43 476 z "},"ѕ":{"ha":411,"x_min":-47,"x_max":403,"o":"m 375 619 q 286 661 336 661 q 224 636 249 661 q 200 571 200 611 q 214 510 200 542 l 326 232 q 339 169 339 199 q 320 100 339 133 q 269 42 301 67 q 196 1 238 17 q 110 -14 154 -14 q 21 5 61 -14 q -47 58 -19 24 l -21 83 q 37 40 7 56 q 94 25 67 25 q 150 49 129 25 q 171 113 171 72 q 146 214 171 156 l 56 435 q 38 514 38 475 q 56 585 38 551 q 103 645 74 619 q 174 686 133 671 q 258 701 214 701 q 403 643 349 701 l 375 619 z "},"і":{"ha":283,"x_min":-21,"x_max":304,"o":"m 121 860 q 157 922 128 897 q 224 946 186 946 q 283 922 263 946 q 297 860 304 897 q 261 798 290 824 q 193 772 232 772 q 135 798 156 772 q 121 860 114 824 m 253 688 l 132 0 l -21 0 l 100 688 l 253 688 z "},"ї":{"ha":282,"x_min":-21,"x_max":364,"o":"m 253 688 l 132 0 l -21 0 l 100 688 l 253 688 m 56 863 q 81 905 60 889 q 126 921 101 921 q 167 905 151 921 q 178 863 182 889 q 152 819 174 836 q 106 803 131 803 q 66 819 81 803 q 56 863 51 836 m 236 863 q 263 905 242 889 q 307 921 283 921 q 349 905 335 921 q 358 863 364 889 q 334 819 354 836 q 286 803 314 803 q 247 819 263 803 q 236 863 232 836 z "},"ј":{"ha":325,"x_min":-86,"x_max":347,"o":"m 165 860 q 201 922 172 897 q 267 946 231 946 q 326 922 304 946 q 340 860 347 897 q 303 798 333 824 q 236 772 274 772 q 179 797 200 772 q 165 860 158 822 m 186 51 q 160 -33 178 6 q 111 -108 142 -72 q 35 -176 81 -143 q -74 -243 -11 -208 l -86 -221 q -52 -194 -68 -207 q -23 -162 -36 -181 q 0 -121 -10 -144 q 15 -64 10 -97 l 147 688 l 297 688 l 186 51 z "},"љ":{"ha":951,"x_min":-81,"x_max":867,"o":"m 703 388 q 772 375 740 388 q 824 340 803 363 q 856 286 846 317 q 860 219 867 256 l 850 164 q 824 101 844 131 q 774 49 803 71 q 708 13 744 26 q 636 0 672 0 l 388 0 l 503 654 l 365 654 l 289 304 q 188 66 254 144 q 29 -12 121 -12 q -81 19 -32 -12 l -61 53 q 8 31 -26 31 q 69 63 44 31 q 113 179 94 96 l 218 689 l 661 689 l 608 388 l 703 388 m 708 229 q 664 353 731 353 l 601 353 l 546 35 l 617 35 q 666 60 649 35 q 694 154 683 86 l 708 229 z "},"њ":{"ha":831,"x_min":-33,"x_max":746,"o":"m 240 689 l 188 388 l 335 388 l 388 689 l 540 689 l 488 388 l 582 388 q 651 375 619 388 q 703 340 682 363 q 735 286 725 317 q 739 219 746 256 l 729 164 q 703 101 724 131 q 653 49 682 71 q 588 13 624 26 q 515 0 551 0 l 268 0 l 329 353 l 181 353 l 119 0 l -33 0 l 88 689 l 240 689 m 588 229 q 544 353 610 353 l 481 353 l 425 35 l 496 35 q 545 60 528 35 q 575 154 563 86 l 588 229 z "},"ћ":{"ha":544,"x_min":-29,"x_max":522,"o":"m 229 592 q 298 675 264 650 q 379 700 332 700 q 484 659 446 700 q 511 556 522 618 l 414 0 l 251 0 l 356 590 q 332 657 368 657 q 298 644 317 657 q 262 610 279 631 q 231 563 244 589 q 214 514 218 538 l 124 0 l -29 0 l 142 971 l 293 971 l 235 635 l 221 594 l 229 592 z "},"ќ":{"ha":507,"x_min":-33,"x_max":472,"o":"m 224 303 q 209 335 219 326 q 183 344 199 344 l 179 344 l 118 0 l -33 0 l 88 689 l 240 689 l 185 379 l 214 379 l 429 689 l 469 689 l 254 379 q 291 373 271 379 q 328 353 311 367 q 360 320 346 340 q 378 272 374 300 l 426 0 l 269 0 l 224 303 m 289 744 l 358 903 l 472 903 l 315 744 l 289 744 z "},"ў":{"ha":465,"x_min":-57,"x_max":483,"o":"m 214 688 l 257 310 l 257 269 l 267 269 l 281 310 l 446 688 l 483 688 l 117 -144 q -15 -243 74 -243 q -57 -237 -36 -243 l -42 -204 q 31 -199 0 -214 q 83 -136 61 -185 l 136 -17 l 54 688 l 214 688 m 432 926 l 453 926 q 402 830 442 868 q 310 792 363 792 q 229 830 257 792 q 211 926 201 868 l 232 926 q 251 876 226 896 q 321 857 276 857 q 395 876 364 857 q 432 926 426 894 z "},"џ":{"ha":536,"x_min":-33,"x_max":526,"o":"m 88 688 l 239 688 l 124 33 l 260 33 l 375 688 l 526 688 l 406 0 l 233 0 l 207 -151 l 113 -151 l 139 0 l -33 0 l 88 688 z "},"Ѐ":{"ha":468,"x_min":-21,"x_max":521,"o":"m 521 971 l 515 935 l 308 935 l 235 514 l 411 514 l 406 478 l 228 478 l 149 36 l 356 36 l 350 0 l -21 0 l 151 971 l 521 971 m 344 1028 l 243 1186 l 357 1186 l 371 1028 l 344 1028 z "},"Ѝ":{"ha":557,"x_min":-28,"x_max":585,"o":"m 585 971 l 414 0 l 376 0 l 517 792 l 529 847 l 519 847 l 492 792 l 43 0 l -28 0 l 143 971 l 181 971 l 81 411 l 68 356 l 78 356 l 106 411 l 419 971 l 585 971 m 344 1028 l 243 1186 l 357 1186 l 371 1028 l 344 1028 z "},"ѐ":{"ha":524,"x_min":-15,"x_max":497,"o":"m 44 486 q 76 569 51 531 q 135 638 100 608 q 214 683 171 667 q 303 700 257 700 q 385 683 347 700 q 449 636 422 665 q 486 569 475 607 q 490 488 497 531 l 463 333 l 174 333 l 136 117 q 153 49 129 75 q 221 22 176 22 q 319 54 271 22 q 396 139 368 86 l 425 126 q 324 24 386 60 q 189 -12 263 -12 q 101 4 140 -12 q 35 49 61 21 q -3 117 8 78 q -7 199 -15 156 l 44 486 m 311 367 l 349 582 q 342 642 356 618 q 300 667 328 667 q 249 642 272 667 q 218 582 225 618 l 181 367 l 311 367 m 311 788 l 210 946 l 324 946 l 338 788 l 311 788 z "},"ѝ":{"ha":494,"x_min":-35,"x_max":483,"o":"m 483 688 l 363 1 l 329 1 l 426 557 l 438 597 l 429 599 l 406 558 l 29 1 l -35 1 l 88 688 l 122 688 l 53 297 l 42 257 l 51 256 l 74 296 l 333 688 l 483 688 m 285 788 l 183 946 l 297 946 l 311 788 l 285 788 z "},"Ҋ":{"ha":583,"x_min":-28,"x_max":585,"o":"m 585 971 l 414 0 l 376 0 l 517 792 l 529 847 l 519 847 l 492 792 l 43 0 l -28 0 l 143 971 l 181 971 l 81 411 l 68 356 l 78 356 l 106 411 l 419 971 l 585 971 m 471 1167 l 492 1167 q 441 1070 481 1108 q 349 1032 401 1032 q 268 1070 296 1032 q 250 1167 240 1108 l 271 1167 q 290 1117 265 1136 q 360 1097 315 1097 q 434 1116 403 1097 q 471 1167 465 1135 m 351 -151 l 424 0 l 404 0 l 411 36 l 535 36 l 446 -151 l 351 -151 z "},"ҋ":{"ha":543,"x_min":-35,"x_max":485,"o":"m 483 688 l 363 1 l 329 1 l 426 557 l 438 597 l 429 599 l 406 558 l 29 1 l -35 1 l 88 688 l 122 688 l 53 297 l 42 257 l 51 256 l 74 296 l 333 688 l 483 688 m 303 -151 l 374 0 l 354 0 l 361 33 l 485 33 l 397 -151 l 303 -151 m 410 926 l 431 926 q 380 830 419 868 q 288 792 340 792 q 207 830 235 792 q 189 926 179 868 l 210 926 q 229 876 204 896 q 299 857 254 857 q 373 876 342 857 q 410 926 404 894 z "},"Ҍ":{"ha":585,"x_min":-21,"x_max":528,"o":"m 318 546 q 412 528 371 546 q 480 478 453 510 q 517 403 507 447 q 519 310 528 360 l 506 231 q 473 141 497 183 q 414 67 449 99 q 337 18 379 36 q 250 0 294 0 l -21 0 l 150 971 l 313 971 l 238 546 l 318 546 m 363 336 q 299 510 393 510 l 231 510 l 147 36 l 228 36 q 297 73 272 36 q 339 204 322 110 l 363 336 m 63 824 l 372 824 l 365 788 l 57 788 l 63 824 z "},"ҍ":{"ha":529,"x_min":-35,"x_max":444,"o":"m 281 388 q 349 375 318 388 q 402 340 381 363 q 434 286 424 317 q 438 219 444 256 l 428 164 q 401 101 422 131 q 351 49 381 71 q 286 13 322 26 q 214 0 250 0 l -35 0 l 86 688 l 239 689 l 186 388 l 281 388 m 286 229 q 242 353 308 353 l 179 353 l 124 35 l 194 35 q 244 60 226 35 q 272 154 261 86 l 286 229 m 10 603 l 319 603 l 313 569 l 4 569 l 10 603 z "},"Ҏ":{"ha":579,"x_min":-21,"x_max":597,"o":"m 397 971 q 487 952 447 971 q 551 901 526 933 q 587 827 576 869 q 589 738 597 785 l 581 686 q 548 597 572 639 q 487 522 524 554 q 405 472 450 490 q 310 453 360 453 l 222 453 l 142 0 l -21 0 l 151 971 l 397 971 m 431 756 q 433 892 447 850 q 374 935 419 935 l 307 935 l 228 489 l 301 489 q 372 532 346 489 q 415 668 399 575 l 431 756 m 324 590 l 400 397 l 376 385 l 300 578 l 324 590 z "},"ҏ":{"ha":536,"x_min":-72,"x_max":500,"o":"m 224 613 l 232 610 q 288 679 258 658 q 356 700 318 700 q 419 685 390 700 q 466 642 447 669 q 492 581 485 615 q 493 506 500 546 l 439 194 q 409 115 431 153 q 358 48 388 76 q 292 3 328 19 q 219 -14 256 -14 q 136 64 149 -14 l 126 61 l 125 21 l 81 -233 l -72 -233 l 90 688 l 243 688 l 238 653 l 224 613 m 147 142 q 146 99 143 119 q 156 61 149 78 q 175 35 163 44 q 201 25 188 25 q 240 46 222 25 q 264 99 258 67 l 347 574 q 342 627 353 606 q 310 649 331 649 q 281 639 296 649 q 253 613 267 629 q 231 577 240 597 q 217 536 221 557 l 147 142 m 207 129 l 283 -64 l 260 -76 l 183 117 l 207 129 z "},"Ғ":{"ha":415,"x_min":-21,"x_max":511,"o":"m 151 971 l 511 971 l 504 935 l 307 935 l 142 0 l -21 0 l 151 971 m 11 535 l 321 535 l 314 499 l 6 499 l 11 535 z "},"ғ":{"ha":383,"x_min":-35,"x_max":410,"o":"m 88 688 l 410 688 l 403 654 l 233 654 l 118 0 l -35 0 l 88 688 m -26 394 l 283 394 l 276 361 l -32 361 l -26 394 z "},"Ҕ":{"ha":613,"x_min":-19,"x_max":532,"o":"m 307 935 l 240 553 l 219 518 l 225 511 q 286 533 256 526 q 342 539 317 539 q 426 522 389 539 q 488 476 464 506 q 522 405 513 446 q 524 317 532 364 l 478 60 q 445 -30 469 11 q 385 -101 421 -71 q 303 -147 349 -131 q 204 -164 257 -164 l 210 -131 q 269 -101 246 -131 q 300 -33 293 -72 l 378 408 q 366 478 385 453 q 306 503 347 503 q 228 483 269 503 l 143 0 l -19 0 l 153 971 l 522 971 l 515 935 l 307 935 z "},"ҕ":{"ha":529,"x_min":-35,"x_max":446,"o":"m 233 654 l 186 385 l 165 350 l 169 342 q 268 364 215 364 q 404 316 363 364 q 432 196 446 268 l 399 3 q 325 -117 386 -71 q 157 -164 264 -164 l 161 -137 q 207 -115 190 -137 q 229 -64 224 -93 l 288 264 q 281 316 293 297 q 233 335 268 335 q 204 331 218 335 q 175 321 190 328 l 118 -1 l -35 -1 l 88 688 l 432 688 l 425 654 l 233 654 z "},"Җ":{"ha":1017,"x_min":-97,"x_max":947,"o":"m 676 0 l 604 414 q 581 477 596 463 q 543 492 565 492 l 542 492 l 454 0 l 292 0 l 379 492 l 378 492 q 335 478 356 492 q 290 415 315 464 l 72 0 l -97 0 l 113 381 q 201 493 157 460 q 303 529 244 526 l 143 971 l 186 971 l 346 529 l 385 529 l 464 971 l 626 971 l 549 529 l 589 529 l 904 971 l 947 971 l 632 529 q 722 493 689 526 q 769 381 754 460 l 844 0 l 676 0 m 819 36 l 947 36 l 914 -151 l 819 -151 l 846 0 l 814 0 l 819 36 z "},"җ":{"ha":874,"x_min":-93,"x_max":769,"o":"m 472 303 q 458 335 468 326 q 432 344 447 344 l 428 344 l 368 0 l 215 0 l 276 344 l 272 344 q 244 335 258 344 q 218 303 231 326 l 65 0 l -93 0 l 53 272 q 88 320 67 300 q 131 353 108 340 q 176 373 154 367 q 215 379 199 379 l 107 688 l 147 688 l 254 379 l 282 379 l 338 688 l 489 688 l 433 379 l 463 379 l 678 688 l 719 688 l 503 379 q 540 372 519 378 q 578 353 560 365 q 610 320 596 340 q 628 272 624 300 l 676 0 l 519 0 l 472 303 m 643 35 l 769 35 l 738 -151 l 643 -151 l 669 0 l 638 0 l 643 35 z "},"Ҙ":{"ha":649,"x_min":-19,"x_max":658,"o":"m 213 -14 q 83 2 143 -14 q -19 49 24 18 l 7 81 q 92 42 49 54 q 178 29 136 29 q 333 85 269 29 q 413 236 396 140 l 425 300 q 403 435 440 385 q 290 485 365 485 l 260 485 l 267 521 l 296 521 q 415 570 365 521 q 481 707 465 619 l 488 750 q 465 885 503 835 q 354 936 428 936 q 267 919 313 936 q 176 869 221 901 l 154 897 q 269 960 203 938 q 408 983 335 983 q 518 967 469 983 q 599 919 567 950 q 645 847 632 889 q 650 751 658 804 l 643 714 q 565 570 626 621 q 403 511 503 519 l 375 508 l 374 497 l 400 494 q 551 432 503 485 q 583 288 600 379 l 576 242 q 535 136 567 183 q 455 56 503 89 q 345 4 407 22 q 213 -14 283 -14 m 111 -104 q 161 -154 125 -154 q 204 -128 188 -154 q 219 -78 221 -103 q 208 -36 219 -57 q 174 0 197 -15 l 197 0 q 257 -51 236 -22 q 278 -108 278 -81 q 269 -144 278 -128 q 247 -172 261 -160 q 216 -192 233 -185 q 181 -199 199 -199 q 124 -176 147 -199 q 90 -114 100 -154 l 111 -104 z "},"Қ":{"ha":704,"x_min":-22,"x_max":633,"o":"m 363 0 l 290 414 q 267 477 282 463 q 229 492 251 492 l 228 492 l 140 0 l -22 0 l 150 971 l 313 971 l 235 529 l 275 529 l 590 971 l 633 971 l 318 529 q 407 493 374 526 q 456 381 440 460 l 531 0 l 363 0 m 506 36 l 633 36 l 600 -151 l 506 -151 l 532 0 l 500 0 l 506 36 z "},"қ":{"ha":600,"x_min":-33,"x_max":525,"o":"m 224 303 q 209 335 219 326 q 183 344 199 344 l 179 344 l 118 0 l -33 0 l 88 689 l 240 689 l 185 379 l 214 379 l 429 689 l 469 689 l 254 379 q 291 373 271 379 q 328 353 311 367 q 360 320 346 340 q 378 272 374 300 l 426 0 l 269 0 l 224 303 m 399 35 l 525 35 l 493 -151 l 399 -151 l 425 0 l 393 0 l 399 35 z "},"Ҝ":{"ha":664,"x_min":-21,"x_max":690,"o":"m 418 0 l 346 414 q 327 471 339 454 q 299 490 315 488 l 283 403 l 253 403 l 268 493 l 228 493 l 142 0 l -21 0 l 150 971 l 313 971 l 235 529 l 275 529 l 294 638 l 325 638 l 306 529 l 331 529 l 646 971 l 690 971 l 374 529 q 463 493 431 526 q 511 381 496 460 l 586 0 l 418 0 z "},"ҝ":{"ha":556,"x_min":-33,"x_max":518,"o":"m 278 303 q 265 335 275 326 q 242 344 256 343 l 226 254 l 199 254 l 214 344 l 178 344 l 118 0 l -33 0 l 88 688 l 239 688 l 185 379 l 219 379 l 239 489 l 267 489 l 247 379 l 268 379 l 478 688 l 518 688 l 308 379 q 346 373 325 379 q 385 354 367 367 q 416 322 403 342 q 433 272 429 301 l 475 0 l 318 0 l 278 303 z "},"Ҟ":{"ha":608,"x_min":-22,"x_max":633,"o":"m 363 0 l 290 414 q 267 477 282 463 q 229 492 251 492 l 228 492 l 140 0 l -22 0 l 150 971 l 313 971 l 235 529 l 275 529 l 590 971 l 633 971 l 318 529 q 407 493 374 526 q 456 381 440 460 l 531 0 l 363 0 m 69 856 l 379 856 l 372 819 l 64 819 l 69 856 z "},"ҟ":{"ha":507,"x_min":-35,"x_max":469,"o":"m 222 303 q 209 335 219 326 q 183 344 199 343 l 178 344 l 118 0 l -35 0 l 104 789 l 43 789 l 50 824 l 111 824 l 136 971 l 289 971 l 263 824 l 358 824 l 353 789 l 256 789 l 185 379 l 213 379 l 428 688 l 469 688 l 253 379 q 290 372 269 378 q 328 353 310 365 q 360 320 346 340 q 378 272 374 300 l 426 0 l 269 0 l 222 303 z "},"Ҡ":{"ha":717,"x_min":68,"x_max":742,"o":"m 471 0 l 399 414 q 375 477 390 463 q 338 492 360 492 l 336 492 l 249 0 l 86 0 l 258 971 l 421 971 l 343 529 l 383 529 l 699 971 l 742 971 l 426 529 q 515 493 482 526 q 564 381 549 460 l 639 0 l 471 0 m 74 971 l 261 971 l 256 935 l 68 935 l 74 971 z "},"ҡ":{"ha":614,"x_min":31,"x_max":576,"o":"m 331 303 q 316 335 326 326 q 290 344 306 344 l 286 344 l 225 0 l 74 0 l 194 689 l 347 689 l 292 379 l 321 379 l 536 689 l 576 689 l 361 379 q 398 373 378 379 q 435 353 418 367 q 467 320 453 340 q 485 272 481 300 l 533 0 l 376 0 l 331 303 m 36 688 l 196 688 l 190 654 l 31 654 l 36 688 z "},"Ң":{"ha":669,"x_min":-21,"x_max":665,"o":"m 314 971 l 231 503 l 421 503 l 504 971 l 665 971 l 494 0 l 332 0 l 414 467 l 225 467 l 142 0 l -21 0 l 151 971 l 314 971 m 481 36 l 608 36 l 575 -151 l 481 -151 l 507 0 l 475 0 l 481 36 z "},"ң":{"ha":588,"x_min":-33,"x_max":540,"o":"m 240 689 l 183 363 l 331 363 l 388 689 l 540 689 l 419 0 l 267 0 l 325 328 l 176 328 l 119 0 l -33 0 l 88 689 l 240 689 m 407 35 l 533 35 l 501 -151 l 407 -151 l 433 0 l 401 0 l 407 35 z "},"Ҥ":{"ha":756,"x_min":-21,"x_max":850,"o":"m 314 971 l 231 503 l 421 503 l 504 971 l 665 971 l 494 0 l 332 0 l 414 467 l 225 467 l 142 0 l -21 0 l 151 971 l 314 971 m 663 971 l 850 971 l 844 935 l 657 935 l 663 971 z "},"ҥ":{"ha":672,"x_min":-33,"x_max":697,"o":"m 240 689 l 183 363 l 331 363 l 388 689 l 540 689 l 419 0 l 267 0 l 325 328 l 176 328 l 119 0 l -33 0 l 88 689 l 240 689 m 538 688 l 697 688 l 692 654 l 532 654 l 538 688 z "},"Ҧ":{"ha":965,"x_min":-19,"x_max":885,"o":"m 667 971 l 592 553 l 571 518 l 576 511 q 638 533 607 526 q 694 539 668 539 q 779 522 742 539 q 841 476 817 506 q 875 405 865 446 q 876 317 885 364 l 831 60 q 798 -30 822 11 q 737 -101 774 -71 q 654 -147 700 -131 q 556 -164 608 -164 l 561 -131 q 622 -101 597 -131 q 653 -35 646 -72 l 731 410 q 719 478 738 454 q 658 503 700 503 q 581 483 619 503 l 494 0 l 332 0 l 497 935 l 307 935 l 143 0 l -19 0 l 151 971 l 667 971 z "},"ҧ":{"ha":815,"x_min":-35,"x_max":732,"o":"m 526 686 l 474 383 l 453 349 l 457 342 q 503 358 481 353 q 554 363 526 363 q 690 315 649 363 q 718 196 732 268 l 685 4 q 611 -117 672 -71 q 444 -164 550 -164 l 449 -137 q 493 -115 476 -137 q 515 -65 510 -93 l 574 265 q 567 316 579 297 q 519 335 554 335 q 463 321 492 335 l 406 0 l 253 -1 l 368 653 l 233 653 l 117 0 l -35 0 l 86 686 l 526 686 z "},"Ҩ":{"ha":740,"x_min":11,"x_max":719,"o":"m 168 185 q 189 66 154 108 q 304 24 224 24 q 356 29 333 24 q 276 115 301 64 q 263 231 251 167 l 326 583 q 406 758 346 694 q 554 821 467 821 q 681 756 642 821 q 700 576 719 690 l 639 232 q 476 24 611 85 q 599 6 525 6 l 592 -31 q 410 1 486 -31 q 283 -12 354 -12 q 160 8 214 -12 q 72 67 106 29 q 24 159 38 106 q 22 278 11 213 l 97 704 q 136 818 108 767 q 205 906 164 869 q 298 963 246 943 q 408 983 350 983 q 538 950 486 983 l 514 918 q 414 947 468 947 q 323 910 356 947 q 275 786 290 872 l 168 185 m 421 61 q 476 163 465 97 l 567 669 q 573 758 578 732 q 549 785 568 785 q 515 758 529 785 q 490 668 501 731 l 400 163 q 421 61 390 99 z "},"ҩ":{"ha":665,"x_min":-14,"x_max":638,"o":"m 142 138 q 163 52 132 83 q 258 21 194 21 q 297 25 279 21 q 217 182 200 81 l 253 389 q 461 585 289 585 q 601 385 638 585 l 565 182 q 518 90 557 132 q 421 22 479 49 q 535 7 469 7 l 529 -25 q 353 0 426 -25 q 250 -12 306 -12 q 133 3 185 -12 q 49 46 82 18 q 1 112 15 74 q -6 197 -14 150 l 46 489 q 79 571 54 532 q 142 639 104 610 q 224 685 179 668 q 317 701 269 701 q 414 676 372 701 l 394 647 q 322 668 361 668 q 214 550 235 668 l 142 138 m 368 51 q 407 107 400 75 l 471 469 q 476 532 479 514 q 456 550 472 550 q 430 531 440 550 q 413 468 419 513 l 349 110 q 368 51 343 76 z "},"Ҫ":{"ha":554,"x_min":3,"x_max":599,"o":"m 101 701 q 140 819 113 767 q 208 908 168 871 q 299 965 247 944 q 410 985 350 985 q 599 899 536 985 l 568 874 q 428 942 513 942 q 330 906 368 942 q 279 800 292 869 l 168 178 q 263 29 142 29 q 377 60 324 29 q 463 144 431 92 l 494 129 q 386 23 454 60 q 236 -14 318 -14 q 58 66 114 -14 q 25 281 3 146 l 101 701 m 160 -104 q 210 -154 174 -154 q 253 -128 236 -154 q 268 -78 269 -103 q 257 -36 268 -57 q 222 0 246 -15 l 246 0 q 306 -51 285 -22 q 326 -108 326 -81 q 318 -144 326 -128 q 296 -172 310 -160 q 265 -192 282 -185 q 229 -199 247 -199 q 172 -176 196 -199 q 139 -114 149 -154 l 160 -104 z "},"ҫ":{"ha":460,"x_min":-12,"x_max":468,"o":"m 42 476 q 74 566 50 525 q 133 637 99 607 q 212 683 168 667 q 303 700 256 700 q 397 681 354 700 q 468 629 440 663 l 439 606 q 386 647 419 631 q 319 664 353 664 q 251 639 279 664 q 217 569 224 614 l 139 129 q 153 53 131 81 q 219 25 175 25 q 310 51 264 25 q 381 117 356 76 l 408 103 q 314 17 372 49 q 186 -14 256 -14 q 97 3 136 -14 q 32 49 57 19 q -3 121 7 79 q -4 211 -12 163 l 42 476 m 115 -103 q 165 -153 129 -153 q 208 -127 192 -153 q 224 -76 225 -101 q 213 -35 224 -56 q 178 1 201 -14 l 201 1 q 261 -50 240 -21 q 282 -107 282 -79 q 274 -142 282 -126 q 251 -171 265 -158 q 220 -190 238 -183 q 185 -197 203 -197 q 128 -175 151 -197 q 94 -112 104 -153 l 115 -103 z "},"Ҭ":{"ha":496,"x_min":69,"x_max":592,"o":"m 585 935 l 408 935 l 243 0 l 81 0 l 246 935 l 69 935 l 75 971 l 592 971 l 585 935 m 150 40 l 278 40 l 244 -147 l 150 -147 l 176 4 l 144 4 l 150 40 z "},"ҭ":{"ha":467,"x_min":46,"x_max":483,"o":"m 478 654 l 339 654 l 224 0 l 71 0 l 186 654 l 46 654 l 53 688 l 483 688 l 478 654 m 211 35 l 338 35 l 306 -151 l 211 -151 l 238 0 l 206 0 l 211 35 z "},"Ү":{"ha":486,"x_min":74,"x_max":581,"o":"m 314 578 l 321 522 l 331 522 l 353 578 l 540 969 l 581 969 l 333 456 l 254 0 l 92 0 l 169 440 l 74 969 l 244 969 l 314 578 z "}}}
